<svg width="1921" height="1064" viewBox="0 0 1921 1064" fill="none" xmlns="http://www.w3.org/2000/svg">
<path d="M0 0H1920.13V1063.99H0V0Z" fill="#EFEFEF"/>
<path d="M411.105 103.635C252.047 103.635 123.104 232.578 123.104 391.636C123.104 550.693 252.047 679.636 411.105 679.636C570.162 679.636 699.105 550.693 699.105 391.636C699.105 232.578 570.162 103.635 411.105 103.635Z" fill="#8992D5"/>
<path d="M784.094 590.099C672.531 590.099 582.094 680.537 582.094 792.099C582.094 903.662 672.531 994.099 784.094 994.099C895.651 994.099 986.094 903.662 986.094 792.099C986.094 680.537 895.651 590.099 784.094 590.099Z" fill="#8992D5"/>
<path d="M740.917 103.635C701.427 103.635 669.417 135.646 669.417 175.136C669.417 214.625 701.427 246.636 740.917 246.636C780.401 246.636 812.417 214.625 812.417 175.136C812.417 135.646 780.401 103.635 740.917 103.635Z" fill="#8992D5"/>
</svg>
