<svg width="540" height="287" viewBox="0 0 540 287" fill="none" xmlns="http://www.w3.org/2000/svg">
<path d="M95.8849 227.504C95.8849 227.504 86.6614 216.935 95.3162 210.216C95.3162 210.216 101.639 206.458 106.796 206.758C106.796 206.758 99.4838 218.791 101.853 219.988C104.223 221.185 109.008 206.006 109.008 206.006C109.008 206.006 123.398 204.633 128.026 206.82C128.026 206.82 115.727 216.706 118.315 217.294C120.904 217.881 134.193 208.179 134.193 208.179C134.193 208.179 147.584 210.418 146.869 218.443C146.154 226.467 141.542 228.943 139.514 228.728C137.486 228.512 125.622 224.068 125.364 225.701C125.107 227.334 132.246 232.664 137.247 232.914C137.247 232.914 127.804 243.141 121.541 240.191C115.277 237.241 114.73 232.56 110.817 230.805C106.904 229.05 103.568 229.055 105.182 230.845C106.796 232.635 113.877 234.374 116.114 238.26C118.351 242.146 120.357 244.766 113.863 243.808C107.37 242.851 96.8191 238.183 96.3561 232.84L95.8849 227.504Z" fill="#4E92F9"/>
<path d="M140.289 218.666C140.289 218.666 103.92 217.288 95.8772 227.504C95.8772 227.504 94.1008 232.731 88.636 237.489L87.783 239.768C87.783 239.768 94.0872 233.244 96.3403 232.853C96.3484 232.848 92.8226 220.19 140.289 218.666Z" fill="#3A49CD"/>
<path d="M88.646 237.489C88.646 237.489 80.8388 243.159 80.2972 253.29L81.7135 253.415C81.7135 253.415 84.2076 242.939 88.7137 238.843C93.2199 234.747 88.646 237.489 88.646 237.489Z" fill="#3A49CD"/>
<path d="M63.6353 214.214C63.6353 214.214 78.3074 206.141 71.4588 195.189C71.4588 195.189 65.9804 188.462 60.1122 186.733C60.1122 186.733 63.2426 203.067 60.1122 203.452C56.9817 203.838 57.9457 185.005 57.9457 185.005C57.9457 185.005 42.4884 177.701 36.4251 178.278C36.4251 178.278 46.0115 194.237 42.881 193.843C39.7505 193.449 28.9888 177.318 28.9888 177.318C28.9888 177.318 13.1415 174.435 10.5987 183.659C8.05582 192.883 12.1639 197.489 14.5118 198.072C16.8596 198.654 31.9243 198.455 31.5344 200.378C31.1444 202.301 20.9731 205.373 15.2862 203.644C15.2862 203.644 21.5472 218.826 29.7634 218.057C37.9795 217.288 40.525 212.291 45.6134 211.908C50.7018 211.525 54.4172 212.868 51.8743 214.214C49.3315 215.56 40.72 214.653 36.6119 218.084C32.5039 221.515 29.1784 223.629 36.8069 225.166C44.4354 226.704 58.1326 225.744 60.8731 219.977L63.6353 214.214Z" fill="#4E92F9"/>
<path d="M17.85 186.542C17.85 186.542 58.9389 199.609 63.6346 214.203C63.6346 214.203 63.4369 220.735 67.545 228.23V231.114C67.545 231.114 63.2419 221.313 60.8941 219.967C60.8941 219.977 70.0905 207.296 17.85 186.542Z" fill="#93B3F4"/>
<path d="M67.5446 228.241C67.5446 228.241 73.8814 237.691 70.2689 249.194L68.6441 248.763C68.6441 248.763 70.2283 236.095 66.9137 229.722C63.5991 223.35 67.5446 228.241 67.5446 228.241Z" fill="#93B3F4"/>
<path d="M86.9775 203.083C86.9775 203.083 67.6341 192.444 76.6627 178.004C76.6627 178.004 83.8823 169.139 91.6218 166.86C91.6218 166.86 87.4948 188.39 91.6218 188.896C95.7488 189.401 94.4571 164.58 94.4571 164.58C94.4571 164.58 114.832 154.952 122.826 155.713C122.826 155.713 110.191 176.725 114.315 176.233C118.439 175.741 132.627 154.447 132.627 154.447C132.627 154.447 153.519 150.646 156.872 162.806C160.224 174.967 154.808 181.044 151.726 181.805C148.645 182.565 128.773 182.31 129.288 184.842C129.802 187.374 143.215 191.43 150.681 189.151C150.681 189.151 142.427 209.16 131.595 208.147C120.763 207.133 117.41 200.548 110.705 200.043C104 199.537 99.0987 201.309 102.454 203.083C105.809 204.857 117.153 203.662 122.569 208.184C127.985 212.705 132.369 215.493 122.298 217.52C112.227 219.546 94.1863 218.28 90.5765 210.681L86.9775 203.083Z" fill="#4E92F9"/>
<path d="M147.329 166.605C147.329 166.605 93.1688 183.832 86.9783 203.083C86.9783 203.083 87.2491 211.695 81.833 221.573V225.374C81.833 225.374 87.5199 212.456 90.6043 210.682C90.5908 210.682 78.4669 193.963 147.329 166.605Z" fill="#3A49CD"/>
<path d="M81.8186 221.573C81.8186 221.573 73.4671 234.031 78.2305 249.194L80.3779 248.628C80.3779 248.628 78.2928 231.925 82.6608 223.525C87.0289 215.126 81.8186 221.573 81.8186 221.573Z" fill="#3A49CD"/>
<path d="M86.3283 282.079C91.304 282.079 96.231 281.116 100.828 279.246C105.425 277.376 109.602 274.635 113.12 271.179C116.638 267.723 119.429 263.621 121.333 259.105C123.237 254.59 124.217 249.751 124.216 244.864H48.4376C48.4373 249.751 49.4171 254.591 51.3211 259.106C53.2252 263.621 56.0162 267.724 59.5347 271.18C63.0533 274.636 67.2305 277.377 71.8277 279.247C76.425 281.117 81.3523 282.079 86.3283 282.079Z" fill="#EFAB18"/>
<path d="M95.649 281.794C90.3179 282.446 84.9067 281.977 79.774 280.42C74.6412 278.862 69.9041 276.251 65.8767 272.759C61.8492 269.267 58.6233 264.974 56.4128 260.165C54.2022 255.356 53.0575 250.141 53.0545 244.864H62.4676C62.4678 253.933 65.8395 262.691 71.9493 269.491C78.0592 276.291 86.4867 280.666 95.649 281.794V281.794Z" fill="#FFCF69"/>
<path d="M124.741 283.973H47.9117C47.9124 282.755 48.4055 281.587 49.2825 280.726C50.1594 279.866 51.3486 279.382 52.5884 279.382H120.059C121.299 279.382 122.488 279.866 123.365 280.726C124.242 281.587 124.735 282.755 124.736 283.973H124.741Z" fill="#EFAB18"/>
<path d="M125.08 244.864H47.1917V246.005H125.08V244.864Z" fill="#EFAB18"/>
<path d="M461.133 271.376C461.133 271.376 461.918 283.816 464.366 283.994C464.694 284.018 476.796 284.018 476.796 284.018L492.232 283.928C492.232 283.928 492.132 280.273 487.628 279.499C483.125 278.725 475.553 275.611 472.818 269.749C469.939 263.581 461.133 271.376 461.133 271.376Z" fill="#060632"/>
<path d="M452.886 124.262C452.886 124.262 460.179 128.334 462.221 128.334C464.262 128.334 472.275 126.813 474.51 127.932C476.744 129.052 480.787 133.566 481.55 135.039C482.904 137.699 476.059 136.518 472.817 134.26C472.584 134.097 472.32 133.984 472.04 133.928C471.76 133.871 471.471 133.873 471.192 133.933C469.513 134.292 466.025 134.914 464.341 134.302C462.077 133.481 450.151 132.566 450.151 132.566L452.886 124.262Z" fill="#FFF0F0"/>
<path d="M397.399 68.7882C397.399 68.7882 404.957 121.565 417.476 126.291C423.653 128.624 450.956 133.911 459.031 134.443C459.031 134.443 461.008 132.866 460.526 126.464C460.526 126.464 431.924 116.15 427.862 110.543C421.815 102.194 431.615 76.4402 424.027 68.602C416.439 60.7638 403.657 57.378 397.399 68.7882Z" fill="#B78EC6"/>
<path d="M399.945 179.978C402.164 183.597 404.632 187.062 407.332 190.351C415.457 200.426 424.304 208.735 425.844 216.586C426.194 218.294 426.671 219.974 427.272 221.613C427.916 223.411 428.71 225.302 429.63 227.257C433.078 234.614 438.234 242.856 443.382 250.351C452.283 263.301 460.651 274.11 460.651 274.11L476 273.469C475.385 271.956 468.688 254.072 459.735 232.217C456.101 223.344 452.234 213.905 448.502 204.806L447.016 201.178C445.876 198.394 444.755 195.651 443.658 192.984C435.249 172.459 428.552 156.117 428.552 156.117C428.552 156.117 394.943 143.617 391.453 151.715C388.577 158.402 390.919 164.956 399.945 179.978Z" fill="#003E98"/>
<path d="M425.593 235.84C425.593 235.84 414.915 242.577 415.952 244.766C416.09 245.056 421.988 255.434 421.988 255.434L429.598 268.639C429.598 268.639 432.799 266.778 431.285 262.522C429.771 258.267 428.848 250.287 432.734 245.069C436.815 239.593 425.593 235.84 425.593 235.84Z" fill="#060632"/>
<path d="M430.813 247.673C430.813 247.673 424.143 241.893 422.959 237.654C422.959 237.654 450.451 205.304 456.414 198.051C456.685 197.718 456.62 197.354 456.257 196.952C451.757 191.968 401.734 181.832 395.197 171.842C393.248 168.907 391.82 165.67 390.972 162.267C389.491 156.171 390.664 151.96 390.664 151.96L440.619 150.54C440.619 150.54 482.211 175.978 486.926 193.322C491.64 210.666 430.813 247.673 430.813 247.673Z" fill="#164D9D"/>
<path d="M456.264 196.96C451.763 191.976 401.741 181.84 395.203 171.85C393.255 168.915 391.826 165.678 390.979 162.275V156.075L412.212 152.795C412.212 152.795 418.232 170.991 436.065 177.815C452.768 184.207 455.931 195.542 456.264 196.96Z" fill="#003E98"/>
<path d="M426.954 65.4634C416.845 68.0274 400.096 58.8327 400.096 58.8327C400.096 58.8327 406.595 54.5373 409.011 45.1059C409.132 44.6307 409.242 44.1431 409.341 43.6431C410.4 43.4223 412.396 43.0047 414.533 42.5632L422.251 49.3535C422.251 49.3535 422.075 52.1754 421.11 57.0214C420.943 57.8672 420.749 58.7742 420.528 59.7423C423.009 61.2472 425.187 63.1863 426.954 65.4634V65.4634Z" fill="#FFF0F0"/>
<path d="M389.395 106.607C390.844 125.727 388.94 154.809 390.581 159.846C391.998 164.192 408.145 161.61 414.593 160.157C416.976 159.626 419.866 158.854 422.853 157.947C431.177 155.415 440.246 151.801 441.221 149.117C441.259 149.017 441.289 148.913 441.311 148.808C441.394 148.437 441.387 148.052 441.292 147.683C440.969 146.316 439.718 144.835 439.572 141.449C439.407 137.667 439.431 133.204 439.285 128.416C439.285 127.884 439.272 127.289 439.212 126.751V126.555V126.249C439.074 120.908 438.789 115.293 438.459 109.727C438.251 106.229 438.007 102.766 437.728 99.4467C437.002 90.8798 436.025 83.2623 434.727 78.4349C432.612 70.5861 427.957 65.4662 423.698 61.7133L420.627 59.1254C417.198 59.8621 413.147 59.3727 409.481 57.6679C405.513 55.806 404.143 54.4921 403.45 54.9922C394.278 61.9527 387.686 83.2304 389.395 106.607Z" fill="#CCABD8"/>
<path d="M422.852 157.947C431.177 155.415 440.246 151.801 441.221 149.117C441.259 149.017 441.289 148.913 441.31 148.808C441.31 148.433 441.31 148.058 441.291 147.683C440.969 146.316 439.718 144.835 439.572 141.449C439.406 137.667 439.431 133.204 439.285 128.416C439.285 127.884 439.271 127.289 439.212 126.751V126.555V126.249L405.548 84.1453C405.548 84.1453 382.925 130.414 422.852 157.947Z" fill="#B78EC6"/>
<path d="M422.261 49.3535C422.261 49.3535 422.085 52.1754 421.121 57.0214C413.582 54.6277 410.165 47.9412 409.022 45.1059C409.143 44.6307 409.253 44.1431 409.352 43.6431C410.411 43.4223 412.407 43.0047 414.543 42.5632L422.261 49.3535Z" fill="#FFDCDB"/>
<path d="M423.266 53.6278C423.266 53.6278 406.825 50.9335 408.694 40.9063C410.562 30.8792 409.693 23.7751 420.268 25.0704C430.843 26.3656 432.164 30.56 432.37 34.0549C432.576 37.5498 427.591 54.0719 423.266 53.6278Z" fill="#FFF0F0"/>
<path d="M487.961 139.449L489.411 139.912L501.744 102.631L500.294 102.169L487.961 139.449Z" fill="#3A49CD"/>
<path d="M447.531 139.06L489.404 139.936L489.458 137.476L447.585 136.601L447.531 139.06Z" fill="#3A49CD"/>
<path d="M448.386 140.984C448.386 140.984 461.84 144.468 466.887 144.101C471.935 143.734 476.127 141.38 476.764 140.148C477.4 138.917 478.732 136.736 475.296 137.14C471.859 137.545 467.172 138.26 467.026 137.611C466.879 136.962 469.826 137.023 469.826 137.023C469.826 137.023 470.717 135.752 469.595 135.693C468.474 135.635 465.206 134.776 463.99 135.372C462.774 135.967 461.653 138.172 460.767 138.079C459.882 137.986 449.507 133.491 449.507 133.491L448.386 140.984Z" fill="#FFF0F0"/>
<path d="M400.735 70.9558C400.735 70.9558 402.325 124.227 414.238 130.268C420.114 133.254 446.655 141.468 454.622 142.869C454.622 142.869 456.764 141.515 457.005 135.087C457.005 135.087 429.736 121.74 426.326 115.724C421.254 106.774 433.884 82.2383 427.223 73.6235C420.561 65.0087 408.237 60.2903 400.735 70.9558Z" fill="#CCABD8"/>
<path d="M409.011 45.1058C409.011 45.1058 408.825 41.6641 410.986 39.6933C410.986 39.6933 410.233 36.2356 411.622 35.6744C413.011 35.1132 413.301 38.007 413.937 37.5522C414.574 37.0974 417.412 34.935 418.628 31.7514C419.844 28.5677 430.971 32.4243 432.268 32.9961C433.565 33.5679 437.733 31.4668 438.545 29.7619C438.545 29.7619 436.227 27.94 435.187 26.5702C434.147 25.2005 426.849 15.9952 416.659 18.6097C406.469 21.2242 405.079 26.0037 405.659 30.097C406.238 34.1903 404.838 43.7307 409.011 45.1058Z" fill="#120E59"/>
<path d="M100.02 65.5565L108.791 64.7347C109.134 64.7018 109.478 64.7782 109.773 64.9526C110.068 65.127 110.298 65.39 110.429 65.7028L117.053 81.3553C117.147 81.5841 117.185 81.831 117.165 82.0768C117.145 82.3226 117.067 82.5604 116.938 82.7717C116.809 82.983 116.631 83.162 116.419 83.2947C116.208 83.4273 115.968 83.51 115.718 83.5362L106.592 84.3926C106.244 84.4229 105.896 84.3422 105.598 84.1625C105.301 83.9828 105.07 83.7138 104.94 83.3953L98.674 67.7029C98.5871 67.4752 98.5544 67.2309 98.5783 66.9888C98.6022 66.7468 98.6821 66.5133 98.812 66.3062C98.9418 66.0991 99.1182 65.9239 99.3275 65.794C99.5369 65.664 99.7737 65.5828 100.02 65.5565Z" fill="#0D0D38"/>
<path d="M211.221 272.408L206.569 274.834C206.569 274.834 181.403 248.628 175.353 223.48C174.27 218.988 173.84 214.559 174.3 210.36C174.3 210.36 173.934 209.221 173.295 207.205C173.265 207.117 173.238 207.027 173.209 206.939C172.938 206.056 172.594 205.016 172.22 203.841C171.004 200.04 169.336 194.84 167.435 188.92C163.054 175.296 153.037 144.569 148.75 131.789L179.516 120.855C179.516 120.855 183.012 128.682 188.032 149.955C188.807 152.731 189.581 155.806 190.304 159.147C191.117 162.937 191.891 167.081 192.528 171.554C193.723 179.995 194.339 188.505 194.372 197.026C194.391 200.832 194.296 204.779 194.066 208.852C193.898 211.838 194.337 215.817 195.195 220.344C199.078 241.023 211.221 272.408 211.221 272.408Z" fill="#164D9D"/>
<path d="M228.069 283.973H203.196C203.196 283.973 202.267 280.076 203.9 277.425C205.346 275.079 204.791 273.743 203.721 271.802C205.041 272.363 206.473 272.627 207.91 272.576C209.151 272.507 210.461 271.953 211.61 271.299C212.693 272.496 217.264 277.6 218.696 278.611C220.319 279.757 227.568 279.35 228.069 283.973Z" fill="#0D0D38"/>
<path d="M192.533 171.538L173.209 206.913C172.938 206.03 172.594 204.99 172.22 203.814C171.004 200.013 169.336 194.814 167.435 188.893C163.054 175.27 153.037 144.542 148.75 131.762L179.516 120.828C179.516 120.828 183.012 128.656 188.032 149.928C188.807 152.705 189.581 155.78 190.304 159.12C191.13 162.921 191.897 167.065 192.533 171.538Z" fill="#003E98"/>
<path d="M108.769 93.5048C108.615 93.6378 101.243 86.2332 97.3058 82.1319L101.249 79.7754L122.78 93.05L108.769 93.5048Z" fill="#FFF1F0"/>
<path d="M148.258 276.326C148.258 276.326 147.679 280.475 149.298 283.973H159.597C159.597 283.973 159.675 280.951 157.048 277.158C154.422 273.366 148.258 276.326 148.258 276.326Z" fill="#0D0D38"/>
<path d="M168.565 6.29271C168.706 5.6464 170.461 -1.28217 181.41 0.209932C181.41 0.209932 175.947 -0.077318 174.612 2.07173C174.612 2.07173 178.761 -0.159769 181.567 1.27382C184.372 2.70741 185.209 8.10132 184.93 9.78492C184.651 11.4685 182.04 16.5991 180.077 16.7374C179.298 16.7603 178.521 16.6291 177.794 16.3518C178.186 17.2685 178.523 18.2073 178.802 19.1631C181.594 28.6609 175.598 36.4513 172.091 34.8767C169.841 33.8687 168.473 37.7067 168.473 37.7067L148.794 15.5778C148.794 15.5778 160.238 -0.0879584 168.565 6.29271Z" fill="#12123C"/>
<path d="M148.426 65.6337C150.993 67.3838 154.213 68.8254 158.253 69.743C173.399 73.1793 179.205 60.6042 181.385 51.9734C179.798 51.1125 178.046 50.5854 176.24 50.4254C175.157 50.2978 173.992 50.2153 173.039 50.1595C171.338 48.8801 168.804 43.6432 168.243 35.5124L167.531 35.7012L155.594 38.9089C155.594 38.9089 156.136 42.6325 156.406 46.1592C156.612 48.9174 156.645 51.5505 156.114 52.1941C155.182 52.3936 154.624 52.524 154.624 52.524C152.136 56.6891 150.06 61.0791 148.426 65.6337V65.6337Z" fill="#FFF1F0"/>
<path d="M155.607 38.9194C155.607 38.9194 156.148 42.643 156.419 46.1698C163.189 45.5049 166.322 39.1801 167.544 35.7118L155.607 38.9194Z" fill="#FFDCDB"/>
<path d="M153.588 42.4197C153.588 42.4197 169.641 41.5499 168.934 31.7382C168.228 21.9265 169.828 15.2081 159.548 15.3491C149.269 15.49 147.549 19.3705 146.972 22.7005C146.395 26.0305 149.393 42.3931 153.588 42.4197Z" fill="#FFF1F0"/>
<path d="M147.05 17.2135C149.314 14.0883 151.234 14.6043 152.347 15.4182C160.767 10.0668 166.925 16.6656 166.925 16.6656C168.512 23.6287 173.966 27.3044 173.966 27.3044C173.966 27.3044 171.174 29.2833 164.311 28.0571C162.215 27.6821 160.274 26.3762 158.584 24.7431C160.57 27.4678 162.925 29.9134 165.584 32.0121C157.271 28.9269 153.236 18.1603 152.829 17.0193C151.914 17.9529 150.121 19.9636 149.666 21.844C149.052 24.3974 149.065 29.5572 147.527 29.4987C147.535 29.4907 143.657 21.8999 147.05 17.2135Z" fill="#12123C"/>
<path d="M150.992 51.7419C150.992 51.7419 177.143 45.5049 188.514 54.7182L182.827 132.56L131.683 120.424C131.683 120.424 133.121 115.498 142.93 102.399C152.738 89.2998 148.473 70.0913 150.992 51.7419Z" fill="#FFF1F0"/>
<path d="M166.234 123.895C166.234 123.895 166.205 124.161 166.153 124.661C166.129 124.876 166.099 125.14 166.066 125.443C165.847 127.461 165.43 131.331 164.891 136.366C163.488 149.566 161.287 170.772 159.787 187.507C158.611 200.593 157.867 210.95 158.27 212.612C159.481 217.615 158.27 277.438 158.27 277.438C153.921 279.486 147.33 277.438 147.33 277.438C147.33 277.438 135.753 223.531 137.372 216.038C138.992 208.546 136.289 202.149 136.289 202.149C127.298 161.027 128.284 138.236 130.061 127.326C130.404 125.075 130.918 122.852 131.599 120.677C131.768 120.118 131.974 119.571 132.213 119.038C152.052 113.783 166.234 123.895 166.234 123.895Z" fill="#164D9D"/>
<path d="M182.831 132.558C177.138 134.893 171.057 136.184 164.89 136.366C159.931 136.507 154.973 136.045 150.129 134.991C140.323 132.895 132.854 129.017 130.068 127.326C130.411 125.075 130.925 122.852 131.606 120.677C137.642 116.453 152.571 120.493 164.765 124.972L166.065 125.456C175.405 128.951 182.831 132.558 182.831 132.558Z" fill="#003E98"/>
<path d="M192.038 76.919C190.776 86.2839 185.725 97.7446 183.913 103.912C183.913 103.912 186.927 125.329 184.049 131.207C183.721 131.879 183.318 132.348 182.822 132.558C172.158 137.122 130.625 132.691 128.87 119.525C128.234 114.738 144.69 97.9255 145.66 95.8855C146.058 95.0397 146.472 92.3055 144.552 86.635C141.817 94.9147 136.767 104.479 131.686 106.109C126.103 107.902 104.024 91.7469 104.024 91.7469C104.024 91.7469 103.897 89.7841 106.689 87.9276C108.484 86.7334 112.606 86.3318 112.606 86.3318L126.723 92.5369C128.494 89.558 132.908 68.9611 137.826 59.6628C141.533 52.673 151.425 51.6597 151.425 51.6597C151.425 51.6597 155.541 58.0749 165.507 57.1653C175.472 56.2557 177.287 50.2686 177.287 50.2686C177.287 50.2686 186.118 51.4203 188.839 53.5773C189.313 53.9577 193.695 64.6524 192.038 76.919Z" fill="#CCABD8"/>
<path d="M185.235 104.082C185.235 104.082 186.937 125.328 184.059 131.206C176.29 127.376 166.162 119.11 169.243 106.189C173.72 87.4195 192.039 76.9322 192.039 76.9322C190.777 86.2838 187.038 97.9145 185.235 104.082Z" fill="#B78EC6"/>
<path d="M177.292 89.5182C177.292 89.5182 166.229 91.0927 165.347 91.9119C164.464 92.7311 161.412 97.4362 161.788 99.0745C162.165 100.713 162.127 102.405 162.804 102.287C163.481 102.17 165.688 98.0053 166.525 97.8138C167.361 97.6223 168.046 97.0611 168.149 97.4282C168.252 97.7952 166.451 99.556 166.538 100.043C166.625 100.529 168.044 99.9576 168.68 98.9921C169.317 98.0266 170.903 97.5452 171.144 96.9441C171.385 96.343 172.477 94.3482 173.966 94.4387C175.456 94.5291 177.292 89.5182 177.292 89.5182Z" fill="#FFF1F0"/>
<path d="M188.052 89.0897L177.291 89.5179L173.608 94.4464L188.245 94.9278L188.052 89.0897Z" fill="#FFF1F0"/>
<path d="M177.29 50.2738C177.29 50.2738 190.115 51.7686 193.646 57.1705C198.112 64.0006 213.889 86.6535 213.55 93.5076C213.55 93.5076 203.72 97.3535 177.298 95.2922C177.298 95.2922 176.819 91.3665 182.375 88.2174C182.375 88.2174 196.563 86.3103 198.125 84.9565L187.594 73.9639L177.29 50.2738Z" fill="#CCABD8"/>
<path d="M98.105 65.7269L106.874 64.905C107.216 64.875 107.56 64.9525 107.855 65.1265C108.15 65.3005 108.381 65.5619 108.515 65.8732L115.136 81.5256C115.233 81.754 115.274 82.0016 115.255 82.2484C115.237 82.4953 115.16 82.7344 115.03 82.9466C114.901 83.1588 114.722 83.3382 114.509 83.4702C114.296 83.6022 114.054 83.6832 113.803 83.7066L104.675 84.563C104.327 84.5932 103.978 84.5125 103.681 84.3329C103.383 84.1532 103.152 83.8842 103.023 83.5656L96.7699 67.8759C96.6792 67.649 96.6432 67.4045 96.6648 67.1616C96.6863 66.9186 96.7648 66.6839 96.8941 66.4758C97.0234 66.2677 97.2 66.0918 97.4101 65.9618C97.6202 65.8319 97.858 65.7515 98.105 65.7269V65.7269Z" fill="#120E59"/>
<path d="M97.3114 82.132C97.3114 82.132 94.996 78.2089 95.1694 77.2434C95.3427 76.278 97.7393 71.7937 98.9606 71.3469C101.16 70.5489 104.249 70.0596 103.399 72.3336C102.838 73.8364 100.621 76.012 101.008 76.6929C101.395 77.3738 101.243 79.7755 101.243 79.7755L97.3114 82.132Z" fill="#FFF1F0"/>
<path d="M446.5 251.093C443.201 270.76 421.634 283.285 399.513 283.285H355.7L359.127 168.645C359.127 168.645 400.931 156.16 411.417 168.037C420.616 178.443 445.562 219.635 446.875 244.016C447.011 246.38 446.885 248.752 446.5 251.093V251.093Z" fill="#A8C5EF"/>
<path d="M336.024 180.627C336.024 180.627 392.351 152.394 403.015 170.836C408.678 180.629 424.265 219.701 425.416 244.218C426.534 268.044 405.52 283.707 383.902 283.707H345.508L336.024 180.627Z" fill="#3662C1"/>
<path d="M346.613 196.287C346.139 198.681 341.579 200.915 334.811 202.883C333.62 203.238 332.362 203.577 331.039 203.902C308.007 209.681 267.214 212.905 263.325 211.203C257.952 208.846 224.974 93.7681 224.974 93.7681C224.974 93.7681 256.455 92.6058 281.455 92.0392C290.007 91.8477 297.801 91.7254 303.317 91.7414C303.951 91.741 304.585 91.7845 305.213 91.8717C307.348 92.1197 309.321 93.1115 310.775 94.667C314.802 98.9226 315.798 107.306 319.525 116.58C323.21 125.754 327.733 137.199 332.022 148.558C333.127 151.484 334.218 154.41 335.272 157.282C335.57 158.096 335.865 158.904 336.157 159.705C342.499 177.126 347.382 192.401 346.613 196.287Z" fill="#BED2FA"/>
<path d="M446.843 251.333C443.699 271.113 423.148 283.709 402.069 283.709H381.591C395.247 274.619 407.596 246.609 446.843 251.333Z" fill="#8EB0E1"/>
<path d="M336.159 159.705C335.114 159.538 333.762 159.32 332.232 159.064C331.937 158.785 331.693 158.459 331.509 158.099C330.892 156.769 331.314 152.944 332.021 148.559C327.731 137.199 323.209 125.754 319.523 116.581C315.797 107.306 314.801 98.9149 310.774 94.6673C309.32 93.1118 307.347 92.12 305.212 91.872C301.889 91.9172 298.379 91.973 294.761 92.0395C293.475 94.545 291.26 96.9068 287.431 98.8857C270.351 107.716 283.022 125.911 283.022 125.911C283.144 125.994 289.792 138.986 289.792 138.986C289.768 138.079 290.664 136.454 292.199 134.388C293.334 142.154 295.178 150.08 297.377 155.764C296.172 161.761 293.077 170.695 291.42 177.528C290.093 182.981 289.684 187.087 291.875 187.289C292.145 187.312 292.417 187.312 292.687 187.289C292.553 189.365 293.014 191.435 294.019 193.266C298.301 201.391 318.893 202.841 334.805 202.883C341.575 200.915 346.133 198.686 346.606 196.287C347.381 192.401 342.498 177.127 336.159 159.705Z" fill="#93B3F4"/>
<path d="M413.976 265.996C405.917 276.991 393.555 284.042 379.785 283.816L320.587 283.845H292.223L324.135 180.648C324.135 180.648 404.904 172.757 414.853 183.281C419.479 188.167 422.076 210.293 423.519 232.598C424.356 245.167 420.63 256.926 413.976 265.996Z" fill="#5076C9"/>
<path d="M413.977 265.996C405.918 276.991 393.556 284.042 379.786 283.816L320.588 283.845C327.553 278.1 349.461 261.804 372.921 262.567C390.702 263.168 404.821 262.916 413.977 265.996Z" fill="#3662C1"/>
<path d="M341.203 108.397C341.203 108.397 346.121 115.546 348.926 130.573C351.382 143.734 353.53 148.593 357.085 151.293C360.641 153.992 380.401 161.961 380.401 161.961L378.923 165.363C378.923 165.363 349.947 161.485 346.697 156.729C343.448 151.974 331.034 123.871 331.996 117.4C332.957 110.929 341.203 108.397 341.203 108.397Z" fill="#FFECEC"/>
<path d="M412.142 265.387C411.871 268.163 415.814 268.844 420.372 269.06C424.929 269.275 423.551 270.201 429.796 271.31C436.04 272.419 438.542 270.743 439.003 269.913C439.406 269.179 436.501 268.03 433.408 266.722C433.018 266.56 432.628 266.392 432.238 266.224C428.756 264.722 426.803 261.655 424.087 258.809C421.517 256.118 419.074 247.492 419.074 247.492L410.59 245.713C410.59 245.713 412.973 253.474 413.799 256.788C414.287 258.737 413.566 260.916 412.93 262.575C412.54 263.473 412.275 264.419 412.142 265.387V265.387Z" fill="#FDB3B1"/>
<path d="M420.367 269.06C424.925 269.283 423.546 270.201 429.791 271.31C436.036 272.419 438.538 270.743 438.998 269.914C439.402 269.179 436.496 268.03 433.403 266.722L433.355 266.775C430.27 267.649 427.001 267.687 423.896 266.884C419.766 265.783 415.772 263.36 412.925 262.575C412.539 263.471 412.276 264.414 412.146 265.379C411.883 268.153 415.815 268.839 420.367 269.06Z" fill="#060632"/>
<path d="M327.653 166.551C327.653 166.551 384.04 162.384 394.655 168.964C405.271 175.544 422.299 252.194 422.299 252.194C422.299 252.194 421.245 253.021 418.9 253.258C416.717 253.49 411.911 252.229 411.911 252.229C411.911 252.229 387.441 217.934 385.719 209.296C383.996 200.657 384.416 192.946 380.492 192.742C376.568 192.537 327.645 198.593 320.247 185.778C312.848 172.964 318.963 160.298 318.963 160.298L327.653 166.551Z" fill="#B78EC6"/>
<path d="M390.578 274.283C390.307 277.058 394.252 277.741 398.807 277.956C403.362 278.172 401.987 279.095 408.234 280.207C414.481 281.318 416.978 279.637 417.441 278.81C417.845 278.074 414.942 276.925 411.846 275.619C411.459 275.456 411.069 275.289 410.679 275.121C407.197 273.616 405.242 270.549 402.528 267.706C399.956 265.012 397.516 256.389 397.516 256.389L389.029 254.607C389.029 254.607 391.412 262.371 392.238 265.685C392.725 267.634 392.007 269.812 391.371 271.469C390.98 272.369 390.713 273.315 390.578 274.283Z" fill="#FDB3B1"/>
<path d="M398.794 277.956C403.352 278.18 401.973 279.095 408.221 280.207C414.468 281.318 416.965 279.637 417.428 278.81C417.831 278.073 414.928 276.924 411.833 275.619L411.787 275.669C408.702 276.545 405.433 276.583 402.328 275.781C398.196 274.677 394.204 272.254 391.358 271.469C390.971 272.366 390.708 273.31 390.575 274.275C390.307 277.057 394.239 277.728 398.794 277.956Z" fill="#060632"/>
<path d="M316.61 169.988C316.61 169.988 366.709 172.318 377.048 179.297C387.387 186.276 401.369 263.514 401.369 263.514C401.369 263.514 400.286 264.312 397.932 264.461C395.742 264.61 390.989 263.166 390.989 263.166C390.989 263.166 367.898 227.962 366.519 219.264C365.141 210.567 365.864 202.878 361.951 202.508C358.038 202.138 308.914 206.325 302.028 193.247C295.141 180.169 316.61 169.988 316.61 169.988Z" fill="#CCABD8"/>
<path d="M334.459 61.7266C332.236 60.285 329.476 59.9632 327.532 59.9499C328.074 59.4765 329.059 59.3568 329.059 59.3568C327.87 59.0908 325.111 60.0962 325.111 60.0962C308.836 52.6809 304.571 76.6662 304.53 82.3022C304.489 87.9381 304.099 94.3986 295.42 98.8855C278.341 107.716 291.012 125.911 291.012 125.911C291.133 125.993 297.782 138.989 297.782 138.989C297.668 134.425 320.599 111.886 332.201 105.447C335.179 101.723 336.604 94.8614 336.712 94.3214C335.875 99.7712 334.711 102.785 333.733 104.46C343.742 96.5662 340.352 65.5459 334.459 61.7266Z" fill="#A83F3F"/>
<path d="M314.495 100.162C314.495 100.162 318.92 100.351 323.583 100.785C326.752 101.08 330.134 101.423 331.921 102.157C336.335 103.968 335.872 111.647 326.608 110.224C317.344 108.801 313.856 102.452 314.495 100.162Z" fill="#FDB3B1"/>
<path d="M331.54 105.761C331.594 105.787 332.858 112.365 326.795 112.102C322.812 111.929 314.225 107.197 314.983 103.856C315.343 102.261 318.352 98.1354 318.958 88.6961L319.681 88.8849L331.867 92.0952C331.867 92.0952 331.326 95.8959 331.074 99.4919C330.865 102.516 330.857 105.391 331.54 105.761Z" fill="#FFF0F0"/>
<path d="M331.87 92.1006C331.87 92.1006 331.329 95.9013 331.077 99.4973C324.18 98.8536 320.946 92.4198 319.682 88.8903L331.87 92.1006Z" fill="#FFDCDB"/>
<path d="M318.497 87.4859C318.497 87.4859 315.248 81.6345 314.706 76.7646C314.316 73.3069 316.959 60.6919 329.849 63.3756C332.444 63.9019 334.886 64.9925 336.996 66.5672C339.704 68.6258 343.495 72.9505 338.185 83.741L336.747 87.4114L318.497 87.4859Z" fill="#A83F3F"/>
<path d="M333.946 95.6566C333.946 95.6566 317.576 94.8587 318.239 84.8475C318.902 74.8363 317.242 68.0009 327.717 68.0913C338.192 68.1817 339.971 72.1314 340.575 75.5385C341.179 78.9456 338.221 95.6088 333.946 95.6566Z" fill="#FFF0F0"/>
<path d="M335.193 68.3359C335.193 68.3359 329.921 79.7727 322.932 81.0627C315.942 82.3526 313.085 80.3445 313.085 80.3445C313.085 80.3445 318.637 76.5784 320.215 69.4716C320.215 69.4716 332.196 62.5271 335.193 68.3359Z" fill="#A83F3F"/>
<path d="M334.021 69.2056C334.021 69.2056 337.187 72.0462 337.828 74.6474C338.47 77.2486 338.481 82.5149 340.049 82.4404C340.049 82.4404 343.965 74.682 340.48 69.9211C336.786 64.8809 334.021 69.2056 334.021 69.2056Z" fill="#A83F3F"/>
<path d="M350.325 167.392C349.001 168.948 344.865 169.427 340.443 170.139C336.966 170.703 333.31 171.411 330.713 172.911C324.812 176.313 305.529 187.805 299.882 187.289C297.689 187.087 298.101 182.981 299.427 177.531C301.515 168.924 305.889 156.971 305.889 151.774C305.889 148.936 306.85 142.223 308.134 134.55C308.237 133.93 308.342 133.308 308.451 132.688C310.988 117.767 314.503 100.173 314.503 100.173C314.503 100.173 318.424 108.57 326.064 108.57C333.703 108.57 331.929 102.162 331.929 102.162C331.929 102.162 338.9 102.96 340.546 104.71C342.193 106.46 346.371 113.985 347.2 116.038C347.2 116.038 347.368 118.65 340.779 119.895C340.779 119.895 342.385 126.991 342.574 131.72C342.715 135.212 340.137 146.146 339.409 152.947C339.138 155.357 339.111 157.248 339.512 158.104C340.021 159.203 341.678 160.296 343.544 161.37C347.262 163.493 351.898 165.543 350.325 167.392Z" fill="#164D9D"/>
<path d="M343.544 161.365C347.774 168.445 332.075 170.576 329.478 172.073C323.578 175.477 305.531 187.813 299.882 187.289C297.689 187.087 298.101 182.98 299.427 177.531C301.515 168.924 305.889 156.971 305.889 151.774C305.889 148.936 306.85 142.223 308.134 134.55L314.934 128.134C314.934 128.134 322.224 146.635 329.17 149.678C332.473 151.073 335.901 152.166 339.409 152.942C339.138 155.351 339.111 157.242 339.512 158.099C340.021 159.197 341.67 160.29 343.544 161.365Z" fill="#003E98"/>
<path d="M312.413 105.7C312.413 105.7 306.599 102.242 300.974 108.812C295.35 115.381 304.972 162.429 313.304 164.847C322.557 167.53 349.294 164.416 349.294 164.416L348.779 160.312C348.779 160.312 320.318 154.952 319.134 153.46C317.951 151.968 315.37 106.46 312.413 105.7Z" fill="#FFF0F0"/>
<path d="M314.496 100.162C314.496 100.162 302.553 101.226 299.084 105.077C295.615 108.929 294.603 119.392 294.603 119.392C294.603 119.392 305.12 127.73 317.791 124.493L314.496 100.162Z" fill="#164D9D"/>
<path d="M367.859 166.615H352.085V168.445H367.859V166.615Z" fill="#EB6453"/>
<path d="M364.497 168.195C364.651 167.589 378.998 145.462 378.998 145.462H410.923L394.91 167.599L364.497 168.195Z" fill="#EB6453"/>
<path d="M365.841 168.445C365.995 167.839 380.388 145.462 380.388 145.462H410.924L395.689 168.445H365.841Z" fill="#C22511"/>
<path d="M392.757 157.027C392.585 157.479 392.284 157.873 391.89 158.162C391.495 158.45 391.025 158.62 390.534 158.652C389.622 158.652 389.137 157.923 389.451 157.027C389.623 156.575 389.924 156.181 390.319 155.893C390.713 155.605 391.184 155.436 391.674 155.405C392.587 155.405 393.072 156.131 392.757 157.027Z" fill="#CCABD8"/>
<path d="M346.451 160.07C346.451 160.07 355.718 158.306 356.763 158.74C357.808 159.173 363.639 164.325 363.04 165.346C362.442 166.368 360.061 167.107 357.353 166.227C354.645 165.346 348.834 164.897 347.788 163.583C346.743 162.269 346.451 160.07 346.451 160.07Z" fill="#FFF0F0"/>
<path d="M364.921 252.367C361.534 271.552 342.956 283.709 323.914 283.709H285.519L288.522 168.413C288.522 168.413 325.154 155.857 334.356 167.801C342.418 178.267 364.277 219.695 365.428 244.215C365.563 246.943 365.393 249.676 364.921 252.367V252.367Z" fill="#A8C5EF"/>
<path d="M364.921 252.367C361.533 271.552 342.956 283.709 323.913 283.709H293.188C307.57 274.134 326.935 247.673 364.921 252.367Z" fill="#8EB0E1"/>
<path d="M305.4 283.624L304.538 283.68C303.932 283.712 303.323 283.731 302.713 283.741H302.104H263.707V283.723L261.489 283.749C257.535 283.797 253.406 283.842 249.574 283.874L247.678 283.89H246.988C243.196 283.914 239.857 283.925 237.469 283.909C234.29 283.904 231.117 283.664 227.975 283.191C224.33 282.655 220.773 281.656 217.392 280.217C216.24 279.719 215.117 279.158 214.028 278.539C212.57 277.715 211.177 276.783 209.863 275.751C206.457 273.092 203.51 269.698 201.005 265.535C199.151 262.409 197.609 259.113 196.402 255.694C194.736 251.08 193.396 245.827 192.364 239.888C190.888 231.411 190.046 221.536 189.791 210.126C189.689 205.53 189.68 200.68 189.767 195.577C189.904 187.42 190.275 178.588 190.88 169.081C191.722 155.713 193.014 140.968 194.717 124.735C196.272 109.91 198.064 99.5477 200.675 97.1859C204.52 93.7043 212.544 92.3026 218.125 91.7414C221.592 91.393 224.107 91.3664 224.107 91.3664C230.926 91.3664 236.987 96.1752 239.175 103.319C243.63 117.868 251.586 143.877 259.864 171.084C259.908 171.219 259.948 171.349 259.992 171.493L261.419 176.19C261.492 176.43 261.565 176.669 261.641 176.908L263.09 176.273L263.141 176.251C265.126 175.387 267.371 174.44 269.795 173.475C271.058 172.975 272.359 172.471 273.697 171.964C277.488 170.536 281.577 169.126 285.723 167.913C287.562 167.381 289.414 166.868 291.256 166.424C293.62 165.847 295.965 165.36 298.25 164.998L298.451 164.966L299.263 164.846C309.123 163.424 317.678 164.41 321.217 170.544C326.88 180.366 342.467 219.549 343.618 244.141C344.682 266.823 325.805 282.121 305.4 283.624Z" fill="#5076C9"/>
<path d="M243.817 181.515C243.817 181.515 224.111 102.665 222.694 96.0369C222.061 93.0819 220.105 92.0154 218.139 91.7414C221.603 91.393 224.124 91.3664 224.124 91.3664C230.94 91.3664 237.001 96.1539 239.189 103.285C243.963 118.823 252.751 147.473 261.665 176.658C261.192 176.658 243.817 181.515 243.817 181.515Z" fill="#A8C5EF"/>
<path d="M539.347 284.193H0.652655C0.2922 284.193 0 284.563 0 285.019V285.178C0 285.634 0.2922 286.003 0.652655 286.003H539.347C539.708 286.003 540 285.634 540 285.178V285.019C540 284.563 539.708 284.193 539.347 284.193Z" fill="#4E92F9"/>
</svg>
