<svg width="1140" height="1140" viewBox="0 0 1140 1140" fill="none" xmlns="http://www.w3.org/2000/svg">
<path d="M730.016 744.453V833.672C730.016 921.948 658.198 993.74 569.948 993.74C481.698 993.74 409.88 921.948 409.88 833.672V769.411C409.88 766.708 409.62 764.083 409.094 761.536C405.943 746.13 393.818 733.979 378.38 730.854C375.834 730.302 373.209 730.042 370.505 730.042H306.198C217.922 730.042 146.13 658.224 146.13 569.974C146.13 481.724 217.922 409.932 306.198 409.932H394.13L409.88 409.854V378.406L378.38 378.432H306.198C200.568 378.432 114.63 464.344 114.63 569.974C114.63 675.599 200.568 761.536 306.198 761.536H370.505C374.865 761.536 378.38 765.057 378.38 769.411V833.672C378.38 939.297 464.323 1025.24 569.948 1025.24C675.573 1025.24 761.516 939.297 761.516 833.672V744.37H745.766L730.016 744.453Z" fill="#5E17EB"/>
<path d="M833.698 378.354H769.365C765.031 378.354 761.516 374.839 761.516 370.479V306.224C761.516 200.594 675.573 114.656 569.948 114.656C464.323 114.656 378.38 200.594 378.38 306.224V761.536H745.766L761.516 761.51L784.401 761.484H784.459L833.698 761.458C939.328 761.458 1025.27 675.547 1025.27 569.922C1025.27 464.292 939.328 378.354 833.698 378.354ZM833.698 729.964H745.766L730.016 730.042H409.88V306.224C409.88 217.948 481.698 146.156 569.948 146.156C658.198 146.156 730.016 217.948 730.016 306.224V370.479C730.016 373.182 730.276 375.807 730.802 378.354C733.953 393.76 746.13 405.943 761.516 409.068C764.063 409.589 766.688 409.854 769.365 409.854H833.698C921.974 409.854 993.766 481.672 993.766 569.922C993.766 658.172 921.974 729.964 833.698 729.964Z" fill="#72E8D2"/>
<path d="M569.948 1139.92C417.703 1139.92 274.568 1080.63 166.917 972.974C59.2969 865.328 0 722.193 0 569.948C0 417.703 59.2969 274.563 166.943 166.917C274.594 59.2969 417.729 0 569.948 0C722.167 0 865.328 59.2969 972.979 166.943C1080.63 274.594 1139.92 417.729 1139.92 569.974C1139.92 722.219 1080.63 865.354 972.979 973C865.328 1080.63 722.193 1139.92 569.948 1139.92ZM569.948 31.5C273.042 31.5 31.5 273.042 31.5 569.948C31.5 866.849 273.042 1108.4 569.948 1108.4C866.854 1108.4 1108.42 866.849 1108.42 569.948C1108.42 273.042 866.88 31.5 569.948 31.5Z" fill="#5E17EB"/>
</svg>
