<svg width="1250" height="1250" viewBox="0 0 1250 1250" fill="none" xmlns="http://www.w3.org/2000/svg">
<path d="M793.43 796.688L781.493 796.751V808.688V902.609C781.493 988.909 711.264 1059.11 624.99 1059.11C538.715 1059.11 468.486 988.909 468.486 902.609V834.962C468.486 831.345 468.137 827.771 467.412 824.257C463.136 803.372 446.735 786.902 425.789 782.628C422.223 781.861 418.628 781.517 415.035 781.517H347.339C261.039 781.517 190.835 711.288 190.835 625.013C190.835 538.741 261.036 468.537 347.339 468.537H439.906H439.935L439.965 468.537L456.545 468.454L468.486 468.395V456.454V423.349V411.339L456.476 411.349L423.325 411.377H423.32H347.339C229.516 411.377 133.675 507.186 133.675 625.013C133.675 742.833 229.514 838.672 347.339 838.672H411.325V902.609C411.325 1020.43 507.17 1116.27 624.99 1116.27C742.809 1116.27 838.654 1020.43 838.654 902.609V808.6V796.6H826.654H810.073H810.042L810.01 796.6L793.43 796.688Z" fill="#5E17EB" stroke="#5E17EB" stroke-width="24"/>
<path d="M415.323 824.672V836.672H427.323H814.072H814.081H814.091L830.665 836.645H830.671L854.743 836.617H854.757H854.803H854.81L906.638 836.59C906.64 836.59 906.642 836.59 906.645 836.59C1024.46 836.586 1120.3 740.778 1120.3 622.959C1120.3 505.134 1024.46 409.295 906.638 409.295H842.652V345.363C842.652 227.538 746.807 131.699 628.988 131.699C511.168 131.699 415.323 227.538 415.323 345.363V824.672ZM814.072 779.435H814.042L814.012 779.435L797.491 779.517H797.457H472.484V345.363C472.484 259.063 542.713 188.859 628.988 188.859C715.262 188.859 785.491 259.063 785.491 345.363V413.004C785.491 416.621 785.84 420.195 786.565 423.709C790.846 444.623 807.34 461.137 828.263 465.387C831.742 466.097 835.306 466.455 838.914 466.455H906.638C992.938 466.455 1063.14 536.684 1063.14 622.959C1063.14 709.231 992.94 779.435 906.638 779.435H814.072Z" fill="#72E8D2" stroke="#72E8D2" stroke-width="24"/>
<path d="M191.874 1058.09L191.875 1058.09C307.544 1173.76 461.402 1237.5 624.986 1237.5C788.57 1237.5 942.428 1173.76 1058.1 1058.12L1058.1 1058.12C1173.76 942.456 1237.5 788.598 1237.5 625.014C1237.5 461.429 1173.76 307.571 1058.1 191.903L1049.26 200.741L1058.1 191.902C942.429 76.2391 788.543 12.5 624.986 12.5C461.429 12.5 307.572 76.2393 191.904 191.874L191.902 191.875C76.2392 307.538 12.5 461.402 12.5 624.986C12.5 788.57 76.2391 942.428 191.874 1058.09ZM70.6602 624.986C70.6602 319.336 319.336 70.6602 624.986 70.6602C930.665 70.6602 1179.34 319.336 1179.34 624.986C1179.34 930.631 930.638 1179.31 624.986 1179.31C319.336 1179.31 70.6602 930.632 70.6602 624.986Z" fill="#5E17EB" stroke="#5E17EB" stroke-width="25"/>
</svg>
