<svg width="3162" height="1250" viewBox="0 0 3162 1250" fill="none" xmlns="http://www.w3.org/2000/svg">
<path d="M793.43 796.688L781.493 796.751V808.688V902.609C781.493 988.909 711.264 1059.11 624.99 1059.11C538.715 1059.11 468.486 988.909 468.486 902.609V834.962C468.486 831.344 468.137 827.769 467.411 824.253C463.134 803.368 446.731 786.9 425.785 782.627C422.221 781.861 418.627 781.517 415.035 781.517H347.339C261.039 781.517 190.835 711.288 190.835 625.013C190.835 538.741 261.036 468.537 347.339 468.537H439.906H439.935L439.965 468.537L456.545 468.454L468.486 468.395V456.454V423.349V411.339L456.476 411.349L423.325 411.377H423.32H347.339C229.516 411.377 133.675 507.186 133.675 625.013C133.675 742.833 229.514 838.672 347.339 838.672H411.325V902.609C411.325 1020.43 507.17 1116.27 624.99 1116.27C742.809 1116.27 838.654 1020.43 838.654 902.609V808.6V796.6H826.654H810.073H810.042L810.01 796.6L793.43 796.688Z" fill="#5E17EB" stroke="#5E17EB" stroke-width="24"/>
<path d="M415.323 824.672V836.672H427.323H814.072H814.081H814.091L830.665 836.645H830.671L854.743 836.617H854.757H854.803H854.81L906.638 836.59C906.64 836.59 906.642 836.59 906.645 836.59C1024.46 836.586 1120.3 740.778 1120.3 622.959C1120.3 505.134 1024.46 409.295 906.638 409.295H842.652V345.363C842.652 227.538 746.807 131.699 628.988 131.699C511.168 131.699 415.323 227.538 415.323 345.363V824.672ZM814.072 779.435H814.042L814.012 779.435L797.491 779.517H797.456H472.484V345.363C472.484 259.063 542.713 188.859 628.988 188.859C715.262 188.859 785.491 259.063 785.491 345.363V413.004C785.491 416.622 785.84 420.198 786.565 423.713C790.847 444.62 807.333 461.129 828.247 465.383C831.731 466.096 835.3 466.455 838.914 466.455H906.638C992.938 466.455 1063.14 536.684 1063.14 622.959C1063.14 709.231 992.94 779.435 906.638 779.435H814.072Z" fill="#72E8D2" stroke="#72E8D2" stroke-width="24"/>
<path d="M191.874 1058.09L191.875 1058.09C307.544 1173.76 461.402 1237.5 624.986 1237.5C788.57 1237.5 942.428 1173.76 1058.1 1058.12L1058.1 1058.12C1173.76 942.456 1237.5 788.598 1237.5 625.014C1237.5 461.429 1173.76 307.571 1058.1 191.903L1049.59 200.414L1058.1 191.902C942.429 76.2391 788.543 12.5 624.986 12.5C461.429 12.5 307.572 76.2393 191.904 191.874L191.902 191.875C76.2392 307.538 12.5 461.402 12.5 624.986C12.5 788.57 76.2391 942.428 191.874 1058.09ZM70.6602 624.986C70.6602 319.336 319.336 70.6602 624.986 70.6602C930.665 70.6602 1179.34 319.336 1179.34 624.986C1179.34 930.631 930.638 1179.31 624.986 1179.31C319.336 1179.31 70.6602 930.632 70.6602 624.986Z" fill="#5E17EB" stroke="#5E17EB" stroke-width="25"/>
<g filter="url(#filter0_d_11_3)">
<path d="M1382 1044C1366 1044 1353 1040.33 1343 1033C1333.67 1025.67 1328 1016 1326 1004C1324 991.333 1326.33 977.333 1333 962L1597 377C1605.67 357.667 1616 344 1628 336C1640.67 327.333 1655 323 1671 323C1686.33 323 1700 327.333 1712 336C1724.67 344 1735.33 357.667 1744 377L2009 962C2016.33 977.333 2019 991.333 2017 1004C2015 1016.67 2009.33 1026.67 2000 1034C1990.67 1040.67 1978.33 1044 1963 1044C1944.33 1044 1929.67 1039.67 1919 1031C1909 1021.67 1900 1007.67 1892 989L1827 838L1881 873H1459L1513 838L1449 989C1440.33 1008.33 1431.33 1022.33 1422 1031C1412.67 1039.67 1399.33 1044 1382 1044ZM1669 470L1529 803L1503 771H1837L1812 803L1671 470H1669ZM2107.67 1043C2089.01 1043.67 2074.34 1038.67 2063.67 1028C2053.01 1017.33 2047.67 1003.67 2047.67 987C2047.67 974.333 2051.67 963.333 2059.67 954C2067.01 944 2078.01 938.667 2092.67 938L2122.67 936C2152.01 934 2174.01 925 2188.67 909C2204.01 892.333 2211.67 868.667 2211.67 838V388C2211.67 366.667 2217.01 350.667 2227.67 340C2239.01 328.667 2255.01 323 2275.67 323C2296.34 323 2312.01 328.667 2322.67 340C2334.01 350.667 2339.67 366.667 2339.67 388V837C2339.67 879 2332.01 914.667 2316.67 944C2302.01 973.333 2280.01 996.333 2250.67 1013C2221.34 1029 2185.01 1038.33 2141.67 1041L2107.67 1043ZM2499.19 1044C2483.19 1044 2470.19 1040.33 2460.19 1033C2450.85 1025.67 2445.19 1016 2443.19 1004C2441.19 991.333 2443.52 977.333 2450.19 962L2714.19 377C2722.85 357.667 2733.19 344 2745.19 336C2757.85 327.333 2772.19 323 2788.19 323C2803.52 323 2817.19 327.333 2829.19 336C2841.85 344 2852.52 357.667 2861.19 377L3126.19 962C3133.52 977.333 3136.19 991.333 3134.19 1004C3132.19 1016.67 3126.52 1026.67 3117.19 1034C3107.85 1040.67 3095.52 1044 3080.19 1044C3061.52 1044 3046.85 1039.67 3036.19 1031C3026.19 1021.67 3017.19 1007.67 3009.19 989L2944.19 838L2998.19 873H2576.19L2630.19 838L2566.19 989C2557.52 1008.33 2548.52 1022.33 2539.19 1031C2529.85 1039.67 2516.52 1044 2499.19 1044ZM2786.19 470L2646.19 803L2620.19 771H2954.19L2929.19 803L2788.19 470H2786.19Z" fill="url(#paint0_linear_11_3)"/>
</g>
<defs>
<filter id="filter0_d_11_3" x="1319" y="323" width="1822.19" height="729" filterUnits="userSpaceOnUse" color-interpolation-filters="sRGB">
<feFlood flood-opacity="0" result="BackgroundImageFix"/>
<feColorMatrix in="SourceAlpha" type="matrix" values="0 0 0 0 0 0 0 0 0 0 0 0 0 0 0 0 0 0 127 0" result="hardAlpha"/>
<feOffset dy="4"/>
<feGaussianBlur stdDeviation="2"/>
<feComposite in2="hardAlpha" operator="out"/>
<feColorMatrix type="matrix" values="0 0 0 0 0 0 0 0 0 0 0 0 0 0 0 0 0 0 0.25 0"/>
<feBlend mode="normal" in2="BackgroundImageFix" result="effect1_dropShadow_11_3"/>
<feBlend mode="normal" in="SourceGraphic" in2="effect1_dropShadow_11_3" result="shape"/>
</filter>
<linearGradient id="paint0_linear_11_3" x1="1298" y1="25" x2="2969.04" y2="1301.58" gradientUnits="userSpaceOnUse">
<stop stop-color="#C381DB"/>
<stop offset="1" stop-color="#4E92F9"/>
</linearGradient>
</defs>
</svg>
