<svg width="234" height="234" viewBox="0 0 234 234" fill="none" xmlns="http://www.w3.org/2000/svg">
<path d="M149.844 152.812V171.125C149.844 189.244 135.104 203.979 116.99 203.979C98.875 203.979 84.1354 189.244 84.1354 171.125V157.932C84.1354 157.38 84.0781 156.838 83.974 156.317C83.3281 153.156 80.8385 150.661 77.6667 150.021C77.1458 149.906 76.6094 149.854 76.0521 149.854H62.8542C44.7344 149.854 29.9948 135.109 29.9948 116.994C29.9948 98.8799 44.7344 84.1455 62.8542 84.1455H80.901L84.1354 84.1299V77.6768L77.6667 77.682H62.8542C41.1719 77.682 23.5312 95.3174 23.5312 116.994C23.5312 138.677 41.1719 156.317 62.8542 156.317H76.0521C76.9479 156.317 77.6667 157.041 77.6667 157.932V171.125C77.6667 192.807 95.3073 210.448 116.99 210.448C138.672 210.448 156.313 192.807 156.313 171.125V152.791H153.078L149.844 152.812Z" fill="white"/>
<path d="M171.13 77.6663H157.921C157.036 77.6663 156.312 76.9424 156.312 76.0466V62.8591C156.312 41.1768 138.671 23.5361 116.989 23.5361C95.3066 23.5361 77.666 41.1768 77.666 62.8591V156.317H153.077L156.312 156.312L161.01 156.307H161.02L171.13 156.302C192.812 156.302 210.447 138.666 210.447 116.984C210.447 95.3018 192.812 77.6663 171.13 77.6663ZM171.13 149.838H153.077L149.843 149.854H84.1348V62.8591C84.1348 44.7393 98.8743 29.9997 116.989 29.9997C135.104 29.9997 149.843 44.7393 149.843 62.8591V76.0466C149.843 76.6038 149.9 77.1403 150.01 77.6663C150.656 80.8278 153.156 83.3278 156.312 83.9684C156.833 84.0778 157.374 84.1299 157.921 84.1299H171.13C189.249 84.1299 203.984 98.8695 203.984 116.984C203.984 135.099 189.249 149.838 171.13 149.838Z" fill="#72E8D2"/>
<path d="M116.99 233.984C85.7396 233.984 56.3594 221.813 34.2656 199.719C12.1719 177.62 0 148.24 0 116.99C0 85.7396 12.1719 56.3594 34.2708 34.2656C56.3646 12.1719 85.7448 0 116.99 0C148.234 0 177.62 12.1719 199.719 34.2708C221.813 56.3646 233.984 85.7448 233.984 116.995C233.984 148.245 221.813 177.625 199.719 199.724C177.62 221.813 148.24 233.984 116.99 233.984ZM116.99 6.46875C56.0469 6.46875 6.46875 56.0469 6.46875 116.99C6.46875 177.932 56.0469 227.516 116.99 227.516C177.932 227.516 227.521 177.932 227.521 116.99C227.521 56.0469 177.938 6.46875 116.99 6.46875Z" fill="white"/>
</svg>
