<?xml version="1.0" encoding="utf-8"?>
<svg viewBox="521.008 108.067 242.555 244.615" xmlns="http://www.w3.org/2000/svg">
  <defs>
    <clipPath id="cd8e0d58f2">
      <path d="M 156.351562 75.394531 L 398.90625 75.394531 L 398.90625 317.945312 L 156.351562 317.945312 Z M 156.351562 75.394531 " clip-rule="nonzero"/>
    </clipPath>
    <clipPath id="e49fb4cd56">
      <path d="M 323.089844 154 L 374.648438 154 L 374.648438 210 L 323.089844 210 Z M 323.089844 154 " clip-rule="nonzero"/>
    </clipPath>
    <clipPath id="325e1eddcb">
      <path d="M 189 112 L 343 112 L 343 289.402344 L 189 289.402344 Z M 189 112 " clip-rule="nonzero"/>
    </clipPath>
  </defs>
  <g clip-path="url(#cd8e0d58f2)" transform="matrix(1, 0, 0, 1, 364.656378, 32.67257)">
    <path fill="#d5ecf1" d="M 277.628906 75.394531 C 210.648438 75.394531 156.351562 129.691406 156.351562 196.667969 C 156.351562 263.648438 210.648438 317.945312 277.628906 317.945312 C 344.609375 317.945312 398.90625 263.648438 398.90625 196.667969 C 398.90625 129.691406 344.609375 75.394531 277.628906 75.394531 " fill-opacity="1" fill-rule="nonzero"/>
  </g>
  <g clip-path="url(#e49fb4cd56)" transform="matrix(1, 0, 0, 1, 364.656378, 32.67257)">
    <path fill="#f1e510" d="M 374.570312 205.867188 C 374.160156 206.035156 373.960938 206.261719 373.792969 206.515625 C 373.621094 206.765625 373.433594 207.003906 373.234375 207.222656 C 372.835938 207.664062 372.371094 208.019531 371.890625 208.234375 C 371.40625 208.449219 370.898438 208.46875 370.40625 208.347656 C 369.914062 208.226562 369.53125 207.949219 369.199219 207.523438 C 368.867188 207.089844 368.59375 206.535156 368.222656 205.949219 C 367.875 205.371094 367.289062 204.699219 366.46875 204.40625 C 366.070312 204.261719 365.660156 204.207031 365.261719 204.203125 C 364.839844 204.230469 364.355469 204.324219 363.945312 204.617188 C 363.546875 204.910156 363.308594 205.273438 363.121094 205.585938 C 362.945312 205.902344 362.804688 206.1875 362.664062 206.453125 C 362.394531 206.992188 362.09375 207.4375 361.699219 207.816406 C 361.316406 208.183594 360.824219 208.546875 360.425781 208.628906 C 360.035156 208.714844 359.632812 208.582031 359.171875 208.21875 C 358.726562 207.871094 358.277344 207.398438 357.761719 206.960938 C 357.257812 206.519531 356.648438 206.089844 355.917969 205.890625 C 355.191406 205.667969 354.300781 205.796875 353.691406 206.214844 C 353.0625 206.617188 352.605469 207.15625 352.242188 207.722656 C 352.058594 208.007812 351.90625 208.304688 351.757812 208.601562 C 351.621094 208.902344 351.53125 209.238281 351.660156 209.640625 C 352.03125 209.449219 352.226562 209.210938 352.390625 208.949219 C 352.5625 208.691406 352.734375 208.441406 352.925781 208.207031 C 353.300781 207.742188 353.71875 207.3125 354.1875 207.042969 C 354.65625 206.773438 355.144531 206.714844 355.636719 206.867188 C 356.144531 207.019531 356.601562 207.355469 357.039062 207.765625 C 357.472656 208.179688 357.878906 208.671875 358.40625 209.144531 C 358.679688 209.375 358.980469 209.613281 359.378906 209.769531 C 359.757812 209.953125 360.234375 209.980469 360.660156 209.925781 C 360.867188 209.886719 361.0625 209.820312 361.261719 209.761719 C 361.4375 209.679688 361.609375 209.589844 361.78125 209.503906 C 362.097656 209.308594 362.394531 209.109375 362.671875 208.859375 C 363.21875 208.371094 363.660156 207.75 363.976562 207.160156 C 364.140625 206.863281 364.28125 206.578125 364.417969 206.339844 C 364.558594 206.105469 364.695312 205.933594 364.816406 205.84375 C 364.929688 205.761719 365.09375 205.734375 365.304688 205.710938 C 365.421875 205.722656 365.546875 205.710938 365.660156 205.726562 C 365.761719 205.757812 365.886719 205.75 365.980469 205.796875 C 366.382812 205.925781 366.730469 206.230469 367.058594 206.722656 C 367.394531 207.199219 367.710938 207.789062 368.179688 208.355469 C 368.644531 208.921875 369.371094 209.410156 370.132812 209.546875 C 370.886719 209.71875 371.71875 209.582031 372.378906 209.226562 C 373.046875 208.875 373.542969 208.339844 373.9375 207.785156 C 374.136719 207.503906 374.308594 207.214844 374.464844 206.917969 C 374.625 206.625 374.726562 206.285156 374.570312 205.867188 Z M 328.886719 167.964844 C 328.945312 168.390625 328.929688 168.867188 328.75 169.25 C 328.601562 169.648438 328.367188 169.953125 328.140625 170.230469 C 327.675781 170.765625 327.191406 171.175781 326.78125 171.617188 C 326.378906 172.058594 326.050781 172.523438 325.902344 173.03125 C 325.761719 173.523438 325.824219 174.011719 326.105469 174.476562 C 326.378906 174.941406 326.816406 175.351562 327.289062 175.71875 C 327.523438 175.90625 327.777344 176.078125 328.039062 176.242188 C 328.304688 176.398438 328.542969 176.59375 328.742188 176.960938 C 328.339844 177.097656 328.003906 177.015625 327.703125 176.878906 C 327.402344 176.738281 327.097656 176.589844 326.8125 176.410156 C 326.242188 176.054688 325.695312 175.605469 325.285156 174.984375 C 324.851562 174.382812 324.710938 173.496094 324.925781 172.765625 C 325.109375 172.035156 325.53125 171.417969 325.96875 170.90625 C 326.394531 170.382812 326.859375 169.929688 327.203125 169.476562 C 327.558594 169.011719 327.683594 168.609375 327.589844 168.21875 C 327.507812 167.824219 327.136719 167.335938 326.761719 166.957031 C 326.375 166.570312 325.925781 166.277344 325.382812 166.015625 C 325.113281 165.882812 324.824219 165.746094 324.507812 165.570312 C 324.191406 165.390625 323.828125 165.15625 323.527344 164.765625 C 323.222656 164.359375 323.121094 163.875 323.089844 163.453125 C 323.089844 163.058594 323.132812 162.648438 323.273438 162.246094 C 323.554688 161.421875 324.21875 160.824219 324.789062 160.46875 C 325.371094 160.089844 325.921875 159.808594 326.351562 159.46875 C 326.773438 159.128906 327.042969 158.742188 327.160156 158.25 C 327.269531 157.757812 327.242188 157.25 327.019531 156.769531 C 326.796875 156.292969 326.4375 155.832031 325.988281 155.441406 C 325.765625 155.246094 325.527344 155.0625 325.273438 154.894531 C 325.015625 154.730469 324.785156 154.535156 324.609375 154.128906 C 325.027344 153.96875 325.367188 154.0625 325.664062 154.21875 C 325.964844 154.367188 326.257812 154.539062 326.539062 154.734375 C 327.101562 155.117188 327.644531 155.605469 328.003906 156.269531 C 328.371094 156.921875 328.519531 157.75 328.363281 158.503906 C 328.234375 159.269531 327.757812 160.003906 327.199219 160.476562 C 326.640625 160.953125 326.054688 161.277344 325.585938 161.621094 C 325.097656 161.957031 324.796875 162.308594 324.671875 162.710938 C 324.628906 162.808594 324.636719 162.929688 324.609375 163.035156 C 324.59375 163.148438 324.609375 163.273438 324.597656 163.390625 C 324.621094 163.601562 324.652344 163.761719 324.738281 163.878906 C 324.832031 163.996094 325.003906 164.128906 325.238281 164.265625 C 325.480469 164.398438 325.769531 164.535156 326.066406 164.691406 C 326.664062 165.003906 327.292969 165.429688 327.789062 165.972656 C 328.042969 166.242188 328.25 166.539062 328.445312 166.851562 C 328.535156 167.019531 328.628906 167.191406 328.710938 167.367188 C 328.773438 167.566406 328.847656 167.757812 328.886719 167.964844 " fill-opacity="1" fill-rule="nonzero"/>
  </g>
  <g clip-path="url(#325e1eddcb)" transform="matrix(1, 0, 0, 1, 364.656378, 32.67257)">
    <path fill="#d5ecf1" d="M 333.851562 228.636719 L 334.371094 227.648438 C 334.9375 228.617188 335.3125 229.503906 335.3125 229.503906 C 335.3125 229.503906 334.769531 229.144531 333.851562 228.636719 Z M 342.042969 233.832031 C 341.183594 232.113281 342.617188 231.542969 342.292969 228.320312 C 342.292969 228.320312 340.667969 223.878906 337.570312 221.550781 L 329.117188 214.578125 L 322.710938 220.578125 L 310.972656 224.15625 L 306.3125 236.007812 L 323.558594 241.574219 C 323.597656 241.621094 323.628906 241.664062 323.644531 241.703125 C 323.753906 241.980469 323.144531 242.664062 322.355469 243.398438 C 322.082031 243.246094 321.824219 243.101562 321.585938 242.972656 C 320.53125 242.398438 319.261719 242.414062 318.226562 243.023438 C 314.257812 245.363281 304.089844 251.0625 301.496094 249.710938 C 297.003906 247.378906 300.316406 210.898438 298.09375 204.484375 C 297.066406 201.519531 295.742188 198.707031 294.234375 196.066406 L 283.464844 173.578125 L 289.023438 151.859375 L 289.023438 126.640625 L 287.9375 125.785156 C 287.953125 125.539062 287.960938 125.375 287.960938 125.320312 L 287.980469 124.953125 L 287.691406 124.714844 C 287.445312 124.511719 286.964844 123.980469 286.410156 123.367188 C 283.464844 120.105469 276.566406 112.46875 267.480469 112.46875 C 265.589844 112.46875 263.683594 112.804688 261.816406 113.460938 C 258.371094 114.667969 255.847656 116.984375 253.984375 119.839844 L 253.066406 119.867188 L 232.726562 146.574219 L 202.265625 177.613281 L 191.582031 192.894531 L 192.515625 198.753906 C 192.515625 198.769531 192.511719 198.796875 192.507812 198.8125 C 190.382812 205.335938 189.246094 213.171875 189.746094 221.667969 C 190.304688 231.160156 191.535156 255.945312 198.96875 272.289062 C 198.628906 278.089844 197.96875 283.78125 196.871094 289.15625 L 283.480469 289.402344 C 283.480469 289.402344 284.269531 284.527344 285.394531 277.316406 C 288.828125 279.558594 294.207031 282.210938 299.515625 281.339844 C 321.335938 277.753906 333.308594 261.449219 333.164062 254.867188 C 333.132812 253.382812 332.433594 251.914062 331.371094 250.53125 C 333.589844 248.34375 335.535156 246.332031 336.027344 245.566406 C 337.316406 243.5625 340.753906 240.484375 340.109375 239.054688 C 339.464844 237.625 342.902344 235.546875 342.042969 233.832031 " fill-opacity="1" fill-rule="nonzero"/>
  </g>
  <path fill="#65cbc3" d="M 718.965 222.305 L 702.227 254.223 C 701.852 253.942 701.461 253.692 701.043 253.481 C 697.176 251.551 690.52 251.227 690.734 253.376 C 690.949 255.524 695.461 257.344 696.961 257.989 C 697.715 258.313 698.465 259.356 699.027 260.321 L 698.508 261.309 C 695.207 259.485 687.063 255.696 682.07 259.563 C 680.34 260.903 678.27 269.157 680.703 270.016 C 683.012 270.829 687.516 273.376 688.215 274.247 L 648.383 276.005 C 647.223 276.055 646.18 275.317 645.848 274.208 C 645.66 273.579 645.723 272.907 646.02 272.325 L 673.484 219.016 C 673.922 218.169 674.793 217.641 675.746 217.645 L 715.899 217.848 C 716.524 217.852 717.121 218.083 717.582 218.501 L 718.422 219.259 C 719.277 220.032 719.5 221.286 718.965 222.305" fill-opacity="1" fill-rule="nonzero"/>
  <path fill="#312e5f" d="M 649.777 263.251 C 649.84 263.321 649.945 263.344 650.277 263.282 C 650.481 263.04 650.461 262.891 650.402 262.782 C 650.348 262.657 650.285 262.575 650.223 262.469 C 650.098 262.266 649.965 262.079 649.82 261.907 C 649.539 261.551 649.219 261.251 648.906 260.938 C 648.274 260.325 647.637 259.723 646.922 259.223 C 646.219 258.712 645.457 258.278 644.719 257.825 C 644.348 257.598 644 257.344 643.633 257.11 C 643.453 256.993 643.262 256.884 643.07 256.786 L 642.77 256.645 C 642.672 256.602 642.539 256.594 642.297 256.755 C 642.231 257.04 642.277 257.157 642.356 257.235 L 642.582 257.469 C 642.738 257.622 642.899 257.766 643.07 257.899 C 643.402 258.165 643.754 258.415 644.078 258.7 C 644.727 259.266 645.352 259.86 646.008 260.403 C 646.652 260.966 647.371 261.426 648.047 261.938 L 649.043 262.704 C 649.215 262.829 649.383 262.946 649.539 263.071 C 649.617 263.13 649.719 263.192 649.777 263.251 Z M 634.606 289.704 L 633.938 290.333 L 633.227 290.926 L 631.817 292.114 L 630.41 293.309 C 629.934 293.696 629.438 294.067 628.957 294.446 C 627.981 295.196 627.027 295.973 626.035 296.7 L 623.024 298.841 C 622.027 299.567 620.977 300.212 619.957 300.899 C 617.914 302.274 615.813 303.571 613.727 304.88 L 610.567 306.801 C 609.512 307.446 608.434 308.044 607.367 308.665 C 606.309 309.298 605.227 309.895 604.149 310.497 C 603.07 311.098 601.988 311.696 600.895 312.27 C 598.715 313.434 596.504 314.536 594.281 315.614 L 590.953 317.243 L 589.281 318.048 C 588.727 318.313 588.192 318.626 587.727 319.114 C 588.402 319.122 589 318.938 589.574 318.708 L 591.293 317.993 C 592.438 317.516 593.574 317.012 594.695 316.485 C 595.828 315.973 596.938 315.423 598.055 314.884 C 599.176 314.348 600.281 313.79 601.391 313.231 C 605.84 311.032 610.223 308.688 614.5 306.149 C 618.754 303.575 622.883 300.786 626.828 297.747 C 627.817 296.993 628.762 296.184 629.734 295.403 C 630.215 295.005 630.707 294.626 631.172 294.212 L 632.547 292.942 L 633.914 291.673 L 634.594 291.032 L 635.234 290.348 L 636.508 288.985 C 636.942 288.536 637.332 288.044 637.543 287.395 C 636.879 287.626 636.395 288.012 635.953 288.438 L 634.606 289.704 Z M 666.668 283.493 C 665.91 283.442 665.234 283.501 664.524 283.591 C 663.82 283.688 663.121 283.837 662.442 284.059 C 661.758 284.286 661.098 284.602 660.492 285.016 C 660.207 285.251 659.914 285.466 659.68 285.755 C 659.559 285.895 659.434 286.024 659.336 286.18 C 659.246 286.341 659.188 286.536 659.301 286.825 C 659.629 286.852 659.789 286.79 659.91 286.692 C 660.016 286.579 660.152 286.497 660.277 286.407 C 660.516 286.216 660.797 286.079 661.059 285.923 C 661.609 285.649 662.195 285.446 662.797 285.282 C 663.402 285.134 664.035 285.048 664.664 285.005 C 664.817 284.993 664.973 284.989 665.129 284.981 C 664.918 285.298 664.703 285.61 664.516 285.942 C 664.067 286.7 663.668 287.485 663.317 288.29 C 662.977 289.102 662.645 289.915 662.383 290.755 C 662.262 291.18 662.149 291.606 662.09 292.048 C 662.051 292.266 662.039 292.489 662.02 292.712 C 662 292.93 662.02 293.173 662.309 293.407 C 662.625 293.216 662.703 293.032 662.75 292.829 L 662.93 292.235 C 663.055 291.844 663.184 291.45 663.32 291.063 C 663.59 290.278 663.93 289.516 664.336 288.794 C 664.746 288.071 665.203 287.376 665.688 286.704 C 665.926 286.364 666.18 286.036 666.426 285.7 L 667.195 284.723 L 667.207 284.708 C 667.297 284.594 667.356 284.45 667.367 284.294 C 667.395 283.88 667.082 283.52 666.668 283.493 Z M 653.442 254.551 C 653.918 254.344 654.336 254.02 654.77 253.723 C 654.981 253.567 655.199 253.426 655.402 253.255 C 655.508 253.169 655.602 253.075 655.699 252.977 L 655.836 252.825 C 655.891 252.786 655.91 252.688 655.82 252.391 C 655.617 252.157 655.524 252.122 655.461 252.141 L 655.258 252.18 C 655.125 252.212 654.992 252.239 654.867 252.282 C 654.609 252.36 654.375 252.469 654.133 252.571 C 653.649 252.774 653.152 252.958 652.719 253.247 C 652.274 253.524 651.871 253.872 651.449 254.184 C 651.238 254.341 651.008 254.466 650.789 254.61 C 650.68 254.68 650.578 254.766 650.481 254.856 L 650.449 254.891 C 650.328 254.841 650.211 254.79 650.094 254.751 C 649.438 254.512 648.75 254.356 648.078 254.188 C 647.738 254.106 647.414 253.985 647.082 253.891 C 646.918 253.844 646.746 253.813 646.57 253.786 L 646.309 253.759 C 646.219 253.751 646.113 253.786 645.949 254.02 C 645.945 254.305 646.004 254.395 646.078 254.442 L 646.301 254.579 C 646.453 254.665 646.606 254.743 646.762 254.809 C 647.074 254.938 647.399 255.051 647.703 255.204 C 648.317 255.509 648.91 255.848 649.524 256.13 C 650.125 256.426 650.77 256.626 651.387 256.872 C 651.699 256.993 651.992 257.13 652.301 257.251 C 652.453 257.309 652.602 257.368 652.758 257.423 C 652.84 257.446 652.906 257.481 652.984 257.512 C 653.055 257.548 653.152 257.54 653.426 257.364 C 653.567 257.083 653.531 256.966 653.465 256.895 C 653.406 256.825 653.344 256.739 653.281 256.676 C 653.149 256.548 653.016 256.407 652.871 256.294 C 652.59 256.063 652.281 255.88 651.977 255.696 C 651.797 255.587 651.613 255.481 651.43 255.376 C 651.609 255.29 651.785 255.2 651.973 255.13 C 652.461 254.938 652.973 254.782 653.442 254.551 Z M 645.004 273.317 C 644.715 273.309 644.422 273.309 644.133 273.309 C 643.848 273.305 643.512 273.337 643.352 273.301 C 643.16 273.266 643.012 273.2 642.879 273.087 C 642.613 272.864 642.422 272.415 642.324 271.926 C 642.223 271.442 642.192 270.88 642.219 270.395 C 642.231 270.149 642.113 269.915 641.922 269.77 C 641.906 269.727 641.891 269.704 641.875 269.688 L 641.746 269.598 C 641.66 269.54 641.57 269.481 641.481 269.442 C 641.297 269.344 641.106 269.266 640.934 269.13 C 640.586 268.88 640.277 268.563 639.934 268.301 C 639.598 268.02 639.195 267.833 638.813 267.606 C 638.621 267.497 638.438 267.376 638.231 267.278 C 638.125 267.227 638.02 267.184 637.906 267.145 L 637.738 267.087 C 637.688 267.059 637.602 267.083 637.356 267.274 C 637.199 267.54 637.195 267.634 637.234 267.68 L 637.324 267.844 C 637.387 267.946 637.453 268.048 637.527 268.141 C 637.676 268.329 637.848 268.489 638.012 268.653 C 638.352 268.977 638.684 269.317 639.106 269.544 C 639.422 269.731 639.777 269.864 640.133 269.989 C 639.945 270.11 639.781 270.251 639.641 270.395 C 639.418 270.618 639.25 270.852 639.094 271.091 C 639.016 271.212 638.949 271.333 638.883 271.454 C 638.828 271.548 638.793 271.61 638.731 271.704 C 638.242 272.399 637.551 273.126 636.883 273.805 C 636.203 274.497 635.484 275.153 634.738 275.786 C 634.371 276.102 634 276.423 633.645 276.755 C 633.563 276.829 633.484 276.907 633.406 276.981 C 633.027 276.68 632.656 276.38 632.289 276.067 C 629.977 274.11 627.805 271.969 626.067 269.509 C 625.402 268.567 624.813 267.583 624.297 266.559 C 624.5 266.489 624.688 266.403 624.871 266.301 C 625.27 266.079 625.668 265.852 626.063 265.614 C 626.856 265.157 627.617 264.645 628.371 264.126 C 629.871 263.071 631.313 261.93 632.695 260.719 C 634.09 259.516 635.414 258.231 636.641 256.841 L 638.379 254.723 C 638.949 254.04 639.539 253.38 640.168 252.762 C 640.781 252.13 641.438 251.551 642.117 251.009 C 642.817 250.501 643.52 249.993 644.285 249.598 C 645.797 248.77 647.484 248.317 649.254 247.942 L 654.574 246.801 C 655.465 246.626 656.348 246.415 657.238 246.227 L 658.57 245.942 C 659.016 245.852 659.449 245.704 659.852 245.341 C 659.356 245.118 658.895 245.122 658.442 245.18 L 657.086 245.348 C 656.184 245.469 655.277 245.579 654.379 245.723 C 653.481 245.868 652.578 246.005 651.68 246.169 L 648.996 246.665 C 648.098 246.829 647.184 247.012 646.274 247.266 C 645.359 247.516 644.465 247.872 643.609 248.294 C 641.879 249.137 640.402 250.384 639.102 251.719 C 638.453 252.395 637.856 253.11 637.285 253.841 L 635.629 255.993 C 634.508 257.38 633.277 258.684 631.973 259.915 C 630.66 261.141 629.254 262.27 627.805 263.341 C 627.082 263.876 626.352 264.403 625.613 264.923 C 625.246 265.184 624.871 265.434 624.496 265.684 C 624.34 265.79 624.192 265.903 624.047 266.028 C 623.981 265.887 623.906 265.743 623.844 265.598 L 623.414 264.559 L 623.039 263.493 L 622.738 262.403 C 622.707 262.259 622.672 262.114 622.617 261.973 L 622.676 261.958 C 622.91 261.903 623.156 261.852 623.399 261.809 C 623.887 261.727 624.379 261.653 624.875 261.622 C 625.367 261.587 625.863 261.594 626.352 261.649 C 626.84 261.704 627.305 261.747 627.883 261.708 C 627.524 261.247 626.981 261.028 626.453 260.934 C 625.922 260.837 625.383 260.798 624.848 260.798 C 624.317 260.798 623.781 260.829 623.254 260.903 C 622.992 260.942 622.731 260.985 622.461 261.044 L 621.707 261.208 C 619.68 261.669 617.695 262.247 615.715 262.848 C 614.723 263.145 613.734 263.446 612.754 263.786 L 611.281 264.278 L 609.824 264.813 L 608.367 265.356 L 606.93 265.946 L 605.488 266.536 L 604.07 267.173 C 600.305 268.907 596.649 270.915 593.25 273.309 L 592.602 273.743 L 591.981 274.216 L 590.734 275.149 C 590.32 275.462 589.899 275.77 589.496 276.094 L 588.32 277.126 C 587.934 277.469 587.539 277.805 587.156 278.157 L 586.582 278.68 L 586.043 279.243 L 584.965 280.372 C 584.606 280.743 584.281 281.153 584.133 281.723 C 584.727 281.579 585.141 281.274 585.516 280.926 L 586.656 279.903 L 587.223 279.391 L 587.828 278.923 C 588.234 278.614 588.629 278.29 589.027 277.973 L 590.223 277.02 L 592.715 275.255 L 593.336 274.809 L 593.981 274.403 L 596.57 272.778 L 599.242 271.282 C 601.047 270.341 602.84 269.364 604.699 268.524 L 606.078 267.856 L 607.481 267.239 L 608.883 266.618 L 610.305 266.04 L 611.723 265.458 L 613.156 264.919 C 614.109 264.544 615.078 264.212 616.047 263.876 C 617.984 263.227 619.949 262.641 621.93 262.145 L 621.953 262.137 C 621.945 262.274 621.953 262.411 621.969 262.544 L 622.172 263.716 L 622.449 264.876 C 622.563 265.255 622.684 265.634 622.82 266.009 C 623.359 267.505 624.113 268.915 624.977 270.243 C 626.711 272.899 628.899 275.227 631.336 277.216 C 632.559 278.204 633.832 279.126 635.16 279.958 C 635.824 280.38 636.496 280.782 637.184 281.161 C 637.524 281.352 637.871 281.54 638.223 281.719 C 638.387 281.805 638.617 281.915 638.801 281.985 C 638.992 282.059 639.188 282.126 639.383 282.188 C 639.781 282.313 640.184 282.423 640.629 282.462 C 640.852 282.485 641.09 282.485 641.344 282.446 C 641.594 282.407 641.879 282.309 642.125 282.098 C 642.371 281.884 642.508 281.579 642.559 281.313 C 642.609 281.048 642.598 280.805 642.57 280.579 C 642.508 280.126 642.379 279.731 642.223 279.352 C 641.914 278.594 641.531 277.903 641.106 277.239 C 640.895 276.911 640.672 276.587 640.445 276.27 C 640.223 275.946 639.949 275.657 639.504 275.493 C 639.488 275.969 639.645 276.325 639.832 276.657 C 640.024 276.989 640.199 277.325 640.379 277.665 C 640.723 278.337 641.07 279.012 641.317 279.696 C 641.438 280.04 641.543 280.384 641.578 280.7 C 641.621 281.02 641.555 281.27 641.457 281.329 C 641.363 281.415 641.063 281.462 640.742 281.415 C 640.418 281.376 640.07 281.282 639.738 281.157 C 639.57 281.091 639.402 281.024 639.238 280.95 C 639.063 280.872 638.949 280.809 638.774 280.704 C 638.445 280.516 638.121 280.321 637.797 280.118 C 637.152 279.716 636.52 279.29 635.899 278.852 C 635.281 278.419 634.676 277.973 634.078 277.512 C 634.117 277.489 634.156 277.466 634.192 277.438 C 634.602 277.157 634.988 276.856 635.375 276.548 L 637.68 274.676 C 638.445 274.028 639.203 273.415 639.902 272.544 C 639.984 272.438 640.078 272.294 640.152 272.176 C 640.211 272.091 640.266 271.997 640.328 271.915 C 640.449 271.751 640.57 271.587 640.703 271.466 C 640.738 271.43 640.777 271.407 640.813 271.376 C 640.852 271.669 640.914 271.962 640.996 272.262 C 641.188 272.884 641.461 273.575 642.133 274.071 C 642.457 274.317 642.883 274.45 643.27 274.45 C 643.688 274.446 643.934 274.38 644.227 274.333 C 644.512 274.282 644.801 274.227 645.086 274.165 C 645.367 274.079 645.668 274.161 645.914 273.657 C 645.578 273.212 645.301 273.348 645.004 273.317 Z M 647.887 267.376 C 647.758 267.208 647.625 267.048 647.484 266.903 C 647.207 266.602 646.902 266.341 646.602 266.075 C 646 265.544 645.406 265.005 644.734 264.575 C 644.074 264.13 643.367 263.755 642.676 263.36 C 642.332 263.161 642.008 262.93 641.672 262.723 C 641.504 262.618 641.328 262.524 641.145 262.438 L 640.867 262.317 C 640.774 262.274 640.652 262.274 640.418 262.442 C 640.344 262.723 640.387 262.837 640.457 262.911 L 640.668 263.126 C 640.813 263.262 640.961 263.399 641.113 263.516 C 641.426 263.762 641.754 263.985 642.055 264.243 C 642.656 264.759 643.238 265.298 643.859 265.782 C 644.465 266.282 645.149 266.684 645.797 267.118 C 646.129 267.329 646.449 267.555 646.777 267.759 L 647.277 268.055 C 647.359 268.098 647.453 268.149 647.527 268.196 C 647.602 268.247 647.707 268.259 648.008 268.126 C 648.172 267.856 648.141 267.723 648.074 267.637 C 648.012 267.54 647.949 267.462 647.887 267.376 Z M 695.781 290.223 C 695.57 290.176 695.359 290.137 695.152 290.079 C 694.738 289.958 694.32 289.864 693.918 289.739 C 693.512 289.61 693.109 289.485 692.719 289.325 C 692.324 289.192 691.945 289.012 691.57 288.833 C 691.488 288.79 691.406 288.743 691.324 288.7 C 691.543 288.516 691.754 288.325 691.973 288.134 C 692.504 287.653 693.059 287.196 693.52 286.645 C 693.992 286.11 694.414 285.524 694.856 284.954 C 695.078 284.673 695.324 284.415 695.559 284.141 C 695.672 284.009 695.781 283.86 695.879 283.712 L 696.024 283.477 C 696.07 283.399 696.082 283.286 695.949 283.032 C 695.692 282.911 695.578 282.926 695.504 282.977 L 695.274 283.13 C 695.129 283.239 694.984 283.352 694.856 283.473 C 694.594 283.716 694.348 283.973 694.074 284.208 C 693.527 284.673 692.957 285.118 692.442 285.614 C 691.914 286.098 691.477 286.673 691.02 287.223 C 690.793 287.505 690.559 287.774 690.352 288.071 C 690.348 288.079 690.34 288.091 690.332 288.098 C 689.379 287.442 688.547 286.63 687.836 285.719 C 686.859 284.423 686.145 282.884 685.754 281.235 C 685.567 280.407 685.465 279.559 685.422 278.708 C 685.406 278.278 685.379 277.852 685.371 277.423 L 685.359 276.778 C 685.359 276.563 685.313 276.348 685.078 276.091 C 684.774 276.27 684.68 276.493 684.641 276.712 C 684.598 276.934 684.563 277.157 684.535 277.38 C 684.477 277.829 684.457 278.282 684.453 278.731 C 684.465 279.637 684.547 280.54 684.692 281.438 C 684.961 283.231 685.543 285.048 686.633 286.598 C 687.719 288.153 689.313 289.313 691.02 290.028 C 691.449 290.204 691.883 290.372 692.324 290.493 C 692.762 290.645 693.215 290.719 693.66 290.813 C 694.106 290.911 694.563 290.93 695.012 290.981 C 695.234 290.997 695.465 290.993 695.692 291.001 C 695.914 291.012 696.145 290.969 696.391 290.688 C 696.199 290.356 695.992 290.262 695.781 290.223 Z M 700.07 266.891 C 699.738 266.606 699.395 266.341 699.039 266.083 C 698.336 265.575 697.59 265.122 696.832 264.692 C 695.317 263.841 693.731 263.075 692.051 262.579 C 690.383 262.059 688.656 261.739 686.922 261.575 C 686.063 261.454 685.195 261.403 684.328 261.36 C 683.895 261.325 683.461 261.356 683.027 261.387 L 682.379 261.442 C 682.16 261.462 681.945 261.532 681.742 261.801 C 681.965 262.075 682.176 262.145 682.383 262.165 L 683.016 262.227 C 683.438 262.259 683.856 262.274 684.27 262.329 L 685.524 262.446 C 685.942 262.485 686.352 262.579 686.766 262.645 C 687.594 262.782 688.395 263.02 689.203 263.223 C 689.606 263.337 690 263.477 690.399 263.598 L 690.996 263.782 L 691.582 263.997 C 693.152 264.551 694.719 265.126 696.223 265.856 C 696.977 266.219 697.711 266.618 698.449 267.016 L 699.543 267.634 C 699.727 267.735 699.91 267.841 700.09 267.95 C 700.27 268.063 700.465 268.134 700.828 268.032 C 700.859 267.661 700.727 267.466 700.559 267.325 C 700.399 267.18 700.234 267.032 700.07 266.891 Z M 695.274 236.227 C 696.527 235.137 696.688 233.485 695.633 232.536 C 694.578 231.587 692.707 231.704 691.453 232.798 C 690.203 233.887 690.039 235.54 691.094 236.489 C 692.149 237.438 694.02 237.321 695.274 236.227 Z M 699.149 271.473 C 698.965 271.372 698.781 271.262 698.598 271.169 C 698.227 270.985 697.852 270.801 697.469 270.649 L 695.18 269.731 C 693.664 269.102 692.152 268.454 690.617 267.887 C 689.082 267.298 687.508 266.841 685.942 266.356 C 685.16 266.114 684.379 265.868 683.582 265.657 C 683.192 265.544 682.789 265.446 682.391 265.352 L 681.789 265.216 C 681.59 265.165 681.375 265.165 681.078 265.387 C 681.176 265.747 681.348 265.876 681.535 265.958 L 682.094 266.216 C 682.473 266.384 682.848 266.551 683.227 266.704 C 683.981 267.02 684.75 267.305 685.516 267.598 C 687.047 268.176 688.563 268.794 690.121 269.29 C 691.672 269.805 693.246 270.259 694.809 270.747 C 695.586 271.005 696.352 271.278 697.121 271.555 C 697.504 271.688 697.887 271.821 698.274 271.942 L 698.848 272.126 C 699.063 272.192 699.18 272.192 699.543 272.083 C 699.543 271.778 699.317 271.555 699.149 271.473 Z M 688.484 275.524 C 688.672 275.86 688.856 276.212 689.16 276.466 C 689.453 276.735 689.813 276.93 690.168 277.122 C 690.352 277.212 690.504 277.337 690.695 277.419 C 690.793 277.462 690.887 277.501 690.996 277.512 L 691.16 277.524 C 691.215 277.528 691.289 277.485 691.434 277.255 C 691.492 276.985 691.484 276.903 691.457 276.868 L 691.375 276.766 C 691.317 276.708 691.266 276.637 691.199 276.591 C 691.074 276.497 690.945 276.395 690.836 276.27 C 690.621 276.016 690.461 275.704 690.25 275.446 C 690.059 275.176 689.781 274.966 689.531 274.727 C 689.402 274.61 689.285 274.481 689.145 274.368 C 689.074 274.313 688.996 274.262 688.914 274.212 L 688.789 274.137 C 688.754 274.106 688.672 274.114 688.387 274.231 C 688.152 274.43 688.117 274.512 688.129 274.559 L 688.152 274.712 C 688.172 274.813 688.195 274.911 688.231 275.005 C 688.293 275.188 688.391 275.356 688.484 275.524 Z M 714.149 220.067 L 710.996 219.989 L 704.692 219.852 L 692.078 219.673 L 679.469 219.524 C 678.246 219.469 676.934 219.973 676.078 220.907 C 675.863 221.137 675.676 221.395 675.512 221.665 L 675.391 221.876 L 675.121 222.403 L 674.402 223.801 L 671.527 229.415 L 660.184 251.934 L 654.473 263.176 C 653.527 265.051 652.578 266.926 651.656 268.817 L 650.262 271.641 C 649.801 272.587 649.379 273.551 649.141 274.61 C 649.867 273.801 650.402 272.895 650.902 271.973 L 652.391 269.192 C 653.387 267.344 654.359 265.481 655.332 263.618 L 661.145 252.434 L 672.852 230.098 L 675.738 224.497 L 676.457 223.094 L 676.637 222.747 L 676.731 222.571 L 676.805 222.438 C 676.914 222.259 677.035 222.091 677.18 221.938 C 677.758 221.321 678.567 220.973 679.449 220.997 L 692.067 220.989 L 704.684 220.954 L 710.992 220.887 L 714.145 220.848 C 715.195 220.837 716.246 220.782 717.301 220.477 C 716.25 220.157 715.203 220.091 714.149 220.067 Z M 639.293 189.219 C 639.067 189.223 638.844 189.223 638.621 189.223 C 638.176 189.227 637.738 189.223 637.305 189.188 C 636.434 189.114 635.613 188.876 634.82 188.614 C 634.617 188.551 634.414 188.489 634.231 188.391 C 634.039 188.301 633.836 188.231 633.649 188.13 C 633.281 187.915 632.899 187.712 632.567 187.423 C 632.203 187.173 631.949 186.809 631.649 186.485 C 631.488 186.333 631.375 186.137 631.223 185.969 L 630.992 185.716 C 630.918 185.63 630.797 185.571 630.496 185.602 C 630.32 185.829 630.324 185.969 630.371 186.083 L 630.516 186.423 C 630.625 186.641 630.711 186.88 630.871 187.067 C 631.172 187.462 631.465 187.864 631.824 188.212 C 632.484 188.969 633.328 189.606 634.277 190.005 C 635.227 190.426 636.274 190.536 637.274 190.505 C 637.774 190.477 638.274 190.446 638.758 190.325 C 639 190.274 639.238 190.196 639.473 190.11 C 639.59 190.071 639.703 190.016 639.82 189.969 C 639.934 189.926 640.043 189.825 640.063 189.497 C 639.859 189.235 639.742 189.196 639.633 189.208 C 639.516 189.212 639.406 189.219 639.293 189.219 Z M 589.426 201.466 C 591.25 196.313 599.633 191.266 599.633 191.266 C 602.375 190.446 604.981 190.051 607.461 189.993 C 610.391 185.38 612.859 181.063 613.598 178.634 C 614.473 178.669 615.5 178.536 616.692 178.204 C 614.676 175.891 614.5 170.364 617.067 168.223 C 618.598 166.95 620.074 167.751 621.227 169.001 C 622.863 170.778 623.496 173.262 622.883 175.489 C 623.098 175.368 623.313 175.251 623.535 175.122 C 626.207 173.571 626.317 168.247 626.024 164.469 C 634.633 166.95 645.067 164.18 651.774 160.001 C 651.52 164.352 650.832 174.512 649.715 179.266 C 648.27 185.407 645.742 193.532 635.16 197.184 C 632.18 198.212 630.738 197.688 630.738 197.688 C 630.738 197.688 630.637 198.282 630.5 199.247 C 634.633 202.512 638.133 205.891 641.117 207.977 C 642.082 208.653 643.039 209.591 643.977 210.735 C 648.672 214.954 654.547 221.13 658.891 228.739 C 660.391 227.235 661.613 225.618 662.496 223.876 C 666.953 215.106 661.992 205.243 659.473 200.208 C 656.953 195.173 665.774 190.387 663.254 183.083 C 660.734 175.782 655.633 171.149 656.199 170.243 C 657.457 168.227 662.246 163.946 657.457 156.141 C 657.32 155.919 657.18 155.7 657.035 155.481 C 657.285 155.157 657.516 154.829 657.711 154.505 C 667.481 138.083 645.547 136.43 630.715 139.024 C 623.574 138.009 615.078 139.356 609.457 148.716 C 598.117 167.598 609.582 168.731 591.567 173.516 C 579.856 176.626 578.086 191.282 575.063 194.794 C 570.484 200.11 545.25 214.415 557.242 231.145 C 561.926 211.716 583.793 204.239 589.426 201.466 Z M 640.172 185.434 C 640.289 185.399 640.402 185.36 640.516 185.321 C 640.742 185.231 640.969 185.13 641.18 185.001 C 641.606 184.747 642 184.387 642.317 183.919 C 642.465 183.684 642.602 183.395 642.668 183.13 C 642.746 182.848 642.781 182.626 642.817 182.38 C 642.887 181.915 642.899 181.454 642.895 181.005 C 642.895 180.098 642.785 179.204 642.699 178.309 C 642.656 177.864 642.649 177.419 642.617 176.973 C 642.602 176.751 642.57 176.528 642.531 176.309 L 642.461 175.977 C 642.438 175.864 642.363 175.755 642.086 175.657 C 641.82 175.778 641.754 175.891 641.738 176.001 L 641.692 176.337 C 641.668 176.555 641.649 176.778 641.645 177.001 C 641.637 177.442 641.649 177.884 641.617 178.325 C 641.559 179.212 641.457 180.091 641.406 180.962 C 641.383 181.395 641.352 181.825 641.344 182.243 C 641.328 182.442 641.328 182.661 641.301 182.813 C 641.285 182.981 641.242 183.102 641.176 183.259 C 641.035 183.551 640.789 183.837 640.508 184.114 C 640.367 184.255 640.219 184.391 640.059 184.532 C 639.981 184.602 639.902 184.669 639.82 184.735 C 639.731 184.794 639.676 184.899 639.695 185.223 C 639.918 185.466 640.059 185.473 640.172 185.434 Z M 631.742 220.001 C 631.777 219.962 631.805 219.923 631.84 219.884 L 633.563 217.938 C 634.133 217.282 634.711 216.63 635.32 215.993 C 635.629 215.676 635.945 215.368 636.289 215.063 C 636.461 214.911 636.641 214.762 636.848 214.614 C 636.949 214.54 637.059 214.469 637.195 214.395 C 637.344 214.329 637.469 214.227 637.832 214.212 C 637.957 214.204 638.07 214.227 638.176 214.266 C 637.516 213.45 637.086 212.52 636.582 211.63 L 634.754 208.313 L 632.91 205.009 C 632.594 204.446 632.27 203.88 631.945 203.317 C 631.902 203.868 631.875 204.423 631.856 204.981 C 631.817 206.141 631.824 207.309 631.856 208.481 C 631.887 209.649 631.942 210.821 632.02 211.993 L 632.149 213.743 L 632.223 214.622 C 632.25 214.899 632.281 215.219 632.285 215.54 C 632.336 217.051 632.137 218.555 631.742 220.001 Z M 617.754 209.837 C 617.887 209.864 618.02 209.907 618.145 209.973 C 617.992 209.86 617.84 209.766 617.688 209.708 C 617.258 209.544 616.762 209.333 616.356 209.106 C 614.656 208.208 613.106 207.161 611.555 206.098 C 610.008 205.036 608.492 203.938 606.992 202.821 C 605.492 201.704 604.004 200.571 602.543 199.399 L 600.356 197.649 C 599.629 197.059 598.934 196.43 598.371 195.637 C 599.274 196.001 600.047 196.524 600.797 197.079 L 603.047 198.747 L 607.563 202.044 C 609.078 203.13 610.59 204.216 612.133 205.251 C 613.672 206.286 615.238 207.309 616.848 208.141 C 617.051 208.247 617.254 208.341 617.457 208.426 C 617.668 208.528 617.828 208.567 618.078 208.669 C 618.645 208.876 619.063 209.231 619.426 209.591 C 620.145 210.329 620.668 211.153 621.145 211.989 C 622.082 213.665 622.805 215.419 623.473 217.184 C 624.613 220.298 625.551 223.454 626.367 226.657 C 626.82 226.141 627.258 225.591 627.656 225.032 C 628.313 224.102 628.895 223.122 629.371 222.094 C 630.324 220.051 630.902 217.817 630.852 215.587 C 630.848 215.45 630.852 215.309 630.844 215.176 L 630.809 214.739 L 630.742 213.848 L 630.641 212.071 C 630.582 210.884 630.543 209.696 630.527 208.505 C 630.512 207.317 630.524 206.126 630.582 204.926 C 630.645 203.731 630.734 202.532 630.957 201.325 L 630.957 201.313 C 631.02 200.985 631.336 200.766 631.668 200.829 C 631.848 200.86 632 200.973 632.086 201.122 C 632.723 202.235 633.309 203.348 633.902 204.469 C 634.492 205.591 635.082 206.708 635.641 207.844 L 637.324 211.247 C 637.824 212.313 638.414 213.333 638.629 214.548 C 638.645 214.559 638.652 214.567 638.668 214.579 C 638.731 214.653 638.793 214.731 638.848 214.809 L 638.969 215.016 C 639.098 215.278 639.188 215.52 639.25 215.751 C 639.383 216.216 639.465 216.653 639.531 217.094 C 639.66 217.973 639.75 218.837 639.84 219.692 L 640.121 222.243 C 640.176 222.661 640.223 223.083 640.285 223.493 C 640.317 223.7 640.352 223.903 640.395 224.102 C 640.442 224.305 640.449 224.501 640.258 224.829 C 639.887 224.762 639.731 224.555 639.652 224.348 C 639.559 224.137 639.477 223.926 639.402 223.716 C 639.254 223.294 639.129 222.868 639.031 222.438 C 638.82 221.583 638.684 220.723 638.535 219.872 C 638.387 219.024 638.246 218.176 638.078 217.356 C 637.988 216.95 637.902 216.544 637.793 216.176 C 637.754 216.044 637.711 215.926 637.672 215.817 C 637.668 215.821 637.664 215.821 637.664 215.825 C 637.512 215.919 637.352 216.036 637.192 216.161 C 636.871 216.403 636.551 216.673 636.231 216.95 C 635.594 217.505 634.969 218.091 634.348 218.68 C 633.738 219.286 633.149 219.907 632.559 220.532 C 632.262 220.844 631.957 221.149 631.652 221.45 L 631.18 221.895 C 631.145 221.93 631.106 221.962 631.063 221.993 C 630.957 222.243 630.852 222.489 630.738 222.731 C 630.219 223.844 629.59 224.903 628.879 225.899 C 628.16 226.899 627.406 227.825 626.473 228.708 C 626.176 228.985 625.711 228.973 625.434 228.68 C 625.34 228.579 625.277 228.462 625.25 228.341 L 625.246 228.321 C 624.426 224.719 623.445 221.118 622.227 217.634 C 621.613 215.891 620.942 214.169 620.09 212.567 C 619.664 211.774 619.184 211.001 618.609 210.387 C 618.484 210.259 618.356 210.141 618.223 210.032 C 618.09 210.161 617.969 210.247 617.852 210.321 C 617.731 210.407 617.613 210.485 617.492 210.536 C 617.375 210.606 617.254 210.661 617.133 210.716 L 616.785 210.923 C 616.336 211.219 615.93 211.602 615.559 212.016 C 614.813 212.844 614.192 213.809 613.637 214.805 C 613.074 215.805 612.586 216.852 612.149 217.923 C 611.711 218.989 611.313 220.094 610.988 221.176 L 610.984 221.196 C 610.871 221.571 610.477 221.782 610.102 221.673 C 610.055 221.657 610.008 221.637 609.965 221.614 L 608.527 220.821 C 608.067 220.536 607.633 220.219 607.184 219.919 C 606.731 219.622 606.328 219.27 605.899 218.95 C 605.688 218.782 605.469 218.626 605.266 218.45 L 604.664 217.923 C 603.051 216.528 601.543 215.036 600.106 213.485 C 598.664 211.938 597.27 210.352 595.895 208.755 C 595.203 207.958 594.539 207.141 593.887 206.313 C 593.563 205.899 593.246 205.473 592.938 205.048 C 592.621 204.626 592.297 204.208 592.25 203.579 C 592.848 203.778 593.18 204.18 593.524 204.575 L 594.57 205.747 L 596.649 208.098 C 598.027 209.673 599.473 211.184 600.977 212.634 C 602.477 214.083 603.996 215.509 605.609 216.805 C 606.984 217.93 608.402 219.009 609.895 219.899 C 610.203 219.044 610.543 218.219 610.914 217.395 C 611.406 216.298 611.953 215.223 612.582 214.192 C 613.223 213.165 613.93 212.161 614.844 211.313 C 615.301 210.891 615.801 210.505 616.363 210.204 L 616.801 210.001 C 616.953 209.946 617.106 209.887 617.262 209.848 C 617.422 209.825 617.59 209.825 617.754 209.837 Z M 577.543 319.337 L 576.977 319.247 L 576.422 319.098 L 575.887 318.903 C 575.18 318.606 574.508 318.212 573.879 317.739 C 572.613 316.794 571.551 315.567 570.477 314.356 C 569.422 313.122 568.395 311.837 567.453 310.485 C 566.992 309.801 566.563 309.098 566.145 308.387 C 565.934 308.032 565.711 307.68 565.492 307.333 L 565.152 306.809 C 565.043 306.634 564.891 306.485 564.555 306.415 C 564.399 306.719 564.434 306.942 564.512 307.137 L 564.75 307.723 C 564.918 308.11 565.098 308.489 565.297 308.86 C 565.695 309.602 566.113 310.333 566.539 311.059 C 567.371 312.524 568.262 313.973 569.328 315.305 C 570.391 316.645 571.652 317.852 573.125 318.817 C 573.863 319.294 574.66 319.716 575.535 319.954 C 575.758 320.001 575.973 320.067 576.199 320.094 C 576.426 320.118 576.652 320.145 576.879 320.153 L 577.559 320.122 C 577.781 320.087 578.012 319.997 578.176 319.676 C 577.922 319.387 577.734 319.337 577.543 319.337 Z M 648.524 172.02 C 648.57 172.048 648.656 172.032 648.922 171.876 C 649.113 171.63 649.121 171.532 649.09 171.477 L 649.004 171.301 C 648.945 171.188 648.879 171.079 648.801 170.981 C 648.656 170.778 648.469 170.61 648.289 170.438 C 647.918 170.106 647.516 169.778 647.027 169.61 C 646.551 169.419 646.02 169.38 645.516 169.36 C 645.262 169.352 645.012 169.325 644.762 169.341 C 644.637 169.341 644.512 169.368 644.387 169.407 L 644.207 169.477 C 644.149 169.501 644.094 169.575 644.063 169.844 C 644.149 170.11 644.207 170.18 644.262 170.196 L 644.422 170.247 L 644.731 170.309 C 644.832 170.329 644.934 170.337 645.035 170.348 C 645.133 170.368 645.234 170.399 645.332 170.426 C 645.723 170.567 646.07 170.786 646.422 170.973 C 646.762 171.176 647.149 171.305 647.52 171.505 C 647.703 171.602 647.875 171.716 648.07 171.813 C 648.164 171.864 648.266 171.907 648.367 171.954 L 648.524 172.02 Z M 646.734 174.469 C 645.836 174.329 644.992 174.938 644.848 175.837 C 644.703 176.735 645.317 177.575 646.215 177.719 C 647.113 177.864 647.957 177.251 648.098 176.352 C 648.242 175.454 647.633 174.614 646.734 174.469 Z M 636.223 167.501 L 635.969 167.352 C 635.801 167.262 635.625 167.173 635.445 167.106 C 635.09 166.958 634.715 166.872 634.34 166.782 C 633.59 166.618 632.805 166.497 632.024 166.591 C 631.234 166.657 630.473 166.93 629.762 167.247 C 629.586 167.333 629.406 167.411 629.227 167.489 C 629.055 167.579 628.883 167.673 628.715 167.77 C 628.633 167.817 628.551 167.872 628.469 167.926 C 628.395 167.989 628.324 168.055 628.25 168.122 L 628.043 168.329 C 627.977 168.399 627.934 168.512 628.024 168.778 C 628.262 168.942 628.375 168.954 628.457 168.923 L 628.703 168.829 C 628.859 168.751 629.016 168.688 629.176 168.626 C 629.332 168.563 629.481 168.485 629.637 168.415 C 629.797 168.364 629.957 168.317 630.121 168.27 C 630.781 168.126 631.453 168.083 632.121 168.079 C 632.785 168.087 633.461 168.036 634.145 168.083 C 634.488 168.106 634.828 168.153 635.176 168.184 L 635.703 168.223 L 635.973 168.243 C 636.059 168.255 636.156 168.219 636.352 167.966 C 636.379 167.645 636.305 167.544 636.223 167.501 Z M 636.27 173.176 C 636.414 172.278 635.801 171.434 634.902 171.29 C 634.008 171.149 633.16 171.759 633.02 172.657 C 632.875 173.551 633.488 174.399 634.387 174.54 C 635.285 174.684 636.125 174.071 636.27 173.176 Z M 627.863 196.626 C 628.059 196.716 628.231 196.848 628.356 197.184 C 628.067 197.368 627.824 197.356 627.606 197.298 C 627.383 197.243 627.172 197.161 626.953 197.083 C 626.52 196.934 626.113 196.723 625.711 196.509 C 624.918 196.048 624.188 195.497 623.492 194.915 C 622.094 193.743 620.875 192.368 619.883 190.856 C 618.867 189.352 618.133 187.696 617.488 186.032 C 617.168 185.196 616.871 184.352 616.637 183.489 C 616.512 183.059 616.418 182.622 616.324 182.184 L 616.203 181.524 C 616.156 181.309 616.164 181.071 616.414 180.786 C 616.762 180.926 616.887 181.114 616.957 181.317 L 617.199 181.926 L 617.684 183.134 C 618.016 183.934 618.34 184.739 618.703 185.524 C 619.418 187.094 620.258 188.594 621.141 190.055 C 622.027 191.509 623.012 192.915 624.219 194.11 C 624.832 194.696 625.496 195.227 626.211 195.676 C 626.574 195.891 626.926 196.13 627.301 196.321 C 627.488 196.423 627.668 196.54 627.863 196.626" fill-opacity="1" fill-rule="nonzero"/>
  <path fill="#e3386a" d="M 728.379 215.313 C 728.203 215.384 728.027 215.462 727.856 215.54 C 727.516 215.704 727.176 215.872 726.852 216.063 C 726.524 216.251 726.199 216.446 725.879 216.637 C 725.719 216.735 725.551 216.821 725.406 216.95 C 725.332 217.012 725.27 217.087 725.207 217.169 C 725.18 217.216 725.145 217.247 725.125 217.305 C 725.109 217.372 725.113 217.473 725.16 217.641 C 725.285 217.762 725.371 217.817 725.438 217.833 C 725.5 217.844 725.543 217.829 725.598 217.825 C 725.699 217.809 725.797 217.794 725.887 217.759 C 726.067 217.692 726.223 217.587 726.387 217.493 C 726.711 217.301 727.035 217.114 727.356 216.915 C 727.68 216.723 727.992 216.509 728.301 216.286 C 728.453 216.173 728.602 216.059 728.75 215.938 C 728.902 215.829 729.059 215.719 729.051 215.337 C 728.719 215.145 728.551 215.231 728.379 215.313 Z M 723.024 211.051 C 723.234 210.747 723.445 210.442 723.649 210.126 C 723.856 209.817 724.043 209.497 724.223 209.169 C 724.313 209.005 724.399 208.837 724.484 208.669 C 724.574 208.505 724.668 208.344 724.496 208.001 C 724.113 207.966 724 208.114 723.879 208.259 C 723.754 208.395 723.629 208.54 723.508 208.684 C 723.27 208.969 723.039 209.262 722.828 209.571 C 722.613 209.876 722.406 210.184 722.199 210.493 C 722.098 210.649 721.984 210.798 721.91 210.969 C 721.867 211.055 721.848 211.153 721.824 211.251 C 721.82 211.305 721.801 211.348 721.809 211.411 C 721.82 211.473 721.871 211.563 721.984 211.696 C 722.149 211.751 722.25 211.766 722.317 211.755 C 722.375 211.739 722.41 211.704 722.457 211.68 C 722.539 211.626 722.621 211.567 722.688 211.501 C 722.82 211.368 722.918 211.204 723.024 211.051 Z M 731.149 207.223 L 729.832 208.333 C 728.965 209.079 728.09 209.825 727.25 210.602 L 724.703 212.915 C 724.277 213.298 723.852 213.684 723.449 214.091 C 723.246 214.294 723.059 214.516 722.875 214.739 C 722.699 214.969 722.465 215.137 722.496 215.594 C 722.949 215.669 723.141 215.454 723.383 215.294 C 723.625 215.134 723.859 214.969 724.082 214.786 C 724.527 214.423 724.949 214.036 725.371 213.649 L 727.91 211.329 C 728.762 210.559 729.582 209.762 730.41 208.966 L 731.637 207.759 C 732.051 207.36 732.465 206.966 732.664 206.333 C 732.016 206.473 731.582 206.848 731.149 207.223 Z M 661.086 208.762 C 660.715 207.903 660.305 207.063 659.859 206.239 C 658.957 204.602 657.965 203.012 656.766 201.548 L 656.309 201.009 L 656.129 200.774 C 656.074 200.692 656.027 200.606 655.977 200.524 C 655.789 200.184 655.676 199.798 655.633 199.391 C 655.551 198.579 655.715 197.712 656 196.88 C 656.277 196.044 656.672 195.235 657.086 194.434 C 657.293 194.032 657.508 193.637 657.723 193.231 C 657.934 192.825 658.215 192.477 658.215 191.895 C 657.645 192.044 657.391 192.454 657.094 192.817 C 656.793 193.18 656.524 193.571 656.274 193.973 C 655.774 194.778 655.359 195.645 655.055 196.563 C 654.75 197.477 654.547 198.469 654.652 199.497 C 654.707 200.012 654.852 200.532 655.113 201.001 C 655.18 201.114 655.246 201.231 655.32 201.341 L 655.567 201.653 L 656.008 202.173 C 657.145 203.579 658.18 205.094 659.109 206.665 C 659.582 207.446 660.024 208.251 660.426 209.067 L 661.004 210.298 C 661.195 210.708 661.426 211.091 661.617 211.536 C 661.77 211.051 661.672 210.555 661.57 210.094 C 661.453 209.63 661.274 209.196 661.086 208.762 Z M 655.692 152.563 C 655.652 152.544 655.637 152.551 655.606 152.544 C 655.555 152.54 655.508 152.54 655.473 152.551 C 655.399 152.575 655.359 152.63 655.309 152.673 C 655.215 152.766 655.117 152.86 655.031 152.962 C 654.934 153.055 654.859 153.169 654.789 153.286 C 654.754 153.348 654.727 153.411 654.695 153.477 C 654.66 153.536 654.621 153.591 654.813 153.876 C 655.098 154.067 655.152 154.028 655.211 153.993 C 655.277 153.962 655.34 153.93 655.402 153.899 C 655.52 153.829 655.633 153.755 655.727 153.657 C 655.828 153.571 655.922 153.473 656.016 153.38 C 656.059 153.329 656.113 153.29 656.137 153.216 C 656.149 153.184 656.149 153.134 656.145 153.083 C 656.137 153.051 656.145 153.036 656.129 152.997 C 656.106 152.95 656.051 152.872 655.945 152.743 C 655.817 152.637 655.738 152.583 655.692 152.563 Z M 655.563 143.669 C 656.18 144.333 656.684 145.091 656.988 145.915 C 657.047 146.126 657.145 146.325 657.176 146.544 L 657.297 147.188 C 657.301 147.626 657.336 148.067 657.242 148.505 C 657.219 148.954 657.047 149.38 656.914 149.817 C 656.867 150.044 656.715 150.227 656.66 150.458 C 656.594 150.688 656.547 150.926 656.574 151.231 C 657.082 150.985 657.379 150.555 657.582 150.102 C 657.774 149.637 658.004 149.176 658.09 148.661 C 658.246 148.165 658.223 147.637 658.238 147.114 L 658.133 146.337 C 658.098 146.075 657.988 145.833 657.918 145.583 C 657.574 144.594 656.981 143.727 656.289 142.989 C 655.945 142.618 655.574 142.27 655.16 141.985 C 654.957 141.837 654.727 141.723 654.504 141.606 C 654.27 141.516 654.07 141.344 653.68 141.54 C 653.707 141.966 653.906 142.059 654.074 142.235 L 654.574 142.719 C 654.746 142.872 654.914 143.028 655.078 143.188 C 655.254 143.337 655.406 143.505 655.563 143.669 Z M 563.887 207.219 L 562.754 207.926 C 562.395 208.188 562.02 208.434 561.668 208.708 C 560.262 209.809 558.957 211.106 558.016 212.665 C 557.063 214.212 556.434 215.985 556.281 217.809 C 556.203 218.719 556.231 219.641 556.391 220.54 C 556.481 220.985 556.594 221.426 556.758 221.852 C 556.922 222.27 557.039 222.731 557.551 222.993 C 557.707 222.458 557.551 222.083 557.484 221.657 C 557.422 221.239 557.363 220.821 557.317 220.403 C 557.234 219.567 557.203 218.727 557.274 217.895 C 557.41 216.227 557.977 214.61 558.856 213.18 C 559.734 211.743 560.899 210.481 562.207 209.38 C 562.527 209.098 562.875 208.844 563.211 208.575 L 564.27 207.837 C 564.637 207.606 565.004 207.384 565.356 207.126 C 565.715 206.876 566.063 206.606 566.371 206.251 C 565.906 206.298 565.477 206.438 565.063 206.598 C 564.656 206.778 564.274 207.005 563.887 207.219 Z M 591.016 177.036 C 591.059 177.063 591.09 177.055 591.125 177.067 C 591.195 177.079 591.266 177.091 591.328 177.079 C 591.453 177.067 591.559 177.009 591.668 176.966 C 591.891 176.872 592.113 176.778 592.328 176.676 C 592.551 176.583 592.758 176.462 592.965 176.337 C 593.07 176.274 593.172 176.204 593.27 176.134 C 593.371 176.071 593.481 176.012 593.457 175.657 C 593.215 175.395 593.102 175.434 592.981 175.462 C 592.863 175.485 592.742 175.512 592.625 175.544 C 592.391 175.602 592.16 175.673 591.938 175.77 C 591.715 175.856 591.496 175.954 591.277 176.048 C 591.168 176.098 591.055 176.137 590.957 176.216 C 590.906 176.255 590.867 176.309 590.828 176.368 C 590.809 176.403 590.785 176.423 590.774 176.473 C 590.766 176.528 590.774 176.626 590.813 176.79 C 590.906 176.93 590.969 177.005 591.016 177.036 Z M 580.156 190.391 C 580.317 190.083 580.465 189.766 580.606 189.45 C 580.883 188.817 581.152 188.18 581.442 187.551 C 582.02 186.298 582.668 185.075 583.41 183.911 C 584.164 182.762 584.969 181.649 585.895 180.637 C 586.375 180.161 586.836 179.645 587.383 179.235 C 587.902 178.774 588.481 178.458 588.922 177.798 C 588.168 177.868 587.5 178.208 586.942 178.661 C 586.336 179.059 585.82 179.563 585.277 180.036 C 584.262 181.055 583.359 182.18 582.582 183.384 C 581.809 184.587 581.137 185.848 580.539 187.137 C 580.234 187.782 579.957 188.438 579.731 189.11 C 579.613 189.446 579.527 189.794 579.445 190.141 C 579.375 190.493 579.231 190.825 579.473 191.266 C 579.918 191.036 579.996 190.704 580.156 190.391 Z M 626.969 142.548 C 625.969 142.091 624.863 142.071 623.801 142.184 C 622.731 142.309 621.68 142.571 620.668 142.93 C 619.652 143.286 618.703 143.798 617.785 144.348 C 616.867 144.899 616.008 145.544 615.203 146.235 C 613.578 147.614 612.149 149.188 610.844 150.856 C 610.195 151.688 609.578 152.548 609.027 153.45 C 608.754 153.903 608.5 154.364 608.266 154.837 C 608.035 155.313 607.742 155.762 607.82 156.395 C 608.379 156.102 608.606 155.645 608.914 155.223 L 609.813 153.962 C 610.406 153.118 611 152.278 611.633 151.466 C 612.895 149.841 614.285 148.309 615.84 146.981 C 617.395 145.653 619.102 144.501 620.981 143.735 C 621.918 143.352 622.891 143.067 623.895 142.903 C 624.902 142.766 625.895 142.755 626.969 142.548 Z M 590.676 249.759 C 589.152 227.165 580.285 222.864 579.91 222.692 C 579.535 222.52 579.098 222.684 578.922 223.055 C 578.75 223.43 578.914 223.872 579.285 224.048 C 579.367 224.087 587.731 228.286 589.184 249.86 C 590.445 268.563 592.965 272.946 593.074 273.126 C 593.211 273.356 593.457 273.485 593.711 273.485 C 593.84 273.485 593.973 273.45 594.09 273.38 C 594.445 273.173 594.563 272.716 594.359 272.36 C 594.336 272.317 591.899 267.911 590.676 249.759 Z M 626.117 230.262 C 625.754 230.458 625.613 230.907 625.805 231.274 C 625.879 231.419 633.43 245.981 631.563 259.2 C 631.504 259.606 631.789 259.985 632.199 260.044 C 632.234 260.048 632.27 260.051 632.305 260.051 C 632.672 260.051 632.992 259.782 633.043 259.407 C 634.977 245.716 627.449 231.188 627.125 230.579 C 626.938 230.212 626.481 230.071 626.117 230.262 Z M 629.168 294.173 C 628.766 294.075 628.359 294.317 628.262 294.716 C 628.063 295.501 623.449 313.989 623.449 319.809 C 623.449 320.219 623.785 320.555 624.199 320.555 C 624.609 320.555 624.945 320.219 624.945 319.809 C 624.945 314.176 629.664 295.27 629.711 295.079 C 629.809 294.68 629.567 294.274 629.168 294.173 Z M 606.762 190.637 C 606.738 190.665 604.219 193.434 601.734 196.04 C 601.449 196.337 601.461 196.809 601.762 197.094 C 601.906 197.235 602.09 197.301 602.277 197.301 C 602.473 197.301 602.668 197.227 602.817 197.071 C 605.313 194.45 607.844 191.673 607.867 191.645 C 608.145 191.341 608.125 190.864 607.817 190.587 C 607.516 190.309 607.043 190.333 606.762 190.637 Z M 649.152 309.188 C 649.129 309.602 649.442 309.954 649.856 309.977 C 649.871 309.977 649.883 309.977 649.899 309.977 C 650.293 309.977 650.621 309.673 650.645 309.274 C 651.504 294.395 652.606 275.048 652.606 275.048 L 651.113 274.966 C 651.113 274.966 650.012 294.305 649.152 309.188 Z M 640.543 220.368 C 640.258 220.071 640.262 219.598 640.559 219.313 C 640.852 219.024 641.328 219.028 641.613 219.325 C 642.113 219.837 653.801 232.005 652.078 246.481 C 652.031 246.86 651.711 247.137 651.336 247.137 C 651.305 247.137 651.277 247.137 651.246 247.134 C 650.836 247.087 650.547 246.712 650.594 246.301 C 652.234 232.528 640.66 220.489 640.543 220.368" fill-opacity="1" fill-rule="nonzero"/>
  <g fill="#00a6ff" fill-opacity="1" transform="matrix(1, 0, 0, 1, 364.656378, 32.67257)">
    <g transform="translate(197.914271, 319.462798)">
      <g>
        <path d="M 19.828125 -30.453125 L 19.828125 -24.375 L 9.15625 -24.375 L 9.15625 -18.3125 L 19.015625 -18.3125 L 19.015625 -12.21875 L 9.15625 -12.21875 L 9.15625 0 L 2.21875 0 L 2.21875 -30.453125 Z M 19.828125 -30.453125 "/>
      </g>
    </g>
  </g>
  <g fill="#00a6ff" fill-opacity="1" transform="matrix(1, 0, 0, 1, 364.656378, 32.67257)">
    <g transform="translate(218.852478, 319.462798)">
      <g>
        <path d="M 3.5 -2.34375 C 1.726562 -4.28125 0.84375 -6.648438 0.84375 -9.453125 C 0.84375 -12.253906 1.726562 -14.628906 3.5 -16.578125 C 5.28125 -18.523438 7.535156 -19.5 10.265625 -19.5 C 12.773438 -19.5 14.84375 -18.707031 16.46875 -17.125 L 16.46875 -18.9375 L 23 -18.9375 L 23 0 L 16.546875 0 L 16.546875 -2.140625 L 16.46875 -2.140625 C 14.84375 -0.347656 12.773438 0.546875 10.265625 0.546875 C 7.535156 0.546875 5.28125 -0.414062 3.5 -2.34375 Z M 9.0625 -12.65625 C 8.21875 -11.820312 7.796875 -10.753906 7.796875 -9.453125 C 7.796875 -8.148438 8.203125 -7.082031 9.015625 -6.25 C 9.828125 -5.425781 10.894531 -5.015625 12.21875 -5.015625 C 13.5 -5.015625 14.550781 -5.429688 15.375 -6.265625 C 16.195312 -7.109375 16.609375 -8.171875 16.609375 -9.453125 C 16.609375 -10.753906 16.179688 -11.820312 15.328125 -12.65625 C 14.484375 -13.5 13.445312 -13.921875 12.21875 -13.921875 C 10.96875 -13.921875 9.914062 -13.5 9.0625 -12.65625 Z M 9.0625 -12.65625 "/>
      </g>
    </g>
  </g>
  <g fill="#00a6ff" fill-opacity="1" transform="matrix(1, 0, 0, 1, 364.656378, 32.67257)">
    <g transform="translate(244.074342, 319.462798)">
      <g>
        <path d="M 2.21875 0 L 2.21875 -18.9375 L 8.75 -18.9375 L 8.75 -16.953125 L 8.828125 -16.953125 C 10.523438 -18.648438 12.332031 -19.5 14.25 -19.5 C 15.625 -19.5 16.914062 -19.210938 18.125 -18.640625 C 19.332031 -18.078125 20.242188 -17.207031 20.859375 -16.03125 C 22.773438 -18.34375 24.867188 -19.5 27.140625 -19.5 C 29.160156 -19.5 30.894531 -18.929688 32.34375 -17.796875 C 33.789062 -16.660156 34.515625 -14.890625 34.515625 -12.484375 L 34.515625 0 L 27.984375 0 L 27.984375 -10.703125 C 27.984375 -11.710938 27.707031 -12.554688 27.15625 -13.234375 C 26.601562 -13.910156 25.769531 -14.25 24.65625 -14.25 C 23.695312 -14.25 22.960938 -13.957031 22.453125 -13.375 C 21.953125 -12.800781 21.679688 -12.109375 21.640625 -11.296875 L 21.640625 0 L 15.09375 0 L 15.09375 -10.703125 C 15.09375 -11.710938 14.816406 -12.554688 14.265625 -13.234375 C 13.710938 -13.910156 12.882812 -14.25 11.78125 -14.25 C 10.769531 -14.25 10.007812 -13.9375 9.5 -13.3125 C 9 -12.6875 8.75 -11.941406 8.75 -11.078125 L 8.75 0 Z M 2.21875 0 "/>
      </g>
    </g>
  </g>
  <g fill="#00a6ff" fill-opacity="1" transform="matrix(1, 0, 0, 1, 364.656378, 32.67257)">
    <g transform="translate(280.448477, 319.462798)">
      <g>
        <path d="M 2.84375 -29.5 C 3.601562 -30.257812 4.507812 -30.640625 5.5625 -30.640625 C 6.625 -30.640625 7.535156 -30.257812 8.296875 -29.5 C 9.066406 -28.738281 9.453125 -27.828125 9.453125 -26.765625 C 9.453125 -25.710938 9.066406 -24.800781 8.296875 -24.03125 C 7.535156 -23.269531 6.625 -22.890625 5.5625 -22.890625 C 4.507812 -22.890625 3.601562 -23.269531 2.84375 -24.03125 C 2.082031 -24.800781 1.703125 -25.710938 1.703125 -26.765625 C 1.703125 -27.828125 2.082031 -28.738281 2.84375 -29.5 Z M 2.21875 -18.9375 L 2.21875 0 L 8.75 0 L 8.75 -18.9375 Z M 2.21875 -18.9375 "/>
      </g>
    </g>
  </g>
  <g fill="#00a6ff" fill-opacity="1" transform="matrix(1, 0, 0, 1, 364.656378, 32.67257)">
    <g transform="translate(291.600748, 319.462798)">
      <g>
        <path d="M 2.21875 0 L 2.21875 -31.75 L 8.75 -31.75 L 8.75 0 Z M 2.21875 0 "/>
      </g>
    </g>
  </g>
  <g fill="#00a6ff" fill-opacity="1" transform="matrix(1, 0, 0, 1, 364.656378, 32.67257)">
    <g transform="translate(302.568376, 319.462798)">
      <g>
        <path d="M 2.84375 -29.5 C 3.601562 -30.257812 4.507812 -30.640625 5.5625 -30.640625 C 6.625 -30.640625 7.535156 -30.257812 8.296875 -29.5 C 9.066406 -28.738281 9.453125 -27.828125 9.453125 -26.765625 C 9.453125 -25.710938 9.066406 -24.800781 8.296875 -24.03125 C 7.535156 -23.269531 6.625 -22.890625 5.5625 -22.890625 C 4.507812 -22.890625 3.601562 -23.269531 2.84375 -24.03125 C 2.082031 -24.800781 1.703125 -25.710938 1.703125 -26.765625 C 1.703125 -27.828125 2.082031 -28.738281 2.84375 -29.5 Z M 2.21875 -18.9375 L 2.21875 0 L 8.75 0 L 8.75 -18.9375 Z M 2.21875 -18.9375 "/>
      </g>
    </g>
  </g>
  <g fill="#00a6ff" fill-opacity="1" transform="matrix(1, 0, 0, 1, 364.656378, 32.67257)">
    <g transform="translate(313.720647, 319.462798)">
      <g>
        <path d="M 3.5 -2.34375 C 1.726562 -4.28125 0.84375 -6.648438 0.84375 -9.453125 C 0.84375 -12.253906 1.726562 -14.628906 3.5 -16.578125 C 5.28125 -18.523438 7.535156 -19.5 10.265625 -19.5 C 12.773438 -19.5 14.84375 -18.707031 16.46875 -17.125 L 16.46875 -18.9375 L 23 -18.9375 L 23 0 L 16.546875 0 L 16.546875 -2.140625 L 16.46875 -2.140625 C 14.84375 -0.347656 12.773438 0.546875 10.265625 0.546875 C 7.535156 0.546875 5.28125 -0.414062 3.5 -2.34375 Z M 9.0625 -12.65625 C 8.21875 -11.820312 7.796875 -10.753906 7.796875 -9.453125 C 7.796875 -8.148438 8.203125 -7.082031 9.015625 -6.25 C 9.828125 -5.425781 10.894531 -5.015625 12.21875 -5.015625 C 13.5 -5.015625 14.550781 -5.429688 15.375 -6.265625 C 16.195312 -7.109375 16.609375 -8.171875 16.609375 -9.453125 C 16.609375 -10.753906 16.179688 -11.820312 15.328125 -12.65625 C 14.484375 -13.5 13.445312 -13.921875 12.21875 -13.921875 C 10.96875 -13.921875 9.914062 -13.5 9.0625 -12.65625 Z M 9.0625 -12.65625 "/>
      </g>
    </g>
  </g>
  <g fill="#00a6ff" fill-opacity="1" transform="matrix(1, 0, 0, 1, 364.656378, 32.67257)">
    <g transform="translate(338.942511, 319.462798)">
      <g>
        <path d="M 2.21875 0 L 2.21875 -18.9375 L 8.75 -18.9375 L 8.75 -16.203125 L 8.828125 -16.203125 C 8.867188 -16.304688 8.945312 -16.429688 9.0625 -16.578125 C 9.175781 -16.722656 9.414062 -16.976562 9.78125 -17.34375 C 10.15625 -17.71875 10.550781 -18.050781 10.96875 -18.34375 C 11.382812 -18.644531 11.925781 -18.910156 12.59375 -19.140625 C 13.257812 -19.378906 13.9375 -19.5 14.625 -19.5 C 15.332031 -19.5 16.03125 -19.398438 16.71875 -19.203125 C 17.414062 -19.003906 17.921875 -18.804688 18.234375 -18.609375 L 18.75 -18.3125 L 16.03125 -12.78125 C 15.21875 -13.46875 14.082031 -13.8125 12.625 -13.8125 C 11.84375 -13.8125 11.164062 -13.640625 10.59375 -13.296875 C 10.03125 -12.953125 9.628906 -12.53125 9.390625 -12.03125 C 9.160156 -11.539062 8.992188 -11.125 8.890625 -10.78125 C 8.796875 -10.4375 8.75 -10.164062 8.75 -9.96875 L 8.75 0 Z M 2.21875 0 "/>
      </g>
    </g>
  </g>
</svg>