<?xml version="1.0" encoding="utf-8"?>
<svg viewBox="355.887 39.649 405.68 411.186" xmlns="http://www.w3.org/2000/svg">
  <defs>
    <clipPath id="6b6c57d8e3">
      <path d="M 87.226562 75.59375 L 487.828125 75.59375 L 487.828125 476.195312 L 87.226562 476.195312 Z M 87.226562 75.59375 " clip-rule="nonzero"/>
    </clipPath>
    <clipPath id="74e9c86062">
      <path d="M 176.636719 303 L 300.820312 303 L 300.820312 418 L 176.636719 418 Z M 176.636719 303 " clip-rule="nonzero"/>
    </clipPath>
    <clipPath id="fed417e75d">
      <path d="M 201.421875 98 L 399.96875 98 L 399.96875 251 L 201.421875 251 Z M 201.421875 98 " clip-rule="nonzero"/>
    </clipPath>
    <clipPath id="e97bb5d216">
      <path d="M 92 289 L 169 289 L 169 299.011719 L 92 299.011719 Z M 92 289 " clip-rule="nonzero"/>
    </clipPath>
    <clipPath id="d2f4859914">
      <path d="M 88 282.738281 L 162 282.738281 L 162 293 L 88 293 Z M 88 282.738281 " clip-rule="nonzero"/>
    </clipPath>
    <clipPath id="341923e2fb">
      <path d="M 122 282.738281 L 163 282.738281 L 163 294 L 122 294 Z M 122 282.738281 " clip-rule="nonzero"/>
    </clipPath>
    <clipPath id="31f1ee3cef">
      <path d="M 95.039062 203.148438 L 153.375 203.148438 L 153.375 299.042969 L 95.039062 299.042969 Z M 95.039062 203.148438 " clip-rule="nonzero"/>
    </clipPath>
    <clipPath id="c0e54b78a6">
      <path d="M 313.105469 297 L 457.574219 297 L 457.574219 449.164062 L 313.105469 449.164062 Z M 313.105469 297 " clip-rule="nonzero"/>
    </clipPath>
  </defs>
  <g clip-path="url(#6b6c57d8e3)" transform="matrix(1, 0, 0, 1, 273.739079, -35.944268)">
    <path fill="#d5ecf1" d="M 287.527344 75.59375 C 176.902344 75.59375 87.226562 165.269531 87.226562 275.894531 C 87.226562 386.515625 176.902344 476.195312 287.527344 476.195312 C 398.148438 476.195312 487.828125 386.515625 487.828125 275.894531 C 487.828125 165.269531 398.148438 75.59375 287.527344 75.59375 " fill-opacity="1" fill-rule="nonzero"/>
  </g>
  <g clip-path="url(#74e9c86062)" transform="matrix(1, 0, 0, 1, 273.739079, -35.944268)">
    <path fill="#a8ced6" d="M 182.511719 308.074219 L 294.921875 308.074219 C 295.472656 308.074219 295.914062 308.5 295.914062 309.050781 L 295.914062 384.988281 C 295.914062 385.527344 295.472656 385.957031 294.921875 385.957031 L 182.511719 385.957031 C 181.972656 385.957031 181.53125 385.527344 181.53125 384.988281 L 181.53125 309.050781 C 181.53125 308.5 181.972656 308.074219 182.511719 308.074219 Z M 179.09375 303.1875 C 177.738281 303.1875 176.636719 304.277344 176.636719 305.628906 L 176.636719 388.417969 C 176.636719 389.773438 177.738281 390.863281 179.082031 390.863281 C 179.09375 390.863281 179.09375 390.863281 179.09375 390.863281 L 226.304688 390.863281 C 227.660156 390.863281 228.761719 391.964844 228.761719 393.316406 L 228.761719 397.761719 C 228.761719 405.871094 222.167969 412.453125 214.042969 412.453125 L 212.886719 412.453125 L 212.886719 417.46875 L 264.570312 417.46875 L 264.570312 412.453125 L 263.414062 412.453125 C 255.289062 412.453125 248.695312 405.871094 248.695312 397.761719 L 248.695312 393.316406 C 248.695312 391.964844 249.796875 390.863281 251.152344 390.863281 L 298.375 390.863281 C 299.71875 390.863281 300.820312 389.773438 300.820312 388.417969 L 300.820312 305.628906 C 300.820312 304.277344 299.71875 303.1875 298.375 303.1875 L 179.09375 303.1875 " fill-opacity="1" fill-rule="nonzero"/>
  </g>
  <path fill="#a8ced6" d="M 471.497 332.165 C 470.716 332.173 470.098 332.814 470.11 333.595 C 470.122 334.353 470.739 334.97 471.497 334.982 L 497.255 334.982 C 498.036 334.97 498.653 334.329 498.641 333.56 C 498.63 332.79 498.012 332.173 497.255 332.165 L 471.497 332.165" fill-opacity="1" fill-rule="nonzero"/>
  <path fill="#a8ced6" d="M 471.497 326.212 C 470.716 326.22 470.098 326.861 470.11 327.642 C 470.122 328.4 470.739 329.017 471.497 329.029 L 497.255 329.029 C 498.036 329.017 498.653 328.38 498.641 327.607 C 498.63 326.837 498.012 326.22 497.255 326.212 L 471.497 326.212" fill-opacity="1" fill-rule="nonzero"/>
  <path fill="#a8ced6" d="M 485.786 283.22 L 485.786 300.255 L 500.559 308.759 C 504.817 299.837 501.036 289.161 492.094 284.915 C 490.11 283.97 487.969 283.396 485.786 283.22" fill-opacity="1" fill-rule="nonzero"/>
  <path fill="#a8ced6" d="M 482.966 283.22 L 482.966 301.872 L 499.149 311.2 C 493.536 319.345 482.38 321.404 474.223 315.802 C 466.063 310.2 463.989 299.064 469.602 290.923 C 472.669 286.478 477.575 283.65 482.966 283.22" fill-opacity="1" fill-rule="nonzero"/>
  <path fill="#a8ced6" d="M 538.012 305.435 L 531.86 295.708 C 531.032 294.388 529.294 294.005 527.969 294.829 C 527.716 294.982 527.493 295.181 527.305 295.411 L 519.368 304.95 L 517.184 303.146 L 525.134 293.607 C 527.13 291.22 530.692 290.888 533.083 292.88 C 533.536 293.255 533.934 293.708 534.255 294.2 L 540.407 303.927 C 541.243 305.247 542.973 305.646 544.298 304.81 C 544.594 304.622 544.848 304.392 545.048 304.114 L 554.176 291.947 L 552.821 290.935 L 557.977 289.216 L 557.782 294.654 L 556.434 293.642 L 547.305 305.798 C 545.442 308.298 541.903 308.802 539.411 306.943 C 538.86 306.525 538.387 306.021 538.024 305.435 L 538.012 305.435" fill-opacity="1" fill-rule="nonzero"/>
  <path fill="#a8ced6" d="M 551.509 304.654 L 556.887 304.654 L 556.887 330.204 L 551.509 330.204 L 551.509 304.654" fill-opacity="1" fill-rule="nonzero"/>
  <path fill="#a8ced6" d="M 539.04 330.204 L 539.04 315.669 L 544.43 315.669 L 544.43 330.204 L 539.04 330.204" fill-opacity="1" fill-rule="nonzero"/>
  <path fill="#a8ced6" d="M 526.567 330.204 L 526.567 301.431 L 531.962 301.431 L 531.962 330.204 L 526.567 330.204" fill-opacity="1" fill-rule="nonzero"/>
  <path fill="#a8ced6" d="M 519.489 330.204 L 514.11 330.204 L 514.11 309.54 L 519.489 309.54 L 519.489 330.204" fill-opacity="1" fill-rule="nonzero"/>
  <g clip-path="url(#fed417e75d)" transform="matrix(1, 0, 0, 1, 273.739079, -35.944268)">
    <path fill="#6a95b8" d="M 212.582031 102.636719 C 208.878906 102.636719 205.882812 105.636719 205.882812 109.320312 L 205.882812 239.527344 C 205.882812 243.214844 208.878906 246.230469 212.582031 246.230469 L 388.832031 246.230469 C 392.496094 246.230469 395.511719 243.214844 395.511719 239.527344 L 395.511719 109.320312 C 395.511719 105.636719 392.496094 102.636719 388.832031 102.636719 Z M 388.832031 250.691406 L 212.582031 250.691406 C 206.429688 250.691406 201.421875 245.683594 201.421875 239.527344 L 201.421875 109.320312 C 201.421875 103.183594 206.429688 98.175781 212.582031 98.175781 L 388.832031 98.175781 C 394.964844 98.175781 399.96875 103.183594 399.96875 109.320312 L 399.96875 239.527344 C 399.96875 245.683594 394.964844 250.691406 388.832031 250.691406 " fill-opacity="1" fill-rule="nonzero"/>
  </g>
  <path fill="#6a95b8" d="M 649.93 191.943 L 649.93 166.138 L 606.536 158.341 L 562.466 180.529 L 522.188 176.157 L 492.137 191.943" fill-opacity="1" fill-rule="nonzero"/>
  <path fill="#6a95b8" d="M 626.981 111.493 L 647.305 91.157 C 646.954 90.575 646.583 90.009 646.196 89.462 L 625.36 110.329 L 626.981 111.493" fill-opacity="1" fill-rule="nonzero"/>
  <path fill="#6a95b8" d="M 623.528 108.989 L 644.837 87.646 C 644.415 87.134 643.989 86.642 643.551 86.165 L 621.923 107.806 L 623.528 108.989" fill-opacity="1" fill-rule="nonzero"/>
  <path fill="#6a95b8" d="M 620.301 100.275 L 638.739 81.825 C 638.208 81.439 637.665 81.052 637.098 80.681 L 620.301 97.489 L 620.301 100.275" fill-opacity="1" fill-rule="nonzero"/>
  <path fill="#6a95b8" d="M 620.301 94.298 L 635.106 79.497 C 634.509 79.161 633.891 78.845 633.255 78.544 L 620.301 91.509 L 620.301 94.298" fill-opacity="1" fill-rule="nonzero"/>
  <path fill="#6a95b8" d="M 620.301 88.333 L 631.036 77.595 C 630.364 77.329 629.676 77.099 628.973 76.868 L 620.301 85.548 L 620.301 88.333" fill-opacity="1" fill-rule="nonzero"/>
  <path fill="#6a95b8" d="M 620.301 82.372 L 626.469 76.181 C 625.696 76.005 624.919 75.864 624.141 75.759 L 620.301 79.587 L 620.301 82.372" fill-opacity="1" fill-rule="nonzero"/>
  <path fill="#6a95b8" d="M 620.301 106.239 L 641.981 84.544 C 641.489 84.103 641.012 83.642 640.52 83.22 L 620.301 103.45 L 620.301 106.239" fill-opacity="1" fill-rule="nonzero"/>
  <path fill="#6a95b8" d="M 630.419 114.017 L 649.368 95.056 C 649.087 94.419 648.786 93.786 648.469 93.185 L 628.813 112.853 L 630.419 114.017" fill-opacity="1" fill-rule="nonzero"/>
  <path fill="#6a95b8" d="M 637.309 119.06 L 651.958 104.423 C 651.852 103.611 651.747 102.798 651.571 102.005 L 635.723 117.88 L 637.309 119.06" fill-opacity="1" fill-rule="nonzero"/>
  <path fill="#6a95b8" d="M 633.856 116.54 L 650.954 99.447 C 650.743 98.724 650.532 98.017 650.282 97.329 L 632.27 115.376 L 633.856 116.54" fill-opacity="1" fill-rule="nonzero"/>
  <path fill="#6a95b8" d="M 644.219 124.107 L 650.989 117.314 C 651.325 116.15 651.587 114.97 651.782 113.751 L 642.598 122.943 L 644.219 124.107" fill-opacity="1" fill-rule="nonzero"/>
  <path fill="#6a95b8" d="M 640.766 121.583 L 652.153 110.189 C 652.188 109.607 652.204 109.025 652.204 108.443 C 652.204 108.091 652.188 107.736 652.169 107.384 L 639.161 120.419 L 640.766 121.583" fill-opacity="1" fill-rule="nonzero"/>
  <path fill="#6a95b8" d="M 647.04 126.169 C 647.817 124.95 648.52 123.681 649.122 122.376 L 646.051 125.447 L 647.04 126.169" fill-opacity="1" fill-rule="nonzero"/>
  <path fill="#6a95b8" d="M 619.102 141.443 C 600.86 141.443 586.036 126.611 586.036 108.353 C 586.036 90.54 600.188 75.954 617.852 75.302 L 617.852 108.036 L 617.868 108.036 L 645.509 128.251 C 639.462 136.259 629.872 141.443 619.102 141.443" fill-opacity="1" fill-rule="nonzero"/>
  <path fill="#6a95b8" d="M 500.313 112.165 L 559.223 112.165 L 559.223 121.654 L 500.313 121.654 L 500.313 112.165" fill-opacity="1" fill-rule="nonzero"/>
  <path fill="#6a95b8" d="M 500.313 126.911 L 544.981 126.911 L 544.981 136.4 L 500.313 136.4 L 500.313 126.911" fill-opacity="1" fill-rule="nonzero"/>
  <path fill="#6a95b8" d="M 500.313 82.036 L 549.051 82.036 L 549.051 91.529 L 500.313 91.529 L 500.313 82.036" fill-opacity="1" fill-rule="nonzero"/>
  <path fill="#6a95b8" d="M 500.313 96.782 L 544.981 96.782 L 544.981 106.275 L 500.313 106.275 L 500.313 96.782" fill-opacity="1" fill-rule="nonzero"/>
  <path fill="#b8e1f1" d="M 440.637 253.9 C 437.661 251.525 420.755 249.497 405.528 248.818 C 393.173 248.263 378.825 248.638 369.11 250.13 C 342.536 254.212 358.524 262.146 394.766 262.611 C 423.532 262.978 446.493 258.572 440.637 253.9 Z M 440.637 253.9" fill-opacity="1" fill-rule="nonzero"/>
  <g clip-path="url(#e97bb5d216)" transform="matrix(1, 0, 0, 1, 273.739079, -35.944268)">
    <path fill="#414370" d="M 124.480469 299.09375 C 123.335938 299.09375 122.183594 299.085938 121.019531 299.070312 C 109.945312 298.929688 99.878906 298.054688 92.667969 296.609375 C 92.386719 296.554688 92.207031 296.28125 92.261719 296 C 92.320312 295.722656 92.589844 295.542969 92.871094 295.597656 C 100.019531 297.03125 110.023438 297.898438 121.03125 298.039062 C 146.792969 298.367188 166.070312 294.890625 167.257812 291.5625 C 167.308594 291.414062 167.472656 290.960938 166.578125 290.246094 C 166.355469 290.066406 166.320312 289.742188 166.496094 289.519531 C 166.675781 289.296875 167 289.261719 167.222656 289.4375 C 168.4375 290.410156 168.4375 291.320312 168.226562 291.910156 C 166.753906 296.042969 147.835938 299.09375 124.480469 299.09375 Z M 124.480469 299.09375 " fill-opacity="1" fill-rule="nonzero"/>
  </g>
  <g clip-path="url(#d2f4859914)" transform="matrix(1, 0, 0, 1, 273.739079, -35.944268)">
    <path fill="#f08486" d="M 94.300781 246.953125 C 99.398438 256.160156 108.019531 263.039062 113.59375 271.820312 C 118.464844 279.488281 120.941406 283.214844 123.101562 291.324219 C 123.128906 291.542969 123.386719 292.066406 123.394531 292.085938 C 123.71875 292.546875 124.265625 292.796875 124.847656 292.824219 C 124.894531 292.828125 124.9375 292.828125 124.984375 292.828125 C 125.027344 292.828125 125.074219 292.828125 125.117188 292.824219 C 125.699219 292.796875 126.238281 292.542969 126.570312 292.085938 C 126.582031 292.066406 126.839844 291.542969 126.867188 291.324219 C 129.027344 283.214844 131.5 279.492188 136.371094 271.820312 C 141.945312 263.039062 150.566406 256.160156 155.667969 246.953125 C 165.882812 228.511719 165.695312 197.0625 136.6875 192.035156 C 132.613281 191.328125 128.761719 190.929688 124.984375 190.929688 C 121.207031 190.929688 117.355469 191.328125 113.28125 192.035156 C 84.269531 197.0625 84.082031 228.511719 94.300781 246.953125 Z M 94.300781 246.953125 " fill-opacity="1" fill-rule="nonzero"/>
  </g>
  <g clip-path="url(#341923e2fb)" transform="matrix(1, 0, 0, 1, 273.739079, -35.944268)">
    <path fill="#414370" d="M 125.011719 293.34375 C 125.011719 293.34375 124.957031 293.34375 124.953125 293.34375 C 124.90625 293.34375 124.859375 293.34375 124.808594 293.339844 C 124.046875 293.304688 123.375 292.953125 122.972656 292.378906 C 122.953125 292.351562 122.632812 291.742188 122.589844 291.390625 C 122.550781 291.109375 122.75 290.851562 123.03125 290.8125 C 123.316406 290.773438 123.574219 290.972656 123.609375 291.253906 C 123.628906 291.351562 123.765625 291.671875 123.839844 291.820312 C 124.042969 292.101562 124.421875 292.289062 124.871094 292.308594 C 124.910156 292.3125 124.933594 292.3125 124.957031 292.3125 L 125.011719 292.828125 L 125.007812 292.3125 C 125.011719 292.3125 125.019531 292.3125 125.023438 292.3125 C 125.042969 292.3125 125.0625 292.3125 125.078125 292.308594 C 125.523438 292.289062 125.902344 292.105469 126.132812 291.808594 C 126.199219 291.675781 126.339844 291.355469 126.355469 291.253906 C 126.359375 291.238281 126.363281 291.207031 126.367188 291.191406 C 128.472656 283.285156 130.945312 279.394531 135.4375 272.328125 L 135.933594 271.542969 C 138.515625 267.480469 141.78125 263.773438 144.941406 260.1875 C 148.648438 255.984375 152.480469 251.636719 155.214844 246.703125 C 161.296875 235.726562 162.972656 221.832031 159.484375 211.308594 C 159.394531 211.039062 159.539062 210.746094 159.8125 210.65625 C 160.082031 210.566406 160.375 210.714844 160.464844 210.984375 C 164.035156 221.769531 162.332031 235.988281 156.117188 247.203125 C 153.328125 252.238281 149.457031 256.625 145.714844 260.871094 C 142.582031 264.425781 139.339844 268.101562 136.804688 272.09375 L 136.304688 272.882812 C 131.730469 280.082031 129.433594 283.699219 127.371094 291.433594 C 127.3125 291.742188 127.050781 292.300781 126.984375 292.394531 C 126.570312 292.957031 125.898438 293.304688 125.140625 293.339844 C 125.109375 293.34375 125.058594 293.34375 125.011719 293.34375 Z M 125.011719 293.34375 " fill-opacity="1" fill-rule="nonzero"/>
  </g>
  <g clip-path="url(#31f1ee3cef)" transform="matrix(1, 0, 0, 1, 273.739079, -35.944268)">
    <path fill="#8ed2e8" d="M 124.0625 203.164062 C 107.574219 203.164062 95.140625 216.574219 95.140625 234.367188 C 95.140625 242.074219 118.144531 288.21875 124.019531 299.0625 C 134.855469 279.304688 153.273438 243.40625 153.273438 234.367188 C 153.273438 216.574219 140.714844 203.164062 124.0625 203.164062 Z M 127.625 265.914062 C 125.738281 267.804688 122.675781 267.804688 120.789062 265.914062 C 118.894531 264.023438 118.894531 260.960938 120.789062 259.066406 C 122.675781 257.175781 125.738281 257.175781 127.625 259.066406 C 129.515625 260.957031 129.515625 264.023438 127.625 265.914062 Z M 135.972656 238.390625 L 129.4375 238.390625 L 129.4375 244.9375 C 129.4375 247.589844 127.097656 249.746094 124.207031 249.746094 C 121.320312 249.746094 118.972656 247.589844 118.972656 244.9375 L 118.972656 238.390625 L 112.441406 238.390625 C 109.785156 238.390625 107.636719 236.046875 107.636719 233.152344 C 107.636719 230.261719 109.785156 227.917969 112.441406 227.917969 L 118.972656 227.917969 L 118.972656 221.371094 C 118.972656 218.714844 121.320312 216.5625 124.207031 216.5625 C 127.097656 216.5625 129.4375 218.714844 129.4375 221.371094 L 129.4375 227.917969 L 135.972656 227.917969 C 138.628906 227.917969 140.78125 230.261719 140.78125 233.152344 C 140.78125 236.046875 138.628906 238.390625 135.972656 238.390625 Z M 135.972656 238.390625 " fill-opacity="1" fill-rule="nonzero"/>
  </g>
  <g clip-path="url(#c0e54b78a6)" transform="matrix(1, 0, 0, 1, 273.739079, -35.944268)">
    <path fill="#a8ced6" d="M 368.394531 431.371094 L 359.96875 407.90625 L 358.554688 406.703125 C 359.410156 407.363281 359.96875 407.90625 359.96875 407.90625 C 358.886719 404.992188 356.167969 403.007812 353.0625 402.863281 L 322.808594 401.480469 C 320.121094 401.355469 317.449219 402.222656 315.441406 404.015625 C 311.5625 407.476562 313.6875 410.941406 313.6875 410.941406 L 324.566406 414.164062 C 324.644531 414.476562 324.734375 414.789062 324.847656 415.101562 L 334.253906 441.253906 L 359.003906 443.296875 C 363.878906 443.699219 368.464844 445.773438 371.992188 449.164062 L 371.464844 444.546875 C 370.953125 440.050781 369.921875 435.628906 368.394531 431.371094 Z M 457.542969 444.5 L 384.144531 444.5 C 384.144531 444.5 384.304688 438.390625 384.5625 429.574219 L 381.585938 420.769531 L 384.875 419.367188 C 385.09375 412.417969 385.351562 404.78125 385.625 397.496094 C 385.929688 389.441406 387.386719 380.277344 389.226562 371.679688 L 384.789062 378.632812 L 378.273438 356.855469 L 378.40625 364.304688 L 349.679688 364.304688 L 343.542969 297.125 L 371.875 300.785156 L 376.144531 345.644531 L 382.976562 337.644531 L 392.179688 359.425781 C 394.660156 350.148438 397.140625 342.972656 398.234375 340.960938 C 400.671875 336.476562 406 335.757812 406 335.757812 L 411.054688 335.558594 C 411.429688 334.429688 411.652344 333.796875 411.652344 333.796875 L 418.332031 331.09375 C 431.535156 325.75 446.601562 331.539062 452.886719 344.335938 C 453.207031 344.984375 453.519531 345.644531 453.832031 346.304688 C 456.851562 352.753906 452.699219 382.261719 455.375 405.050781 C 458.089844 428.15625 457.542969 444.5 457.542969 444.5 " fill-opacity="1" fill-rule="nonzero"/>
  </g>
  <path fill="#15253d" d="M 673.688 275.181 C 673.598 275.095 673.477 275.048 673.356 275.048 C 673.219 275.048 673.091 275.107 673.001 275.204 C 672.458 275.782 671.528 275.907 670.841 275.907 C 670.176 275.907 669.645 275.794 669.641 275.794 C 669.606 275.786 669.571 275.782 669.536 275.782 C 669.309 275.782 669.11 275.943 669.059 276.165 C 669.005 276.427 669.173 276.689 669.434 276.747 C 669.497 276.759 670.075 276.88 670.825 276.88 C 671.708 276.88 672.93 276.704 673.712 275.872 C 673.801 275.775 673.848 275.65 673.844 275.521 C 673.837 275.392 673.782 275.271 673.688 275.181 Z M 671.446 263.228 C 671.473 263.228 671.497 263.224 671.524 263.22 C 671.911 263.146 672.184 262.548 672.145 261.857 C 672.11 261.212 671.809 260.728 671.446 260.728 C 671.419 260.728 671.395 260.732 671.368 260.736 C 670.981 260.81 670.708 261.411 670.747 262.099 C 670.782 262.743 671.083 263.228 671.446 263.228 Z M 628.118 368.611 C 630.794 368.837 633.36 372.177 633.387 372.208 C 633.52 372.388 633.774 372.423 633.954 372.286 C 634.134 372.15 634.169 371.896 634.032 371.716 C 633.919 371.568 631.227 368.06 628.188 367.798 C 627.024 367.7 625.969 368.087 625.051 368.947 C 621.673 372.114 620.462 381.931 620.219 384.282 L 598.419 377.829 C 598.204 377.767 597.977 377.888 597.915 378.103 C 597.852 378.318 597.973 378.544 598.188 378.611 L 620.462 385.2 C 620.497 385.212 620.536 385.22 620.575 385.22 C 620.653 385.22 620.735 385.197 620.805 385.15 C 620.907 385.079 620.969 384.97 620.981 384.849 C 620.989 384.728 622.063 372.861 625.606 369.54 C 626.36 368.837 627.18 368.529 628.118 368.611 Z M 646.868 384.415 C 643.981 383.833 638.11 382.478 638.051 382.462 C 637.837 382.415 637.614 382.552 637.567 382.771 C 637.512 382.989 637.649 383.204 637.868 383.255 C 637.926 383.271 643.813 384.63 646.708 385.212 C 646.735 385.216 646.762 385.22 646.79 385.22 C 646.977 385.22 647.149 385.083 647.188 384.892 C 647.231 384.673 647.091 384.458 646.868 384.415 Z M 637.044 393.419 C 637.266 393.415 637.446 393.236 637.446 393.009 C 637.446 392.786 637.262 392.607 637.04 392.607 C 636.993 392.599 636.938 392.607 636.887 392.607 C 630.844 392.607 627.055 390.29 627.02 390.267 C 626.829 390.15 626.579 390.208 626.458 390.4 C 626.341 390.587 626.399 390.837 626.587 390.958 C 626.751 391.06 630.594 393.419 636.884 393.419 C 636.938 393.419 636.989 393.419 637.044 393.419 Z M 638.634 387.931 C 634.02 387.376 628.219 385.29 628.161 385.271 C 627.95 385.193 627.716 385.302 627.641 385.513 C 627.563 385.724 627.673 385.958 627.884 386.036 C 627.942 386.056 633.833 388.173 638.536 388.739 C 638.551 388.743 638.567 388.743 638.583 388.743 C 638.786 388.743 638.962 388.591 638.985 388.384 C 639.012 388.161 638.856 387.958 638.634 387.931 Z M 637.372 396.548 C 634.958 396.548 628.153 394.068 628.083 394.044 C 627.876 393.966 627.641 394.075 627.563 394.286 C 627.485 394.497 627.594 394.732 627.805 394.806 C 628.091 394.911 634.813 397.364 637.372 397.364 C 637.594 397.364 637.778 397.181 637.778 396.958 C 637.778 396.732 637.594 396.548 637.372 396.548 Z M 689.548 331.443 L 687.977 340.228 L 681.977 341.857 C 680.969 342.13 679.899 341.732 679.317 340.861 L 678.426 339.529 C 678.301 339.341 678.048 339.29 677.86 339.415 C 677.676 339.54 677.626 339.794 677.751 339.982 L 678.641 341.314 C 679.255 342.232 680.274 342.755 681.337 342.755 C 681.622 342.755 681.907 342.72 682.188 342.642 L 688.438 340.947 C 688.591 340.904 688.704 340.779 688.731 340.626 L 690.348 331.587 C 690.387 331.364 690.243 331.154 690.02 331.114 C 689.798 331.075 689.591 331.224 689.548 331.443 Z M 701.063 370.189 C 701.262 370.302 701.509 370.228 701.618 370.032 C 701.727 369.837 701.657 369.591 701.458 369.482 C 698.837 368.021 695.141 367.958 694.157 367.974 C 693.692 367.138 693.583 366.419 693.844 365.841 C 694.36 364.677 696.173 364.325 696.188 364.325 C 696.192 364.322 696.196 364.322 696.2 364.322 C 696.223 364.318 698.704 363.833 702.161 365.759 C 702.356 365.868 702.606 365.794 702.716 365.599 C 702.825 365.404 702.755 365.157 702.555 365.048 C 699.68 363.447 697.438 363.392 696.505 363.466 C 695.911 348.056 695.774 309.161 701.958 307.095 C 702.173 307.025 702.286 306.794 702.216 306.579 C 702.145 306.368 701.915 306.255 701.704 306.325 C 698.247 307.478 696.192 317.56 695.602 336.294 C 695.204 348.919 695.618 361.423 695.696 363.607 C 695.04 363.79 693.637 364.31 693.102 365.505 C 692.755 366.286 692.837 367.189 693.352 368.189 L 671.169 377.638 C 672.344 362.665 673.626 346.849 674.188 341.798 C 676.032 325.22 684.485 300.482 685.325 298.048 L 686.833 297.568 L 689.466 302.372 L 712.391 295.146 L 708.794 284.736 C 708.794 284.736 707.18 284.954 704.809 285.298 C 698.719 286.177 687.594 284.364 686.137 285.142 C 685.606 285.427 681.704 290.005 681.704 290.005 C 681.704 290.005 679.368 290.743 678.309 292.208 C 677.255 293.673 676.036 298.634 676.036 298.634 L 678.868 298.228 L 679.739 299.814 C 679.739 299.814 657.04 332.29 657.848 340.673 C 658.661 349.056 662.387 356.782 662.387 356.782 L 663.149 381.052 L 655.169 384.45 C 654.962 384.54 654.864 384.779 654.954 384.986 C 655.016 385.142 655.169 385.232 655.325 385.232 C 655.38 385.232 655.434 385.22 655.485 385.2 L 694.016 368.79 C 694.591 368.779 698.469 368.747 701.063 370.189 Z M 706.79 303.501 C 706.567 303.532 706.411 303.736 706.442 303.958 C 706.473 304.181 706.676 304.341 706.899 304.31 C 706.973 304.298 714.571 303.322 719.868 307.767 C 723.059 310.443 724.79 314.536 725.009 319.931 C 725.016 320.15 725.196 320.322 725.415 320.322 C 725.419 320.322 725.426 320.322 725.43 320.322 C 725.657 320.31 725.829 320.122 725.821 319.896 C 725.591 314.263 723.762 309.974 720.391 307.142 C 714.821 302.47 707.114 303.458 706.79 303.501 Z M 727.969 332.986 C 727.751 332.95 727.54 333.099 727.505 333.322 C 727.493 333.368 726.747 337.736 725.149 340.431 C 725.571 332.669 725.794 326.868 725.821 326.181 C 725.829 325.958 725.653 325.767 725.43 325.759 C 725.212 325.747 725.016 325.927 725.009 326.15 C 724.989 326.661 723.036 377.165 719.426 385.243 C 715.876 393.193 661.973 402.583 661.43 402.677 C 661.208 402.716 661.059 402.927 661.098 403.15 C 661.134 403.345 661.305 403.486 661.497 403.486 C 661.52 403.486 661.544 403.482 661.567 403.478 C 661.801 403.439 662.602 403.298 663.841 403.075 L 664.012 408.556 L 668.794 408.556 C 668.794 408.556 668.977 406.068 669.286 402.056 C 684.571 399.103 717.259 392.087 720.169 385.575 C 722.555 380.239 724.188 357.697 725.067 341.954 C 727.298 339.357 728.262 333.697 728.305 333.454 C 728.341 333.232 728.192 333.025 727.969 332.986 Z M 690.012 328.204 L 679.18 326.509 C 678.958 326.474 678.751 326.626 678.716 326.849 C 678.68 327.072 678.833 327.279 679.051 327.314 L 689.887 329.009 C 689.907 329.013 689.93 329.017 689.95 329.017 C 690.145 329.017 690.317 328.872 690.352 328.669 C 690.384 328.45 690.235 328.239 690.012 328.204 Z M 727.387 309.974 C 727.364 309.919 727.333 309.868 727.309 309.814 C 727.395 309.997 727.485 310.177 727.571 310.361 C 727.509 310.232 727.446 310.103 727.387 309.974 Z M 637.727 269.368 C 637.872 270.806 639.145 271.97 640.571 271.97 C 641.997 271.97 643.036 270.806 642.891 269.368 C 642.747 267.935 641.473 266.771 640.044 266.771 C 638.618 266.771 637.579 267.935 637.727 269.368 Z M 626.884 321.079 C 626.661 321.079 626.477 321.263 626.477 321.486 C 626.477 321.712 626.661 321.892 626.884 321.892 L 630.704 321.892 C 630.926 321.892 631.11 321.712 631.11 321.486 C 631.11 321.263 630.926 321.079 630.704 321.079 L 626.884 321.079 Z M 626.29 315.06 L 633.708 315.06 C 633.934 315.06 634.114 314.88 634.114 314.654 C 634.114 314.431 633.934 314.247 633.708 314.247 L 626.29 314.247 C 626.063 314.247 625.884 314.431 625.884 314.654 C 625.884 314.88 626.063 315.06 626.29 315.06 Z M 626.29 311.728 L 636.762 311.728 C 636.989 311.728 637.169 311.544 637.169 311.322 C 637.169 311.095 636.989 310.915 636.762 310.915 L 626.29 310.915 C 626.063 310.915 625.884 311.095 625.884 311.322 C 625.884 311.544 626.063 311.728 626.29 311.728 Z M 622.559 281.572 C 622.337 281.552 622.141 281.724 622.126 281.947 C 622.106 282.169 622.274 282.364 622.501 282.384 L 628.329 282.822 C 628.341 282.822 628.348 282.822 628.36 282.822 C 628.571 282.822 628.751 282.657 628.766 282.447 C 628.782 282.22 628.614 282.025 628.391 282.009 L 622.559 281.572 Z M 630.27 280.798 C 630.481 280.798 630.657 280.634 630.676 280.419 C 630.692 280.197 630.524 280.001 630.301 279.986 L 622.341 279.388 C 622.118 279.368 621.919 279.54 621.903 279.763 C 621.887 279.986 622.055 280.181 622.278 280.2 L 630.239 280.794 C 630.251 280.798 630.259 280.798 630.27 280.798 Z M 621.727 274.154 L 627.579 274.681 C 627.591 274.681 627.602 274.685 627.614 274.685 C 627.825 274.685 628.001 274.525 628.02 274.314 C 628.04 274.091 627.876 273.892 627.653 273.872 L 621.801 273.341 C 621.583 273.325 621.384 273.489 621.36 273.712 C 621.341 273.935 621.505 274.134 621.727 274.154 Z M 627.86 272.568 C 628.059 272.568 628.235 272.419 628.262 272.216 C 628.29 271.993 628.137 271.79 627.915 271.759 L 621.493 270.904 C 621.27 270.876 621.067 271.032 621.04 271.255 C 621.009 271.478 621.165 271.681 621.387 271.712 L 627.805 272.564 C 627.825 272.568 627.841 272.568 627.86 272.568 Z M 647.173 304.935 L 646.145 296.04 L 638.551 295.825 L 639.751 304.79 L 647.173 304.935 Z M 625.305 304.517 L 629.809 304.603 L 627.497 285.111 L 623.423 284.743 L 625.305 304.517 Z M 645.059 286.681 L 637.235 285.982 L 637.723 289.638 L 645.469 290.22 L 645.059 286.681 Z M 638.442 295.009 L 646.048 295.224 L 645.567 291.04 L 637.833 290.462 L 638.442 295.009 Z M 629.555 295.564 L 630.63 304.618 L 638.93 304.775 L 637.727 295.802 L 629.555 295.564 Z M 637.618 294.986 L 637.005 290.4 L 628.868 289.79 L 629.458 294.751 L 637.618 294.986 Z M 628.77 288.97 L 636.895 289.575 L 636.403 285.907 L 628.321 285.185 L 628.77 288.97 Z M 645.829 286.259 L 648.032 305.302 C 648.048 305.419 648.009 305.536 647.93 305.622 C 647.852 305.708 647.743 305.755 647.63 305.755 C 647.63 305.755 647.626 305.755 647.622 305.755 L 624.926 305.322 C 624.719 305.318 624.548 305.161 624.532 304.954 L 622.567 284.333 C 622.555 284.216 622.598 284.095 622.684 284.009 C 622.77 283.923 622.891 283.88 623.009 283.892 L 645.462 285.9 C 645.657 285.919 645.809 286.068 645.829 286.259 Z M 621.395 269.759 L 630.657 270.849 C 630.673 270.849 630.688 270.849 630.704 270.849 C 630.907 270.849 631.083 270.697 631.106 270.489 C 631.134 270.267 630.973 270.068 630.751 270.04 L 621.489 268.954 C 621.266 268.923 621.063 269.087 621.04 269.31 C 621.012 269.532 621.169 269.736 621.395 269.759 Z M 637.364 262.404 C 636.634 261.388 634.95 261.142 634.95 261.142 C 634.95 261.142 634.122 258.415 632.083 257.888 C 629.563 257.239 629.645 260.048 629.645 260.048 C 629.645 260.048 626.856 259.743 626.196 260.575 C 625.532 261.404 625.45 263.736 625.45 263.736 L 638.903 265.364 C 638.903 265.364 638.059 263.368 637.364 262.404 Z M 666.485 248.286 C 665.563 245.818 665.704 242.927 668.235 239.845 C 674.188 232.599 679.77 239.38 686.841 239.009 C 693.911 238.634 703.958 240.868 707.216 245.993 C 710.469 251.114 702.653 271.974 702.653 271.974 C 702.653 271.974 704.606 276.63 708.794 275.697 C 708.794 276.165 705.54 280.075 699.676 278.212 C 694.665 283.138 686.528 279.841 684.481 275.56 C 682.434 271.275 674.173 258.779 674.317 259.568 C 674.36 259.79 674.212 260.001 673.993 260.044 C 673.966 260.048 673.942 260.048 673.919 260.048 C 673.723 260.048 673.555 259.915 673.516 259.716 C 673.212 258.06 671.622 257.349 671.606 257.345 C 671.399 257.255 671.305 257.013 671.395 256.81 C 671.438 256.704 671.52 256.63 671.618 256.591 C 670.384 255.372 669.817 253.72 669.817 253.72 L 669.817 257.724 C 666.989 255.564 666.532 250.677 666.485 248.286" fill-opacity="1" fill-rule="nonzero"/>
  <path fill="#efefef" d="M 642.856 286.486 C 643.598 287.407 644.462 288.275 645.321 288.927 C 645.618 289.15 645.915 289.349 646.208 289.517 C 646.481 289.673 646.755 289.802 647.016 289.896 C 647.016 289.896 646.993 293.415 648.243 296.779 C 648.766 298.193 649.512 299.572 650.575 300.657 L 651.598 309.013 L 657.848 304.275 C 657.848 304.275 655.114 293.423 654.204 290.767 C 653.29 288.118 648.321 282.275 648.321 282.275 L 648.778 286.009 C 648.313 285.583 647.532 284.884 646.637 284.15 C 644.473 282.372 641.637 280.376 640.954 281.435 C 640.415 282.271 641.059 283.95 642.204 285.611 C 642.407 285.904 642.63 286.197 642.856 286.486 Z M 655.325 385.232 C 655.169 385.232 655.016 385.142 654.954 384.986 C 654.895 384.853 654.923 384.708 654.997 384.599 C 653.657 383.661 648.516 380.111 646.301 378.958 C 642.903 377.185 636.036 378.224 636.036 378.224 L 637.661 382.595 C 637.759 382.486 637.903 382.431 638.051 382.462 C 638.11 382.478 643.981 383.833 646.868 384.415 C 647.091 384.458 647.231 384.673 647.188 384.892 C 647.149 385.083 646.977 385.22 646.79 385.22 C 646.762 385.22 646.735 385.216 646.708 385.212 C 643.813 384.63 637.926 383.271 637.868 383.255 C 637.751 383.232 637.661 383.154 637.61 383.056 C 636.473 382.9 631.512 382.29 629.645 383.009 C 628.204 383.564 627.993 384.657 627.989 385.247 C 628.044 385.243 628.102 385.247 628.161 385.271 C 628.219 385.29 634.02 387.376 638.634 387.931 C 638.856 387.958 639.012 388.161 638.985 388.384 C 638.962 388.591 638.786 388.743 638.583 388.743 C 638.567 388.743 638.551 388.743 638.536 388.739 C 633.833 388.173 627.942 386.056 627.884 386.036 C 627.755 385.986 627.669 385.88 627.637 385.755 C 626.774 386.005 624.762 386.759 624.813 388.337 C 624.841 389.197 625.899 390.021 626.462 390.396 C 626.579 390.208 626.829 390.15 627.02 390.267 C 627.055 390.29 630.844 392.607 636.887 392.607 C 636.938 392.607 636.993 392.599 637.04 392.607 C 637.262 392.607 637.446 392.786 637.446 393.009 C 637.446 393.236 637.266 393.415 637.044 393.419 C 636.989 393.419 636.938 393.419 636.884 393.419 C 630.915 393.419 627.153 391.298 626.649 390.993 C 626.489 391.443 626.301 392.228 626.52 393.013 C 626.614 393.353 627.122 393.728 627.751 394.072 C 627.852 394.017 627.969 394.001 628.083 394.044 C 628.153 394.068 634.958 396.548 637.372 396.548 C 637.594 396.548 637.778 396.732 637.778 396.958 C 637.778 397.181 637.594 397.364 637.372 397.364 C 635.829 397.364 632.774 396.474 630.524 395.739 L 630.473 395.841 C 630.091 396.56 630.473 397.443 631.259 397.657 L 640.477 400.318 C 641.571 400.634 642.688 400.849 643.813 400.974 C 645.852 401.197 647.919 401.103 649.942 400.685 L 658.149 398.986 L 659.985 398.607 L 655.454 385.208 C 655.411 385.22 655.368 385.232 655.325 385.232 Z M 681.434 290.544 L 681.731 299.181 L 682.852 298.825 C 682.884 298.611 683.434 294.884 684.356 291.97 C 684.282 292.029 684.216 292.087 684.137 292.142 L 681.434 290.544 Z M 674.317 259.568 C 673.934 257.489 672.012 256.634 671.93 256.595 C 671.723 256.509 671.485 256.603 671.395 256.81 C 671.305 257.013 671.399 257.255 671.606 257.345 C 671.622 257.349 673.212 258.06 673.516 259.716 C 673.555 259.915 673.723 260.048 673.919 260.048 C 673.942 260.048 673.966 260.048 673.993 260.044 C 674.212 260.001 674.36 259.79 674.317 259.568 Z M 673.634 275.239 C 673.469 275.087 673.212 275.095 673.059 275.259 C 672.016 276.376 669.645 275.876 669.622 275.872 C 669.407 275.825 669.188 275.962 669.141 276.181 C 669.091 276.404 669.231 276.618 669.45 276.665 C 669.501 276.677 670.079 276.798 670.825 276.798 C 671.739 276.798 672.903 276.614 673.653 275.818 C 673.805 275.65 673.798 275.396 673.634 275.239 Z M 670.829 262.095 C 670.864 262.739 671.169 263.204 671.509 263.138 C 671.852 263.075 672.098 262.501 672.063 261.861 C 672.032 261.22 671.723 260.751 671.384 260.818 C 671.044 260.884 670.794 261.454 670.829 262.095 Z M 687.493 288.216 C 682.391 289.587 674.7 286.97 674.696 286.97 C 673.594 286.611 672.423 286.161 671.227 285.611 C 668.653 284.419 668.497 278.779 669.059 272.466 C 666.114 269.197 669.817 265.861 670.247 262.798 C 670.614 260.212 670.95 257.864 671.126 256.048 C 671.169 255.587 671.204 255.161 671.227 254.771 C 671.235 254.63 671.255 254.489 671.27 254.349 C 672.766 255.552 674.016 256.236 674.091 256.251 C 678.555 257.107 681.817 254.095 681.817 254.095 L 681.032 256.892 C 680.184 259.919 680.419 263.15 681.704 266.021 L 683.196 265.525 C 683.868 263.923 685.45 262.798 687.294 262.798 C 689.747 262.798 691.739 264.786 691.739 267.247 C 691.739 269.614 689.887 271.548 687.551 271.681 C 687.852 272.564 688.204 273.454 688.606 274.302 C 690.653 278.587 694.376 279.329 694.376 279.329 L 693.817 276.349 C 693.817 276.349 693.817 276.349 699.676 278.212 C 700.544 278.489 701.348 278.634 702.098 278.689 L 704.813 285.294 C 699.661 286.04 690.938 287.353 687.493 288.216 Z M 681.063 288.419 C 680.231 288.322 677.743 287.974 674.7 286.974 C 677.747 287.974 680.235 288.325 681.063 288.419 Z M 681.075 288.423 C 681.192 288.435 681.274 288.443 681.317 288.447 C 681.274 288.443 681.192 288.435 681.075 288.423" fill-opacity="1" fill-rule="nonzero"/>
  <path fill="#035ffd" d="M 688.618 281.728 L 688.493 280.771 C 685.024 287.396 674.7 286.97 674.696 286.97 C 674.696 286.97 674.696 286.974 674.7 286.974 C 677.743 287.974 680.231 288.322 681.063 288.419 C 681.067 288.419 681.071 288.419 681.075 288.423 C 681.192 288.435 681.274 288.443 681.317 288.447 C 681.329 288.447 681.333 288.447 681.337 288.45 C 681.348 288.45 681.36 288.45 681.36 288.45 L 681.419 290.107 L 681.434 290.544 L 681.555 294.025 L 684.137 292.142 C 684.216 292.087 684.282 292.029 684.356 291.97 C 684.864 290.364 685.485 289.009 686.192 288.63 C 686.415 288.513 686.868 288.372 687.493 288.216 C 688.497 286.247 688.911 283.993 688.618 281.728 Z M 651.598 309.013 L 650.575 300.657 C 649.512 299.572 648.766 298.193 648.243 296.779 L 651.973 326.165 L 624.837 326.165 L 618.63 261.775 L 625.54 262.697 C 625.594 262.286 625.676 261.814 625.805 261.396 L 617.661 260.31 C 616.653 260.177 615.782 261.013 615.872 262.025 L 621.848 328.798 C 621.923 329.618 622.606 330.243 623.426 330.243 L 652.411 330.243 C 653.165 330.243 653.782 329.716 653.946 329.025 C 653.989 328.845 654.009 328.661 653.985 328.466 L 651.598 309.013 Z M 644.227 265.193 L 646.637 284.15 C 647.532 284.884 648.313 285.583 648.778 286.009 L 648.321 282.275 L 646.243 265.322 C 646.157 264.607 645.594 264.036 644.88 263.943 L 637.739 262.989 C 638.005 263.45 638.27 263.982 638.481 264.427 L 644.227 265.193 Z M 670.247 262.798 C 669.817 265.861 669.344 269.251 669.059 272.466 C 668.344 272.114 666.743 271.224 666.43 270.122 C 666.024 268.704 670.247 262.798 670.247 262.798" fill-opacity="1" fill-rule="nonzero"/>
  <g fill="#00a6ff" fill-opacity="1" transform="matrix(1, 0, 0, 1, 273.739079, -35.944268)">
    <g transform="translate(216.594039, 486.217001)">
      <g>
        <path d="M 27.4375 0 L 26 -18.078125 L 25.8125 -18.078125 L 19.5625 -0.1875 L 15.421875 -0.1875 L 9.171875 -18.078125 L 8.984375 -18.078125 L 7.546875 0 L 0.59375 0 L 3.328125 -30.515625 L 10.71875 -30.515625 L 17.5 -12.90625 L 24.265625 -30.515625 L 31.65625 -30.515625 L 34.390625 0 Z M 27.4375 0 "/>
      </g>
    </g>
  </g>
  <g fill="#00a6ff" fill-opacity="1" transform="matrix(1, 0, 0, 1, 273.739079, -35.944268)">
    <g transform="translate(251.577071, 486.217001)">
      <g>
        <path d="M 4 -2.25 C 1.894531 -4.125 0.84375 -6.53125 0.84375 -9.46875 C 0.84375 -12.40625 1.941406 -14.816406 4.140625 -16.703125 C 6.335938 -18.585938 9.050781 -19.53125 12.28125 -19.53125 C 15.457031 -19.53125 18.132812 -18.578125 20.3125 -16.671875 C 22.5 -14.773438 23.59375 -12.375 23.59375 -9.46875 C 23.59375 -6.5625 22.523438 -4.160156 20.390625 -2.265625 C 18.265625 -0.378906 15.5625 0.5625 12.28125 0.5625 C 8.875 0.5625 6.113281 -0.375 4 -2.25 Z M 9.078125 -12.671875 C 8.222656 -11.835938 7.796875 -10.769531 7.796875 -9.46875 C 7.796875 -8.164062 8.203125 -7.097656 9.015625 -6.265625 C 9.835938 -5.441406 10.910156 -5.03125 12.234375 -5.03125 C 13.523438 -5.03125 14.582031 -5.445312 15.40625 -6.28125 C 16.226562 -7.125 16.640625 -8.1875 16.640625 -9.46875 C 16.640625 -10.769531 16.210938 -11.835938 15.359375 -12.671875 C 14.515625 -13.515625 13.472656 -13.9375 12.234375 -13.9375 C 10.984375 -13.9375 9.929688 -13.515625 9.078125 -12.671875 Z M 9.078125 -12.671875 "/>
      </g>
    </g>
  </g>
  <g fill="#00a6ff" fill-opacity="1" transform="matrix(1, 0, 0, 1, 273.739079, -35.944268)">
    <g transform="translate(276.020818, 486.217001)">
      <g>
        <path d="M 2.21875 0 L 2.21875 -18.96875 L 8.765625 -18.96875 L 8.765625 -16.96875 L 8.84375 -16.96875 C 10.539062 -18.675781 12.351562 -19.53125 14.28125 -19.53125 C 15.21875 -19.53125 16.144531 -19.40625 17.0625 -19.15625 C 17.988281 -18.90625 18.875 -18.519531 19.71875 -18 C 20.570312 -17.488281 21.265625 -16.757812 21.796875 -15.8125 C 22.328125 -14.863281 22.59375 -13.757812 22.59375 -12.5 L 22.59375 0 L 16.046875 0 L 16.046875 -10.71875 C 16.046875 -11.707031 15.734375 -12.570312 15.109375 -13.3125 C 14.484375 -14.050781 13.664062 -14.421875 12.65625 -14.421875 C 11.664062 -14.421875 10.769531 -14.035156 9.96875 -13.265625 C 9.164062 -12.503906 8.765625 -11.65625 8.765625 -10.71875 L 8.765625 0 Z M 2.21875 0 "/>
      </g>
    </g>
  </g>
  <g fill="#00a6ff" fill-opacity="1" transform="matrix(1, 0, 0, 1, 273.739079, -35.944268)">
    <g transform="translate(300.464565, 486.217001)">
      <g>
        <path d="M 2.84375 -29.546875 C 3.613281 -30.316406 4.523438 -30.703125 5.578125 -30.703125 C 6.640625 -30.703125 7.550781 -30.316406 8.3125 -29.546875 C 9.082031 -28.785156 9.46875 -27.875 9.46875 -26.8125 C 9.46875 -25.75 9.082031 -24.835938 8.3125 -24.078125 C 7.550781 -23.316406 6.640625 -22.9375 5.578125 -22.9375 C 4.523438 -22.9375 3.613281 -23.316406 2.84375 -24.078125 C 2.082031 -24.835938 1.703125 -25.75 1.703125 -26.8125 C 1.703125 -27.875 2.082031 -28.785156 2.84375 -29.546875 Z M 2.21875 -18.96875 L 2.21875 0 L 8.765625 0 L 8.765625 -18.96875 Z M 2.21875 -18.96875 "/>
      </g>
    </g>
  </g>
  <g fill="#00a6ff" fill-opacity="1" transform="matrix(1, 0, 0, 1, 273.739079, -35.944268)">
    <g transform="translate(311.632508, 486.217001)">
      <g>
        <path d="M 3.328125 -18.96875 L 3.328125 -26.03125 L 9.875 -26.03125 L 9.875 -18.96875 L 13.875 -18.96875 L 13.875 -13.984375 L 9.875 -13.984375 L 9.875 -7.953125 C 9.875 -6.203125 10.367188 -5.328125 11.359375 -5.328125 C 11.597656 -5.328125 11.851562 -5.375 12.125 -5.46875 C 12.394531 -5.570312 12.609375 -5.671875 12.765625 -5.765625 L 12.984375 -5.921875 L 14.609375 -0.625 C 13.203125 0.164062 11.597656 0.5625 9.796875 0.5625 C 8.566406 0.5625 7.503906 0.347656 6.609375 -0.078125 C 5.722656 -0.515625 5.050781 -1.097656 4.59375 -1.828125 C 4.144531 -2.554688 3.820312 -3.320312 3.625 -4.125 C 3.425781 -4.925781 3.328125 -5.78125 3.328125 -6.6875 L 3.328125 -13.984375 L 0.59375 -13.984375 L 0.59375 -18.96875 Z M 3.328125 -18.96875 "/>
      </g>
    </g>
  </g>
  <g fill="#00a6ff" fill-opacity="1" transform="matrix(1, 0, 0, 1, 273.739079, -35.944268)">
    <g transform="translate(326.239585, 486.217001)">
      <g>
        <path d="M 4 -2.25 C 1.894531 -4.125 0.84375 -6.53125 0.84375 -9.46875 C 0.84375 -12.40625 1.941406 -14.816406 4.140625 -16.703125 C 6.335938 -18.585938 9.050781 -19.53125 12.28125 -19.53125 C 15.457031 -19.53125 18.132812 -18.578125 20.3125 -16.671875 C 22.5 -14.773438 23.59375 -12.375 23.59375 -9.46875 C 23.59375 -6.5625 22.523438 -4.160156 20.390625 -2.265625 C 18.265625 -0.378906 15.5625 0.5625 12.28125 0.5625 C 8.875 0.5625 6.113281 -0.375 4 -2.25 Z M 9.078125 -12.671875 C 8.222656 -11.835938 7.796875 -10.769531 7.796875 -9.46875 C 7.796875 -8.164062 8.203125 -7.097656 9.015625 -6.265625 C 9.835938 -5.441406 10.910156 -5.03125 12.234375 -5.03125 C 13.523438 -5.03125 14.582031 -5.445312 15.40625 -6.28125 C 16.226562 -7.125 16.640625 -8.1875 16.640625 -9.46875 C 16.640625 -10.769531 16.210938 -11.835938 15.359375 -12.671875 C 14.515625 -13.515625 13.472656 -13.9375 12.234375 -13.9375 C 10.984375 -13.9375 9.929688 -13.515625 9.078125 -12.671875 Z M 9.078125 -12.671875 "/>
      </g>
    </g>
  </g>
  <g fill="#00a6ff" fill-opacity="1" transform="matrix(1, 0, 0, 1, 273.739079, -35.944268)">
    <g transform="translate(350.683332, 486.217001)">
      <g>
        <path d="M 2.21875 0 L 2.21875 -18.96875 L 8.765625 -18.96875 L 8.765625 -16.234375 L 8.84375 -16.234375 C 8.882812 -16.335938 8.960938 -16.460938 9.078125 -16.609375 C 9.191406 -16.753906 9.429688 -17.007812 9.796875 -17.375 C 10.171875 -17.75 10.566406 -18.082031 10.984375 -18.375 C 11.398438 -18.675781 11.941406 -18.941406 12.609375 -19.171875 C 13.273438 -19.410156 13.953125 -19.53125 14.640625 -19.53125 C 15.359375 -19.53125 16.0625 -19.429688 16.75 -19.234375 C 17.445312 -19.035156 17.953125 -18.835938 18.265625 -18.640625 L 18.78125 -18.34375 L 16.046875 -12.796875 C 15.234375 -13.484375 14.101562 -13.828125 12.65625 -13.828125 C 11.863281 -13.828125 11.179688 -13.65625 10.609375 -13.3125 C 10.046875 -12.96875 9.644531 -12.546875 9.40625 -12.046875 C 9.175781 -11.554688 9.007812 -11.140625 8.90625 -10.796875 C 8.8125 -10.453125 8.765625 -10.179688 8.765625 -9.984375 L 8.765625 0 Z M 2.21875 0 "/>
      </g>
    </g>
  </g>
</svg>