<?xml version="1.0" encoding="utf-8"?>
<svg viewBox="526.374 67.764 339.93 336.463" xmlns="http://www.w3.org/2000/svg">
  <defs>
    <clipPath id="2b67900644">
      <path d="M 110.148438 75.339844 L 444.480469 75.339844 L 444.480469 409.671875 L 110.148438 409.671875 Z M 110.148438 75.339844 " clip-rule="nonzero"/>
    </clipPath>
    <clipPath id="e1c0ec2486">
      <path d="M 141.402344 147.722656 L 304.070312 147.722656 L 304.070312 344.660156 L 141.402344 344.660156 Z M 141.402344 147.722656 " clip-rule="nonzero"/>
    </clipPath>
    <clipPath id="c78d218cae">
      <path d="M 156 137.074219 L 294 137.074219 L 294 301 L 156 301 Z M 156 137.074219 " clip-rule="nonzero"/>
    </clipPath>
    <clipPath id="e97d70e05b">
      <path d="M 163 212 L 266 212 L 266 344.71875 L 163 344.71875 Z M 163 212 " clip-rule="nonzero"/>
    </clipPath>
    <clipPath id="d756662157">
      <path d="M 332 119.121094 L 430 119.121094 L 430 191 L 332 191 Z M 332 119.121094 " clip-rule="nonzero"/>
    </clipPath>
    <clipPath id="3bcf872336">
      <path d="M 332 290 L 430 290 L 430 361.996094 L 332 361.996094 Z M 332 290 " clip-rule="nonzero"/>
    </clipPath>
    <clipPath id="a7f41cc908">
      <path d="M 311 171 L 450.429688 171 L 450.429688 310 L 311 310 Z M 311 171 " clip-rule="nonzero"/>
    </clipPath>
  </defs>
  <g clip-path="url(#2b67900644)" transform="matrix(1, 0, 0, 1, 416.225867, -7.575912)">
    <path fill="#d5ecf1" d="M 277.3125 75.339844 C 184.992188 75.339844 110.148438 150.183594 110.148438 242.507812 C 110.148438 334.828125 184.992188 409.671875 277.3125 409.671875 C 369.636719 409.671875 444.480469 334.828125 444.480469 242.507812 C 444.480469 150.183594 369.636719 75.339844 277.3125 75.339844 " fill-opacity="1" fill-rule="nonzero"/>
  </g>
  <g clip-path="url(#e1c0ec2486)" transform="matrix(1, 0, 0, 1, 416.225867, -7.575912)">
    <path fill="#a5e2f9" d="M 260.6875 286.5 C 256.914062 312.6875 268.765625 329.347656 266.894531 343.359375 C 266.894531 343.359375 193.996094 344.664062 169.695312 344.226562 C 170.128906 331.609375 172.386719 322.9375 172.894531 312.035156 C 172.054688 308.3125 171.460938 304.671875 171.042969 301.144531 C 163.464844 302.914062 156.089844 303.21875 151.089844 301.265625 C 137.304688 295.878906 140.984375 267.164062 145.425781 243.972656 C 149.292969 223.777344 165.859375 216.511719 170.085938 214.964844 C 176.535156 211.996094 189.578125 206.214844 200.78125 202.625 C 201.082031 200.285156 201.234375 197.746094 201.039062 194.835938 C 200.855469 192.054688 200.289062 189.632812 199.484375 186.425781 C 196.964844 186.78125 193.386719 183.683594 192.511719 178.667969 C 192.027344 175.914062 194.445312 174.605469 196.75 174.558594 C 196.621094 173.921875 196.496094 173.265625 196.367188 172.578125 C 192.9375 154.367188 207.585938 147.429688 217.863281 147.863281 C 237.375 148.679688 237.027344 154.773438 237.957031 161.800781 C 239.179688 170.988281 234.714844 192.214844 231.066406 197.765625 C 230.585938 198.496094 230.140625 199.15625 229.730469 199.765625 C 236.246094 200.347656 242.925781 201.425781 248.386719 202.683594 C 248.664062 202.652344 248.984375 202.679688 249.363281 202.777344 C 250.761719 203.152344 252.175781 203.578125 253.597656 204.054688 C 255.335938 204.582031 256.8125 205.121094 257.945312 205.65625 C 278.230469 213.777344 298.894531 230.957031 302.910156 243.296875 C 309.996094 265.058594 283.457031 270.328125 264.863281 271.414062 C 263.996094 276.914062 262.65625 282.058594 260.6875 286.5 " fill-opacity="1" fill-rule="nonzero"/>
  </g>
  <g clip-path="url(#c78d218cae)" transform="matrix(1, 0, 0, 1, 416.225867, -7.575912)">
    <path fill="#312e5f" d="M 239.507812 165.34375 C 240.675781 172.410156 228.960938 171.679688 218.4375 169.675781 C 218.460938 169.738281 218.484375 169.816406 218.496094 169.941406 C 218.371094 170.242188 218.292969 170.300781 218.214844 170.308594 L 217.980469 170.355469 L 217.519531 170.433594 C 217.210938 170.484375 216.910156 170.511719 216.609375 170.5625 C 216.007812 170.664062 215.441406 170.847656 214.867188 170.96875 C 214.292969 171.09375 213.726562 171.25 213.179688 171.496094 C 213.046875 171.566406 212.914062 171.636719 212.785156 171.714844 C 212.667969 171.800781 212.554688 171.898438 212.429688 171.980469 C 212.304688 172.066406 212.179688 172.148438 212.058594 172.242188 L 211.859375 172.363281 C 211.789062 172.40625 211.6875 172.414062 211.421875 172.296875 C 211.265625 172.058594 211.273438 171.945312 211.316406 171.871094 L 211.449219 171.640625 C 211.542969 171.488281 211.652344 171.351562 211.785156 171.234375 C 211.910156 171.113281 212.042969 170.996094 212.175781 170.882812 C 212.316406 170.78125 212.457031 170.671875 212.59375 170.5625 C 213.148438 170.132812 213.761719 169.726562 214.4375 169.511719 C 215.011719 169.296875 215.621094 169.242188 216.21875 169.230469 C 208.890625 167.695312 202.671875 165.746094 202.671875 165.746094 L 202.832031 173.617188 C 202.933594 175.339844 203.273438 178.082031 202.269531 179.488281 C 201.84375 177.125 200.402344 175.113281 197.972656 174.65625 C 196.757812 174.429688 195.335938 174.589844 194.234375 175.171875 C 192.359375 171.558594 188.800781 164.449219 188.480469 161.851562 C 187.71875 155.679688 193.414062 152.695312 193.414062 152.695312 C 194.445312 145.457031 205.390625 139.105469 222.097656 137.867188 C 232.175781 137.117188 239.101562 142.464844 243.007812 146.828125 C 245.011719 149.0625 243.722656 152.636719 240.765625 153.113281 L 240.449219 153.164062 C 242.496094 154.398438 244.414062 156.675781 245.984375 158.96875 C 247.945312 161.847656 245.753906 165.726562 242.28125 165.515625 Z M 215.058594 177.816406 C 215.222656 176.777344 216.199219 176.066406 217.238281 176.234375 C 218.277344 176.398438 218.984375 177.375 218.816406 178.417969 C 218.652344 179.457031 217.675781 180.167969 216.640625 180 C 215.601562 179.835938 214.894531 178.859375 215.058594 177.816406 Z M 230.546875 177.019531 C 231.585938 177.1875 232.292969 178.164062 232.128906 179.203125 C 231.960938 180.246094 230.988281 180.953125 229.949219 180.789062 C 228.910156 180.621094 228.203125 179.644531 228.367188 178.601562 C 228.535156 177.5625 229.511719 176.851562 230.546875 177.019531 Z M 220.824219 195.460938 C 221.191406 195.15625 221.578125 195.078125 221.921875 195.023438 C 222.605469 194.933594 223.222656 194.996094 223.824219 195.089844 C 224.125 195.144531 224.417969 195.222656 224.703125 195.316406 C 224.847656 195.367188 224.988281 195.421875 225.128906 195.476562 C 225.265625 195.53125 225.398438 195.640625 225.457031 195.949219 C 225.242188 196.175781 225.089844 196.207031 224.949219 196.191406 L 224.523438 196.152344 L 223.6875 196.070312 C 223.144531 196.015625 222.585938 195.996094 222.125 196.109375 C 221.90625 196.171875 221.710938 196.269531 221.648438 196.371094 C 221.609375 196.417969 221.597656 196.457031 221.589844 196.503906 L 221.523438 196.847656 C 221.4375 197.363281 221.402344 197.917969 221.511719 198.207031 C 221.5625 198.351562 221.589844 198.359375 221.652344 198.402344 C 221.722656 198.441406 221.894531 198.488281 222.109375 198.484375 C 222.582031 198.484375 223.078125 198.398438 223.503906 198.199219 C 223.941406 198.007812 224.304688 197.699219 224.597656 197.328125 C 224.738281 197.140625 224.863281 196.9375 224.960938 196.710938 C 225 196.597656 225.050781 196.484375 225.070312 196.363281 C 225.082031 196.304688 225.109375 196.21875 225.167969 196.214844 C 225.230469 196.1875 225.347656 196.117188 225.457031 195.949219 C 225.578125 195.921875 225.703125 195.996094 225.769531 196.117188 C 225.847656 196.257812 225.851562 196.316406 225.859375 196.40625 C 225.878906 196.578125 225.863281 196.746094 225.855469 196.917969 C 225.8125 197.261719 225.710938 197.597656 225.558594 197.910156 C 225.242188 198.535156 224.71875 199.035156 224.121094 199.375 C 223.519531 199.726562 222.863281 199.914062 222.175781 199.980469 C 221.816406 200.007812 221.390625 199.996094 220.9375 199.769531 C 220.472656 199.550781 220.144531 199.039062 220.046875 198.621094 C 219.859375 197.773438 220.046875 197.136719 220.21875 196.527344 L 220.292969 196.304688 L 220.332031 196.195312 L 220.394531 196.035156 C 220.488281 195.8125 220.644531 195.605469 220.824219 195.460938 Z M 224.496094 187.417969 C 224.519531 186.871094 224.445312 186.273438 224.347656 185.6875 C 224.152344 184.503906 223.816406 183.316406 223.457031 182.136719 C 223.085938 180.960938 222.6875 179.773438 222.253906 178.632812 L 222.246094 178.617188 C 222.101562 178.230469 222.296875 177.800781 222.679688 177.65625 C 223.054688 177.515625 223.472656 177.695312 223.628906 178.066406 C 224.125 179.261719 224.554688 180.453125 224.925781 181.6875 C 225.292969 182.917969 225.597656 184.167969 225.777344 185.476562 C 225.851562 186.136719 225.90625 186.800781 225.84375 187.511719 C 225.816406 187.867188 225.75 188.234375 225.601562 188.617188 C 225.453125 188.976562 225.261719 189.261719 225.039062 189.558594 C 224.585938 190.128906 223.996094 190.601562 223.332031 190.878906 C 223 191.015625 222.65625 191.105469 222.304688 191.125 C 222.128906 191.144531 221.953125 191.136719 221.78125 191.121094 C 221.613281 191.117188 221.421875 191.074219 221.292969 190.742188 C 221.46875 190.4375 221.597656 190.390625 221.742188 190.367188 C 221.882812 190.339844 222.019531 190.296875 222.152344 190.257812 C 222.421875 190.171875 222.679688 190.078125 222.921875 189.960938 C 223.410156 189.726562 223.816406 189.359375 224.070312 188.886719 C 224.199219 188.664062 224.3125 188.390625 224.378906 188.164062 C 224.449219 187.953125 224.484375 187.691406 224.496094 187.417969 Z M 230.140625 172.671875 C 230.09375 172.65625 230.050781 172.578125 229.996094 172.265625 C 230.042969 171.957031 230.101562 171.882812 230.160156 171.875 L 230.328125 171.8125 C 230.441406 171.777344 230.558594 171.746094 230.675781 171.742188 C 230.910156 171.714844 231.140625 171.742188 231.375 171.777344 C 231.832031 171.84375 232.3125 171.949219 232.691406 172.226562 C 233.082031 172.476562 233.386719 172.835938 233.671875 173.175781 C 233.8125 173.351562 233.972656 173.5 234.105469 173.675781 C 234.171875 173.761719 234.226562 173.859375 234.273438 173.964844 C 234.296875 174.015625 234.3125 174.074219 234.332031 174.128906 C 234.351562 174.183594 234.328125 174.277344 234.136719 174.480469 C 233.886719 174.601562 233.804688 174.613281 233.757812 174.585938 L 233.625 174.519531 C 233.539062 174.464844 233.457031 174.414062 233.386719 174.351562 C 233.242188 174.230469 233.109375 174.101562 232.945312 174.003906 C 232.621094 173.8125 232.261719 173.695312 231.949219 173.550781 C 231.625 173.414062 231.34375 173.214844 231.023438 173.070312 C 230.867188 172.992188 230.699219 172.941406 230.53125 172.867188 C 230.449219 172.824219 230.363281 172.78125 230.273438 172.742188 Z M 200.570312 198.550781 C 200.699219 196.546875 200.703125 194.511719 200.476562 192.492188 L 200.25 190.984375 L 199.9375 189.488281 L 199.59375 188.003906 C 199.542969 187.753906 199.480469 187.507812 199.417969 187.257812 C 199.359375 187.007812 199.335938 186.753906 199.5 186.414062 C 199.851562 186.550781 200.011719 186.78125 200.113281 187.019531 C 200.210938 187.261719 200.320312 187.503906 200.410156 187.753906 C 200.597656 188.242188 200.746094 188.746094 200.890625 189.25 C 201.167969 190.265625 201.367188 191.296875 201.566406 192.324219 C 201.949219 194.390625 202.160156 196.507812 202.082031 198.625 C 202.066406 199.6875 201.921875 200.742188 201.757812 201.789062 C 201.652344 202.308594 201.523438 202.824219 201.410156 203.34375 C 201.34375 203.601562 201.292969 203.859375 201.222656 204.117188 L 200.976562 204.875 C 200.804688 205.375 200.660156 205.886719 200.472656 206.378906 C 200.269531 206.867188 200.042969 207.347656 199.828125 207.828125 C 199.710938 208.070312 199.625 208.316406 199.484375 208.542969 L 199.074219 209.222656 L 198.660156 209.894531 C 198.640625 209.925781 198.617188 209.953125 198.59375 209.984375 C 199.160156 210.730469 199.738281 211.46875 200.328125 212.191406 C 202 214.183594 203.796875 216.074219 205.796875 217.71875 C 207.789062 219.367188 209.984375 220.761719 212.332031 221.777344 C 214.675781 222.792969 217.1875 223.394531 219.714844 223.472656 C 220.976562 223.511719 222.242188 223.425781 223.488281 223.210938 C 224.734375 223 225.949219 222.683594 227.0625 222.171875 C 228.171875 221.65625 229.183594 220.96875 229.976562 220.074219 C 230.769531 219.179688 231.339844 218.085938 231.695312 216.90625 C 232.414062 214.527344 232.320312 211.90625 232.019531 209.351562 C 231.859375 208.066406 231.632812 206.785156 231.386719 205.503906 C 231.257812 204.867188 231.117188 204.226562 230.972656 203.589844 C 230.8125 202.953125 230.664062 202.316406 230.824219 201.585938 C 231.359375 202.113281 231.570312 202.742188 231.753906 203.378906 C 231.949219 204.007812 232.136719 204.644531 232.3125 205.285156 C 232.667969 206.5625 232.960938 207.863281 233.175781 209.1875 C 233.398438 210.503906 233.523438 211.847656 233.53125 213.207031 C 233.527344 214.5625 233.402344 215.945312 233.03125 217.292969 C 232.664062 218.640625 232.023438 219.953125 231.09375 221.046875 C 230.171875 222.148438 228.976562 222.992188 227.695312 223.566406 C 226.417969 224.144531 225.074219 224.5 223.726562 224.703125 C 222.382812 224.894531 221.015625 224.96875 219.65625 224.902344 C 216.9375 224.769531 214.261719 224.066406 211.824219 222.921875 C 209.375 221.789062 207.148438 220.253906 205.117188 218.535156 C 203.089844 216.800781 201.234375 214.878906 199.589844 212.796875 C 198.753906 211.761719 197.988281 210.675781 197.265625 209.566406 C 196.570312 208.441406 195.734375 207.378906 195.515625 205.988281 C 196.554688 206.90625 197.140625 208.0625 197.929688 209.105469 C 197.972656 209.160156 198.015625 209.214844 198.058594 209.273438 L 198.246094 208.808594 L 198.542969 208.109375 C 198.636719 207.875 198.707031 207.628906 198.792969 207.394531 C 198.957031 206.914062 199.113281 206.433594 199.292969 205.964844 C 199.445312 205.484375 199.554688 204.988281 199.691406 204.507812 L 199.882812 203.777344 C 199.9375 203.53125 199.972656 203.28125 200.019531 203.035156 C 200.105469 202.539062 200.203125 202.046875 200.28125 201.550781 C 200.367188 200.550781 200.535156 199.558594 200.570312 198.550781 Z M 208.6875 198.996094 C 210.609375 200.726562 212.746094 202.207031 215.050781 203.238281 C 216.199219 203.761719 217.402344 204.144531 218.625 204.417969 C 219.851562 204.675781 221.105469 204.792969 222.335938 204.65625 C 223.5625 204.527344 224.761719 204.167969 225.863281 203.589844 C 226.40625 203.292969 226.945312 202.96875 227.433594 202.570312 C 227.679688 202.375 227.914062 202.164062 228.136719 201.941406 C 228.363281 201.71875 228.609375 201.53125 229.035156 201.421875 C 229.101562 201.863281 228.933594 202.195312 228.722656 202.464844 C 228.507812 202.738281 228.277344 202.996094 228.035156 203.238281 C 227.546875 203.726562 227.015625 204.183594 226.417969 204.550781 C 225.238281 205.300781 223.882812 205.769531 222.5 205.964844 C 221.113281 206.175781 219.707031 206.101562 218.347656 205.871094 C 216.980469 205.652344 215.664062 205.195312 214.417969 204.625 C 211.921875 203.457031 209.792969 201.710938 207.914062 199.796875 C 206.972656 198.835938 206.074219 197.84375 205.246094 196.792969 C 204.839844 196.261719 204.4375 195.726562 204.078125 195.160156 C 203.894531 194.878906 203.722656 194.59375 203.554688 194.300781 C 203.382812 194.015625 203.253906 193.695312 203.324219 193.261719 C 203.738281 193.398438 203.96875 193.628906 204.164062 193.890625 L 204.773438 194.65625 C 205.183594 195.164062 205.589844 195.671875 206.011719 196.164062 C 206.847656 197.164062 207.730469 198.117188 208.6875 198.996094 Z M 263.488281 271.359375 C 263.933594 271.367188 264.347656 271.363281 264.832031 271.683594 C 264.433594 272.144531 263.953125 272.148438 263.507812 272.1875 C 263.054688 272.226562 262.601562 272.253906 262.148438 272.269531 C 261.242188 272.308594 260.335938 272.292969 259.421875 272.238281 C 258.507812 272.179688 257.578125 272.074219 256.609375 271.753906 C 255.679688 271.445312 254.691406 270.847656 254.128906 269.917969 C 253.558594 269.003906 253.375 268.007812 253.28125 267.085938 C 253.195312 266.15625 253.152344 265.261719 253.042969 264.378906 C 252.972656 263.472656 252.914062 262.578125 252.863281 261.679688 C 252.859375 261.621094 252.859375 261.566406 252.855469 261.511719 C 250.550781 262.25 248.242188 262.988281 245.945312 263.746094 C 245.972656 263.363281 246.003906 262.796875 246.035156 262.097656 C 247.992188 261.449219 249.953125 260.824219 251.929688 260.238281 C 251.863281 257.574219 251.296875 254.875 250.46875 252.300781 C 250.011719 250.925781 249.496094 249.558594 248.824219 248.308594 C 248.65625 247.996094 248.476562 247.695312 248.277344 247.421875 C 248.09375 247.152344 247.859375 246.878906 247.691406 246.78125 C 247.648438 246.757812 247.632812 246.75 247.625 246.746094 C 247.554688 246.75 247.496094 246.746094 247.402344 246.753906 C 247.234375 246.761719 247.054688 246.785156 246.878906 246.800781 L 245.792969 246.9375 C 244.914062 247.066406 244.039062 247.199219 243.164062 247.339844 C 242.804688 247.019531 242.453125 246.785156 242.128906 246.605469 C 243.300781 246.394531 244.476562 246.191406 245.65625 246.003906 L 246.765625 245.84375 C 246.953125 245.824219 247.140625 245.800781 247.34375 245.785156 C 247.433594 245.773438 247.558594 245.773438 247.675781 245.773438 C 247.847656 245.78125 248.011719 245.835938 248.136719 245.894531 C 248.621094 246.148438 248.867188 246.464844 249.132812 246.773438 C 249.378906 247.09375 249.59375 247.417969 249.792969 247.75 C 250.582031 249.074219 251.171875 250.464844 251.675781 251.886719 C 252.5625 254.460938 253.21875 257.128906 253.382812 259.902344 C 253.527344 260.460938 253.570312 261.027344 253.644531 261.59375 L 253.808594 262.921875 L 253.886719 263.589844 C 253.929688 263.804688 253.988281 264.015625 254.023438 264.242188 C 254.164062 265.136719 254.304688 266.027344 254.527344 266.863281 C 254.746094 267.699219 255.019531 268.476562 255.417969 269.082031 C 255.628906 269.382812 255.847656 269.65625 256.125 269.898438 C 256.402344 270.132812 256.730469 270.335938 257.09375 270.503906 C 257.800781 270.828125 258.671875 270.925781 259.53125 271.046875 C 260.398438 271.160156 261.28125 271.222656 262.160156 271.289062 C 262.605469 271.3125 263.046875 271.34375 263.488281 271.359375 Z M 293.582031 237.203125 C 292.964844 237.125 292.527344 236.878906 292.117188 236.582031 C 291.691406 236.308594 291.234375 236.089844 290.796875 235.84375 C 289.886719 235.410156 288.949219 235.039062 287.976562 234.765625 C 286.042969 234.214844 284.023438 233.953125 281.996094 233.917969 C 279.964844 233.878906 277.929688 234.09375 275.914062 234.40625 C 274.902344 234.5625 273.902344 234.765625 272.894531 234.964844 C 271.894531 235.191406 270.894531 235.410156 269.902344 235.683594 C 267.910156 236.183594 265.941406 236.78125 263.992188 237.457031 C 262.039062 238.121094 260.101562 238.84375 258.1875 239.632812 C 256.28125 240.429688 254.402344 241.304688 252.542969 242.210938 L 249.757812 243.582031 L 248.371094 244.28125 C 247.910156 244.519531 247.425781 244.710938 246.839844 244.738281 C 247.144531 244.234375 247.566406 243.914062 248.011719 243.640625 L 249.359375 242.839844 C 250.257812 242.304688 251.179688 241.816406 252.105469 241.332031 C 253.960938 240.375 255.851562 239.480469 257.75 238.621094 C 260.164062 237.519531 262.613281 236.5 265.121094 235.613281 C 264.984375 235.382812 264.984375 235.210938 265.035156 235.058594 L 265.195312 234.5625 C 265.316406 234.238281 265.445312 233.914062 265.589844 233.597656 C 265.878906 232.972656 266.1875 232.351562 266.492188 231.726562 C 267.085938 230.476562 267.703125 229.222656 268.457031 228.039062 C 269.199219 226.847656 270.113281 225.765625 271.132812 224.765625 C 271.648438 224.273438 272.1875 223.789062 272.796875 223.394531 C 273.101562 223.195312 273.429688 223.027344 273.761719 222.875 L 274.28125 222.679688 C 274.453125 222.625 274.660156 222.617188 274.921875 222.847656 C 274.867188 223.207031 274.753906 223.328125 274.613281 223.402344 L 274.222656 223.683594 C 273.964844 223.882812 273.71875 224.085938 273.476562 224.300781 C 272.996094 224.734375 272.53125 225.195312 272.101562 225.691406 C 271.238281 226.683594 270.5 227.800781 269.714844 228.886719 C 268.945312 229.984375 268.167969 231.097656 267.457031 232.253906 C 267.109375 232.835938 266.789062 233.4375 266.472656 234.035156 C 266.3125 234.335938 266.140625 234.632812 265.96875 234.925781 L 265.703125 235.363281 C 265.6875 235.386719 265.667969 235.410156 265.652344 235.429688 C 266.925781 234.992188 268.210938 234.582031 269.511719 234.21875 C 269.574219 234.203125 269.636719 234.183594 269.699219 234.167969 C 269.707031 233.980469 269.777344 233.863281 269.867188 233.769531 L 270.226562 233.398438 C 270.472656 233.164062 270.71875 232.929688 270.984375 232.714844 C 271.511719 232.285156 272.050781 231.871094 272.585938 231.449219 C 273.648438 230.597656 274.734375 229.757812 275.914062 229.046875 C 277.078125 228.316406 278.347656 227.742188 279.667969 227.292969 C 279.988281 227.167969 280.324219 227.070312 280.664062 226.980469 C 281.003906 226.890625 281.335938 226.78125 281.691406 226.746094 C 282.042969 226.699219 282.386719 226.636719 282.742188 226.628906 L 283.277344 226.636719 C 283.453125 226.632812 283.636719 226.683594 283.816406 226.980469 C 283.660156 227.3125 283.511719 227.398438 283.351562 227.429688 L 282.886719 227.546875 C 282.574219 227.628906 282.269531 227.753906 281.964844 227.84375 C 281.65625 227.925781 281.355469 228.070312 281.050781 228.171875 C 280.75 228.28125 280.449219 228.398438 280.152344 228.542969 C 278.960938 229.058594 277.835938 229.742188 276.671875 230.359375 C 275.519531 230.992188 274.351562 231.636719 273.226562 232.351562 C 272.664062 232.710938 272.125 233.101562 271.585938 233.496094 C 271.445312 233.597656 271.300781 233.691406 271.15625 233.792969 C 274.695312 232.929688 278.355469 232.449219 282.035156 232.578125 C 284.15625 232.675781 286.289062 232.988281 288.320312 233.695312 C 289.339844 234.019531 290.308594 234.507812 291.234375 235.039062 C 291.679688 235.335938 292.144531 235.605469 292.570312 235.929688 C 292.984375 236.261719 293.371094 236.648438 293.582031 237.203125 Z M 220.128906 278.59375 C 219.992188 278.945312 219.792969 279.234375 219.53125 279.410156 C 219.335938 279.542969 219.105469 279.621094 218.84375 279.652344 L 216.746094 276.035156 C 216.703125 275.960938 216.636719 275.890625 216.554688 275.84375 C 216.523438 275.824219 216.484375 275.816406 216.445312 275.804688 C 216.613281 275.671875 216.742188 275.484375 216.828125 275.273438 C 216.945312 274.964844 216.925781 274.582031 216.78125 274.261719 C 216.644531 273.941406 216.421875 273.667969 216.175781 273.472656 C 216.101562 273.410156 216.035156 273.355469 215.96875 273.300781 L 215.949219 273.125 C 215.921875 272.945312 215.894531 272.761719 215.855469 272.585938 C 215.78125 272.234375 215.671875 271.894531 215.574219 271.546875 C 215.375 270.859375 215.203125 270.164062 214.90625 269.507812 C 214.628906 268.851562 214.28125 268.21875 213.960938 267.578125 C 213.847656 267.351562 213.753906 267.121094 213.65625 266.890625 C 214.902344 267.507812 216.207031 268.089844 217.589844 268.449219 C 217.855469 268.515625 218.121094 268.582031 218.386719 268.636719 C 218.429688 269.382812 218.714844 270.03125 218.949219 270.695312 L 219.796875 273.054688 C 219.828125 273.136719 219.886719 273.210938 219.957031 273.261719 C 219.984375 273.378906 220.007812 273.492188 220.03125 273.609375 C 220.203125 274.460938 220.335938 275.320312 220.378906 276.171875 C 220.414062 277.015625 220.390625 277.882812 220.128906 278.59375 Z M 207.773438 267.082031 C 207.328125 266.769531 206.878906 266.460938 206.410156 266.160156 C 206.179688 266.011719 205.9375 265.859375 205.671875 265.714844 C 205.421875 265.578125 205.222656 265.476562 205.023438 265.347656 C 204.929688 265.285156 204.835938 265.214844 204.765625 265.152344 C 204.816406 265.105469 204.875 265.054688 204.945312 264.996094 L 205.027344 264.929688 C 205.035156 264.925781 205.015625 264.9375 205.023438 264.933594 C 205.027344 264.933594 205.039062 264.925781 205.070312 264.917969 C 205.1875 264.875 205.417969 264.839844 205.644531 264.828125 C 206.601562 264.796875 207.679688 264.902344 208.734375 265.015625 L 209.535156 265.105469 C 209.777344 265.132812 209.953125 265.171875 210.183594 265.242188 C 210.625 265.382812 211.089844 265.585938 211.558594 265.816406 C 211.855469 265.96875 212.160156 266.125 212.460938 266.28125 L 212.480469 266.417969 C 212.515625 266.59375 212.554688 266.773438 212.609375 266.941406 C 212.710938 267.285156 212.839844 267.617188 212.929688 267.964844 C 213.113281 268.660156 213.265625 269.367188 213.488281 270.042969 C 213.6875 270.707031 214 271.328125 214.292969 271.957031 C 213.867188 271.613281 213.433594 271.277344 212.996094 270.941406 C 211.289062 269.613281 209.554688 268.335938 207.773438 267.082031 Z M 204.652344 265.035156 C 204.652344 265.035156 204.648438 265.03125 204.648438 265.03125 C 204.644531 265.023438 204.648438 265.027344 204.652344 265.035156 Z M 223.453125 265.484375 C 223.449219 265.484375 223.449219 265.484375 223.445312 265.484375 C 223.464844 265.484375 223.480469 265.484375 223.453125 265.484375 Z M 223.289062 265.433594 C 223.285156 265.429688 223.285156 265.429688 223.289062 265.433594 Z M 224.542969 257.996094 C 224.546875 258.003906 224.546875 258.003906 224.539062 257.996094 C 224.539062 257.996094 224.539062 257.992188 224.535156 257.988281 C 224.539062 257.992188 224.542969 257.996094 224.542969 257.996094 Z M 238.328125 264.945312 C 238.207031 265 238.089844 265.046875 237.972656 265.101562 C 237.628906 265.265625 237.292969 265.421875 236.925781 265.652344 L 236.015625 266.246094 C 233.589844 267.773438 231.0625 269.179688 228.433594 270.328125 C 225.898438 271.40625 223.222656 272.292969 220.527344 272.402344 L 219.671875 270.410156 C 219.417969 269.835938 219.207031 269.246094 218.828125 268.722656 C 219.511719 268.851562 220.203125 268.941406 220.929688 268.957031 C 221.507812 268.964844 222.109375 268.914062 222.710938 268.714844 C 223.304688 268.523438 223.933594 268.117188 224.261719 267.484375 C 224.59375 266.855469 224.617188 266.148438 224.441406 265.515625 C 224.394531 265.355469 224.335938 265.195312 224.246094 265.03125 C 224.203125 264.949219 224.152344 264.867188 224.078125 264.777344 C 224 264.695312 223.914062 264.589844 223.703125 264.503906 C 223.644531 264.484375 223.582031 264.46875 223.503906 264.464844 C 223.441406 264.460938 223.5 264.460938 223.511719 264.464844 L 223.550781 264.472656 C 223.566406 264.476562 223.550781 264.472656 223.535156 264.464844 C 223.5 264.449219 223.449219 264.421875 223.398438 264.394531 C 223.292969 264.339844 223.183594 264.273438 223.074219 264.207031 C 222.191406 263.648438 221.304688 263.027344 220.425781 262.40625 L 217.789062 260.542969 C 217.609375 260.421875 217.429688 260.296875 217.253906 260.167969 C 217.628906 260.296875 217.996094 260.433594 218.367188 260.5625 C 219.503906 260.921875 220.632812 261.285156 221.828125 261.570312 C 222.132812 261.636719 222.429688 261.699219 222.785156 261.742188 C 223.160156 261.792969 223.628906 261.75 224.023438 261.570312 C 224.300781 261.453125 224.53125 261.28125 224.730469 261.089844 C 224.753906 261.136719 224.78125 261.183594 224.808594 261.226562 C 224.929688 261.40625 225.070312 261.574219 225.234375 261.707031 C 225.558594 261.984375 225.925781 262.179688 226.285156 262.375 C 227.007812 262.757812 227.777344 263.039062 228.554688 263.171875 C 229.332031 263.328125 230.117188 263.28125 230.886719 263.226562 C 231.269531 263.195312 231.652344 263.164062 232.03125 263.089844 C 232.21875 263.050781 232.40625 263 232.59375 262.945312 L 232.875 262.855469 C 232.964844 262.828125 233.058594 262.75 233.109375 262.425781 C 232.980469 262.125 232.886719 262.066406 232.792969 262.0625 L 232.515625 262.019531 C 232.332031 261.996094 232.148438 261.972656 231.96875 261.957031 C 231.601562 261.921875 231.242188 261.914062 230.878906 261.886719 C 230.160156 261.832031 229.457031 261.714844 228.757812 261.667969 C 228.066406 261.601562 227.367188 261.550781 226.714844 261.359375 C 226.390625 261.261719 226.101562 261.097656 225.832031 260.921875 C 225.699219 260.835938 225.566406 260.746094 225.4375 260.652344 C 225.371094 260.601562 225.300781 260.558594 225.234375 260.507812 C 225.226562 260.496094 225.214844 260.492188 225.207031 260.488281 C 225.332031 260.28125 225.433594 260.066406 225.515625 259.851562 C 225.753906 259.183594 225.882812 258.550781 225.789062 257.765625 L 225.777344 257.6875 L 225.769531 257.648438 C 225.761719 257.621094 225.75 257.578125 225.742188 257.546875 C 225.714844 257.464844 225.695312 257.433594 225.671875 257.394531 C 225.648438 257.351562 225.628906 257.320312 225.613281 257.296875 C 225.539062 257.1875 225.476562 257.121094 225.414062 257.050781 C 225.289062 256.917969 225.175781 256.8125 225.054688 256.703125 C 224.820312 256.492188 224.585938 256.300781 224.347656 256.113281 C 223.398438 255.367188 222.4375 254.671875 221.476562 253.96875 C 220.519531 253.269531 219.558594 252.574219 218.578125 251.910156 C 218.089844 251.574219 217.59375 251.25 217.09375 250.933594 C 217.019531 250.890625 216.945312 250.847656 216.875 250.800781 C 217.386719 250.910156 217.898438 251.027344 218.410156 251.148438 C 219.476562 251.40625 220.539062 251.695312 221.601562 251.972656 C 222.695312 252.261719 223.855469 252.496094 225.082031 252.386719 C 225.691406 252.335938 226.320312 252.183594 226.910156 251.867188 C 227.496094 251.550781 228.019531 251.046875 228.332031 250.4375 C 228.480469 250.160156 228.582031 249.867188 228.652344 249.566406 C 230.816406 249.398438 232.949219 249.078125 235.074219 248.714844 C 234.894531 248.453125 234.703125 248.226562 234.507812 248.039062 C 232.546875 248.4375 230.597656 248.890625 228.675781 249.484375 C 228.746094 249.148438 228.785156 248.835938 228.746094 248.4375 C 228.742188 248.390625 228.726562 248.320312 228.714844 248.257812 C 228.703125 248.210938 228.691406 248.164062 228.671875 248.117188 C 228.648438 248.058594 228.59375 247.960938 228.539062 247.894531 C 228.5 247.851562 228.496094 247.851562 228.484375 247.839844 L 228.453125 247.8125 C 228.289062 247.675781 228.230469 247.65625 228.152344 247.609375 C 228.003906 247.527344 227.871094 247.464844 227.738281 247.402344 C 227.472656 247.277344 227.214844 247.164062 226.957031 247.054688 C 225.917969 246.613281 224.882812 246.214844 223.84375 245.824219 C 221.761719 245.039062 219.65625 244.34375 217.511719 243.703125 C 216.976562 243.550781 216.433594 243.402344 215.882812 243.269531 C 215.605469 243.203125 215.324219 243.140625 215.03125 243.085938 C 214.886719 243.058594 214.734375 243.035156 214.574219 243.015625 C 214.410156 243 214.25 242.972656 213.976562 243.007812 C 213.5625 243.074219 213.269531 243.210938 212.984375 243.351562 C 212.703125 243.492188 212.449219 243.644531 212.199219 243.804688 C 211.707031 244.125 211.25 244.472656 210.808594 244.832031 C 209.925781 245.554688 209.105469 246.324219 208.316406 247.125 C 207.921875 247.527344 207.535156 247.9375 207.160156 248.359375 C 206.972656 248.570312 206.789062 248.78125 206.605469 249 C 206.511719 249.113281 206.429688 249.207031 206.351562 249.296875 C 206.273438 249.386719 206.171875 249.476562 206.085938 249.566406 C 204.527344 250.980469 202.597656 252.132812 200.734375 253.273438 L 197.894531 254.964844 L 196.464844 255.796875 C 195.988281 256.074219 195.535156 256.394531 195.167969 256.890625 C 195.785156 256.882812 196.3125 256.6875 196.808594 256.445312 L 198.296875 255.699219 C 199.289062 255.203125 200.265625 254.671875 201.230469 254.121094 C 202.199219 253.574219 203.148438 252.992188 204.085938 252.386719 C 205.027344 251.777344 205.957031 251.15625 206.835938 250.375 C 206.941406 250.269531 207.054688 250.179688 207.160156 250.0625 C 207.269531 249.949219 207.371094 249.835938 207.457031 249.742188 C 207.636719 249.542969 207.824219 249.34375 208.011719 249.148438 C 208.386719 248.753906 208.773438 248.371094 209.167969 248 C 209.960938 247.253906 210.78125 246.539062 211.636719 245.886719 C 212.0625 245.5625 212.496094 245.25 212.9375 244.980469 C 213.160156 244.84375 213.378906 244.71875 213.597656 244.617188 C 213.808594 244.515625 214.03125 244.441406 214.167969 244.425781 C 214.167969 244.421875 214.285156 244.429688 214.394531 244.445312 C 214.507812 244.460938 214.628906 244.484375 214.753906 244.511719 C 215.003906 244.5625 215.261719 244.628906 215.519531 244.699219 C 216.039062 244.835938 216.5625 244.992188 217.085938 245.15625 C 219.175781 245.785156 221.253906 246.523438 223.332031 247.238281 C 224.371094 247.597656 225.40625 247.972656 226.414062 248.371094 C 226.667969 248.472656 226.917969 248.574219 227.15625 248.679688 C 227.234375 248.714844 227.3125 248.75 227.386719 248.785156 C 227.386719 248.917969 227.375 249.074219 227.347656 249.210938 C 227.304688 249.425781 227.238281 249.632812 227.144531 249.824219 C 226.777344 250.59375 225.9375 251.039062 224.953125 251.140625 C 223.96875 251.246094 222.910156 251.113281 221.867188 250.878906 C 220.78125 250.632812 219.6875 250.433594 218.589844 250.25 C 218.042969 250.160156 217.492188 250.078125 216.941406 250 C 216.390625 249.914062 215.828125 249.894531 215.234375 250.128906 C 215.292969 250.171875 215.351562 250.203125 215.414062 250.242188 C 215.410156 250.242188 215.410156 250.242188 215.410156 250.242188 C 215.640625 250.945312 216.175781 251.210938 216.628906 251.59375 C 217.09375 251.960938 217.554688 252.328125 218.027344 252.679688 L 220.855469 254.808594 C 221.789062 255.523438 222.714844 256.257812 223.582031 257.03125 C 223.792969 257.222656 224.007812 257.414062 224.203125 257.613281 C 224.300781 257.707031 224.394531 257.808594 224.46875 257.894531 C 224.480469 257.914062 224.496094 257.933594 224.511719 257.953125 C 224.539062 258.347656 224.421875 258.90625 224.234375 259.332031 C 224.042969 259.777344 223.742188 260.117188 223.457031 260.222656 C 223.308594 260.277344 223.167969 260.296875 222.960938 260.261719 C 222.726562 260.230469 222.449219 260.164062 222.179688 260.09375 C 221.078125 259.816406 219.953125 259.460938 218.839844 259.101562 C 216.59375 258.410156 214.351562 257.667969 212.125 256.90625 L 212.203125 256.941406 C 211.542969 256.636719 210.933594 256.4375 210.277344 256.289062 C 209.628906 256.140625 208.964844 256.058594 208.300781 256.03125 C 207.636719 256.015625 206.972656 256.066406 206.320312 256.191406 C 205.683594 256.328125 204.980469 256.386719 204.542969 257.066406 C 205.300781 257.355469 205.816406 257.058594 206.4375 257.058594 C 207.035156 257.003906 207.636719 257.023438 208.226562 257.101562 C 208.820312 257.164062 209.410156 257.273438 209.980469 257.445312 C 210.542969 257.613281 211.132812 257.828125 211.609375 258.074219 C 211.632812 258.085938 211.652344 258.09375 211.679688 258.105469 L 211.6875 258.109375 C 212.914062 258.582031 214.144531 259.046875 215.382812 259.496094 C 215.9375 260.171875 216.652344 260.644531 217.308594 261.191406 C 218.15625 261.859375 218.996094 262.539062 219.871094 263.179688 C 220.742188 263.820312 221.601562 264.46875 222.539062 265.066406 C 222.660156 265.144531 222.777344 265.21875 222.910156 265.289062 C 222.976562 265.328125 223.046875 265.363281 223.132812 265.402344 C 223.179688 265.421875 223.226562 265.441406 223.308594 265.464844 C 223.308594 265.464844 223.308594 265.464844 223.3125 265.464844 C 223.324219 265.480469 223.332031 265.496094 223.347656 265.523438 C 223.386719 265.597656 223.421875 265.691406 223.449219 265.789062 C 223.558594 266.195312 223.515625 266.648438 223.328125 266.972656 C 223.144531 267.300781 222.804688 267.53125 222.375 267.660156 C 221.949219 267.785156 221.457031 267.816406 220.960938 267.789062 C 219.972656 267.730469 218.925781 267.503906 217.945312 267.203125 C 216.960938 266.894531 216.003906 266.488281 215.066406 266.019531 C 214.121094 265.550781 213.210938 265.011719 212.230469 264.488281 C 211.734375 264.234375 211.226562 263.972656 210.636719 263.785156 C 210.351562 263.695312 210 263.621094 209.707031 263.589844 L 208.902344 263.496094 C 207.816406 263.390625 206.746094 263.238281 205.542969 263.3125 C 205.238281 263.339844 204.925781 263.367188 204.535156 263.511719 C 204.441406 263.550781 204.332031 263.601562 204.222656 263.671875 C 204.167969 263.703125 204.101562 263.757812 204.054688 263.792969 L 203.980469 263.859375 C 203.878906 263.953125 203.761719 264.054688 203.628906 264.191406 C 203.503906 264.335938 203.335938 264.515625 203.242188 264.863281 C 203.144531 265.21875 203.277344 265.628906 203.421875 265.820312 C 203.714844 266.238281 203.992188 266.386719 204.253906 266.566406 C 204.511719 266.726562 204.796875 266.863281 205.019531 266.980469 C 205.230469 267.085938 205.453125 267.214844 205.675781 267.351562 C 206.125 267.617188 206.574219 267.910156 207.019531 268.203125 C 208.804688 269.378906 210.550781 270.636719 212.324219 271.859375 C 213.203125 272.484375 214.09375 273.089844 214.988281 273.699219 C 215.203125 273.847656 215.449219 274.007812 215.640625 274.148438 C 215.832031 274.273438 215.964844 274.429688 216.054688 274.59375 C 216.203125 274.894531 216.230469 275.257812 216.207031 275.785156 C 216.054688 275.808594 215.914062 275.890625 215.828125 276.035156 L 215.820312 276.050781 C 215.730469 276.199219 215.605469 276.378906 215.480469 276.527344 C 215.355469 276.683594 215.222656 276.820312 215.082031 276.933594 C 214.945312 277.046875 214.800781 277.132812 214.675781 277.167969 C 214.546875 277.207031 214.453125 277.203125 214.351562 277.171875 C 214.28125 277.152344 214.207031 277.140625 214.132812 277.148438 C 213.820312 277.175781 213.59375 277.453125 213.621094 277.765625 L 213.621094 277.789062 C 213.671875 278.351562 213.660156 278.980469 213.570312 279.546875 C 213.480469 280.121094 213.3125 280.671875 213.023438 281.066406 C 212.738281 281.46875 212.351562 281.671875 211.871094 281.722656 C 211.382812 281.757812 210.828125 281.652344 210.285156 281.457031 C 210.257812 281.449219 210.230469 281.445312 210.203125 281.441406 C 210.199219 281.386719 210.199219 281.332031 210.191406 281.28125 C 210.15625 280.945312 210.082031 280.617188 210.023438 280.285156 C 209.894531 279.625 209.792969 278.960938 209.566406 278.328125 C 209.359375 277.691406 209.078125 277.074219 208.828125 276.453125 C 208.773438 276.316406 208.726562 276.175781 208.679688 276.035156 C 209.277344 276.28125 209.898438 276.46875 210.515625 276.667969 C 210.894531 276.785156 211.265625 276.914062 211.652344 277.011719 C 211.84375 277.058594 212.039062 277.097656 212.238281 277.132812 L 212.535156 277.183594 C 212.632812 277.207031 212.75 277.179688 212.957031 276.921875 C 212.980469 276.59375 212.914062 276.492188 212.832031 276.441406 L 212.582031 276.269531 C 212.414062 276.164062 212.242188 276.054688 212.070312 275.957031 C 211.726562 275.761719 211.367188 275.597656 211.015625 275.421875 C 210.304688 275.078125 209.605469 274.707031 208.855469 274.460938 C 208.117188 274.195312 207.347656 274 206.589844 273.777344 C 206.210938 273.664062 205.84375 273.515625 205.472656 273.386719 C 205.285156 273.324219 205.09375 273.273438 204.898438 273.230469 L 204.601562 273.179688 C 204.503906 273.160156 204.386719 273.1875 204.195312 273.410156 C 204.183594 273.703125 204.246094 273.804688 204.332031 273.859375 L 204.582031 274.023438 C 204.753906 274.128906 204.925781 274.222656 205.105469 274.304688 C 205.460938 274.472656 205.828125 274.617188 206.179688 274.800781 C 206.625 275.027344 207.066406 275.269531 207.515625 275.496094 C 207.527344 275.585938 207.535156 275.679688 207.554688 275.765625 C 207.621094 276.09375 207.714844 276.417969 207.765625 276.75 C 207.875 277.414062 207.957031 278.085938 208.109375 278.738281 C 208.242188 279.394531 208.503906 280.015625 208.734375 280.648438 C 208.855469 280.960938 208.960938 281.277344 209.105469 281.585938 C 209.148438 281.683594 209.199219 281.773438 209.25 281.867188 C 208.808594 282.164062 208.277344 282.378906 207.847656 282.363281 C 207.574219 282.363281 207.289062 282.261719 207.101562 282.125 C 206.90625 281.980469 206.683594 281.703125 206.496094 281.394531 C 206.113281 280.773438 205.820312 280.035156 205.542969 279.292969 C 205.273438 278.546875 205.035156 277.765625 204.847656 277.007812 C 204.84375 276.992188 204.839844 276.96875 204.832031 276.953125 C 204.699219 276.550781 204.265625 276.328125 203.859375 276.460938 C 202.746094 276.824219 201.558594 277.128906 200.421875 277.316406 C 199.855469 277.402344 199.273438 277.453125 198.800781 277.394531 C 198.6875 277.378906 198.578125 277.355469 198.5 277.328125 L 198.445312 277.308594 C 198.441406 277.300781 198.449219 277.3125 198.429688 277.296875 C 198.40625 277.285156 198.363281 277.25 198.316406 277.214844 C 198.140625 277.070312 197.9375 276.859375 197.753906 276.648438 C 196.996094 275.777344 196.328125 274.769531 195.726562 273.734375 C 195.132812 272.699219 194.605469 271.613281 194.167969 270.5 C 193.308594 268.273438 192.757812 265.902344 192.890625 263.542969 C 192.957031 262.367188 193.183594 261.199219 193.632812 260.109375 C 193.859375 259.5625 194.132812 259.039062 194.449219 258.539062 C 194.761719 258.03125 195.070312 257.523438 195.296875 256.890625 C 194.988281 257.015625 194.71875 257.1875 194.476562 257.390625 C 194.027344 257.203125 193.609375 257.214844 193.203125 257.28125 L 191.910156 257.476562 C 191.046875 257.613281 190.175781 257.707031 189.324219 257.910156 C 187.617188 258.269531 185.902344 258.625 184.222656 259.097656 C 180.828125 259.945312 177.5 261.042969 174.238281 262.3125 C 174.230469 262.3125 174.222656 262.316406 174.214844 262.320312 C 174.207031 262.316406 174.203125 262.308594 174.195312 262.304688 L 173.8125 262.023438 C 173.554688 261.832031 173.273438 261.703125 172.996094 261.550781 C 172.722656 261.398438 172.433594 261.273438 172.144531 261.167969 C 171.851562 261.0625 171.5625 260.933594 171.265625 260.847656 C 170.085938 260.453125 168.878906 260.164062 167.65625 260.046875 C 166.433594 259.914062 165.207031 259.945312 163.992188 259.980469 C 163.6875 259.980469 163.382812 259.984375 163.078125 259.996094 C 162.777344 260 162.472656 260 162.167969 260.019531 C 161.867188 260.03125 161.5625 260.066406 161.261719 260.109375 L 160.808594 260.1875 C 160.660156 260.214844 160.511719 260.292969 160.378906 260.582031 C 160.546875 260.847656 160.699219 260.910156 160.847656 260.921875 L 161.292969 260.964844 C 161.589844 260.988281 161.886719 261 162.183594 261.007812 C 162.773438 261.019531 163.367188 261.03125 163.957031 261.082031 C 165.136719 261.195312 166.308594 261.371094 167.464844 261.554688 L 169.191406 261.828125 L 170.054688 261.960938 L 170.902344 262.140625 C 171.191406 262.191406 171.460938 262.285156 171.742188 262.359375 L 172.164062 262.46875 L 172.574219 262.601562 C 172.757812 262.664062 172.949219 262.714844 173.136719 262.773438 C 170.273438 263.96875 167.476562 265.3125 164.75 266.789062 C 163.972656 267.1875 163.210938 267.617188 162.449219 268.046875 C 161.683594 268.464844 160.933594 268.910156 160.183594 269.363281 C 159.441406 269.824219 158.699219 270.285156 157.984375 270.796875 C 157.625 271.046875 157.269531 271.300781 156.917969 271.566406 C 156.566406 271.824219 156.242188 272.136719 156.054688 272.617188 C 156.570312 272.585938 156.960938 272.398438 157.328125 272.175781 C 157.695312 271.945312 158.070312 271.734375 158.445312 271.511719 C 158.8125 271.289062 159.1875 271.078125 159.5625 270.863281 C 159.9375 270.644531 160.300781 270.417969 160.683594 270.210938 C 162.183594 269.359375 163.695312 268.519531 165.253906 267.769531 C 166.03125 267.390625 166.808594 267.019531 167.601562 266.675781 C 168.390625 266.328125 169.171875 265.957031 169.976562 265.640625 C 170.773438 265.3125 171.566406 264.96875 172.367188 264.648438 L 174.785156 263.726562 C 175.582031 263.402344 176.402344 263.132812 177.210938 262.835938 C 178.023438 262.542969 178.832031 262.242188 179.652344 261.972656 L 182.101562 261.140625 C 182.921875 260.875 183.753906 260.640625 184.578125 260.386719 C 186.222656 259.859375 187.910156 259.476562 189.574219 259.007812 C 190.40625 258.773438 191.25 258.585938 192.089844 258.371094 L 193.351562 258.0625 C 193.59375 258.003906 193.832031 257.925781 194.0625 257.796875 C 193.976562 257.894531 193.886719 257.996094 193.808594 258.097656 C 193.433594 258.613281 193.105469 259.167969 192.828125 259.75 C 192.273438 260.910156 191.9375 262.175781 191.8125 263.457031 C 191.570312 266.03125 192.085938 268.59375 192.960938 270.960938 C 193.398438 272.148438 193.929688 273.300781 194.539062 274.410156 C 195.152344 275.515625 195.824219 276.585938 196.664062 277.589844 C 196.878906 277.84375 197.097656 278.089844 197.390625 278.339844 C 197.464844 278.402344 197.542969 278.464844 197.648438 278.535156 C 197.691406 278.566406 197.769531 278.605469 197.835938 278.640625 L 197.996094 278.703125 C 198.203125 278.78125 198.398438 278.824219 198.585938 278.855469 C 198.632812 278.863281 198.671875 278.863281 198.71875 278.867188 C 198.804688 279.058594 198.894531 279.25 198.988281 279.4375 C 199.285156 280.023438 199.628906 280.578125 199.960938 281.140625 C 200.46875 282.488281 200.355469 283.964844 199.773438 285.226562 C 199.480469 285.859375 199.082031 286.453125 198.601562 286.96875 L 198.230469 287.347656 L 197.828125 287.699219 L 197.40625 288.019531 L 196.9375 288.34375 C 195.6875 289.214844 194.40625 290.035156 193.09375 290.800781 C 191.792969 291.59375 190.453125 292.316406 189.113281 293.042969 C 186.421875 294.472656 183.652344 295.773438 180.8125 296.910156 C 179.386719 297.476562 177.9375 297.96875 176.484375 298.449219 L 174.304688 299.164062 L 173.210938 299.519531 C 172.847656 299.636719 172.496094 299.800781 172.179688 300.144531 C 172.613281 300.320312 173.011719 300.296875 173.394531 300.226562 L 174.527344 299.980469 C 175.285156 299.804688 176.03125 299.601562 176.773438 299.382812 C 178.261719 298.949219 179.726562 298.449219 181.191406 297.933594 C 184.117188 296.914062 187.003906 295.75 189.792969 294.367188 C 191.191406 293.683594 192.546875 292.914062 193.882812 292.113281 C 195.207031 291.285156 196.496094 290.40625 197.742188 289.464844 L 198.210938 289.113281 L 198.695312 288.722656 L 199.148438 288.292969 L 199.570312 287.835938 C 200.113281 287.199219 200.570312 286.484375 200.878906 285.695312 C 201.183594 284.910156 201.351562 284.0625 201.324219 283.214844 C 201.292969 282.367188 201.074219 281.535156 200.707031 280.796875 L 200.6875 280.765625 L 200.679688 280.746094 C 200.316406 280.1875 199.96875 279.617188 199.566406 279.078125 C 199.523438 279.019531 199.480469 278.960938 199.433594 278.902344 C 199.847656 278.902344 200.246094 278.863281 200.636719 278.816406 C 201.65625 278.675781 202.621094 278.4375 203.582031 278.148438 C 203.742188 278.710938 203.914062 279.261719 204.117188 279.816406 C 204.410156 280.621094 204.757812 281.414062 205.25 282.191406 C 205.507812 282.574219 205.792969 282.96875 206.261719 283.3125 C 206.753906 283.644531 207.292969 283.789062 207.847656 283.789062 C 208.394531 283.78125 208.890625 283.628906 209.332031 283.417969 C 209.65625 283.257812 209.941406 283.085938 210.222656 282.863281 C 210.78125 283.015625 211.378906 283.101562 212.019531 283.03125 C 212.414062 282.976562 212.816406 282.855469 213.175781 282.632812 C 213.535156 282.417969 213.835938 282.113281 214.054688 281.785156 C 214.496094 281.121094 214.664062 280.398438 214.753906 279.710938 C 214.808594 279.226562 214.820312 278.761719 214.796875 278.289062 C 214.875 278.273438 214.953125 278.253906 215.027344 278.226562 C 215.332031 278.121094 215.574219 277.953125 215.78125 277.777344 C 215.960938 277.625 216.113281 277.460938 216.253906 277.292969 L 218.128906 280.429688 L 218.132812 280.433594 C 218.21875 280.582031 218.382812 280.679688 218.5625 280.679688 C 219.070312 280.679688 219.636719 280.558594 220.101562 280.222656 C 220.5625 279.890625 220.859375 279.398438 221.027344 278.925781 C 221.355469 277.964844 221.339844 277.015625 221.253906 276.105469 C 221.164062 275.195312 220.984375 274.3125 220.765625 273.441406 C 220.757812 273.410156 220.75 273.378906 220.738281 273.347656 C 222.078125 273.320312 223.390625 273.085938 224.660156 272.757812 C 226.089844 272.375 227.488281 271.898438 228.851562 271.34375 C 231.582031 270.246094 234.210938 268.929688 236.738281 267.421875 L 237.671875 266.847656 C 237.894531 266.710938 238.179688 266.574219 238.460938 266.449219 C 238.421875 266.359375 238.390625 266.265625 238.386719 266.164062 C 238.375 265.820312 238.355469 265.410156 238.328125 264.945312 " fill-opacity="1" fill-rule="nonzero"/>
  </g>
  <path fill="#f1e510" d="M 599.871 255.761 C 598.84 255.952 597.836 256.241 596.824 256.499 C 594.824 257.089 592.847 257.769 590.922 258.569 C 588.996 259.37 587.101 260.237 585.238 261.167 C 584.308 261.632 583.383 262.108 582.484 262.636 C 582.035 262.901 581.594 263.179 581.16 263.472 C 580.734 263.773 580.265 264.007 580.008 264.589 C 580.64 264.636 581.066 264.355 581.539 264.144 C 582.012 263.929 582.472 263.698 582.937 263.476 L 585.691 262.073 C 587.535 261.151 589.406 260.288 591.301 259.491 C 593.207 258.714 595.125 257.98 597.078 257.335 C 598.058 257.042 599.035 256.714 600.035 256.48 C 601.027 256.21 602.031 256.05 603 255.534 C 601.933 255.382 600.883 255.519 599.871 255.761 Z M 562.168 239.882 C 562.043 240.366 561.937 240.851 561.844 241.335 C 561.66 242.312 561.515 243.292 561.379 244.273 C 561.105 246.233 560.859 248.202 560.652 250.175 C 560.433 252.144 560.293 254.128 560.222 256.116 C 560.187 257.108 560.191 258.105 560.203 259.101 C 560.222 259.601 560.23 260.097 560.289 260.593 C 560.371 261.093 560.484 261.585 560.691 262.066 C 560.832 261.554 560.879 261.062 560.898 260.573 C 560.941 260.081 560.937 259.589 560.941 259.101 C 560.976 258.12 561.015 257.14 561.097 256.159 C 561.226 254.198 561.437 252.241 561.644 250.28 C 561.855 248.323 562.101 246.366 562.383 244.413 C 562.519 243.437 562.668 242.464 562.785 241.483 C 562.836 240.991 562.89 240.503 562.922 240.007 C 562.953 239.511 563.062 239.03 562.789 238.483 C 562.344 238.909 562.297 239.405 562.168 239.882 Z M 575.98 215.667 C 575.519 215.882 575.082 216.14 574.66 216.417 C 574.238 216.698 573.828 216.991 573.445 217.323 C 573.047 217.636 572.679 217.983 572.316 218.331 C 570.859 219.73 569.609 221.327 568.523 223.019 L 567.762 224.316 C 567.492 224.745 567.312 225.214 567.086 225.663 C 566.625 226.558 566.277 227.495 565.922 228.433 C 565.73 228.898 565.601 229.382 565.461 229.858 L 565.035 231.296 C 564.793 232.261 564.586 233.245 564.679 234.273 C 565.25 233.386 565.476 232.441 565.746 231.499 L 566.226 230.112 C 566.387 229.655 566.531 229.187 566.738 228.745 C 567.129 227.851 567.476 226.941 567.945 226.089 C 568.363 225.21 568.879 224.39 569.367 223.554 C 570.418 221.925 571.621 220.398 573.012 219.066 C 573.363 218.733 573.711 218.398 574.09 218.101 C 574.277 217.948 574.449 217.784 574.64 217.636 C 574.828 217.487 575.023 217.351 575.211 217.194 C 575.394 217.038 575.59 216.901 575.785 216.761 C 575.98 216.616 576.168 216.46 576.367 216.331 C 576.762 216.042 577.183 215.851 577.488 215.323 C 576.887 215.183 576.433 215.456 575.98 215.667 Z M 608.547 148.589 C 608.371 148.765 608.211 148.952 608.066 149.151 C 607.785 149.562 607.562 150.003 607.375 150.46 C 607.004 151.374 606.75 152.347 606.699 153.335 C 606.664 153.581 606.683 153.831 606.679 154.073 C 606.679 154.323 606.683 154.569 606.722 154.812 L 606.816 155.546 C 606.867 155.784 606.926 156.023 606.988 156.257 C 607.086 156.737 607.301 157.179 607.457 157.636 C 607.637 158.081 607.867 158.519 608.355 158.8 C 608.48 158.218 608.297 157.812 608.152 157.382 C 608.047 156.941 607.887 156.515 607.84 156.066 C 607.644 155.187 607.656 154.292 607.699 153.413 C 607.762 152.53 607.984 151.667 608.312 150.847 C 608.476 150.441 608.683 150.046 608.879 149.651 C 608.984 149.456 609.07 149.249 609.172 149.046 C 609.262 148.827 609.414 148.691 609.301 148.273 C 608.871 148.202 608.73 148.425 608.547 148.589 Z M 632.293 134.062 C 631.875 134.284 631.457 134.413 631.035 134.511 C 630.613 134.608 630.187 134.648 629.769 134.753 L 628.515 135.023 C 628.094 135.112 627.687 135.257 627.277 135.366 C 626.445 135.585 625.644 135.886 624.836 136.163 C 624.437 136.316 624.047 136.491 623.652 136.651 C 623.254 136.804 622.863 136.98 622.48 137.167 C 620.926 137.882 619.433 138.733 618.023 139.702 C 617.316 140.187 616.629 140.698 615.945 141.21 L 614.91 141.972 C 614.554 142.222 614.273 142.534 613.711 142.589 C 613.754 142.019 614.101 141.73 614.398 141.401 C 614.691 141.069 615.019 140.769 615.344 140.468 C 616.012 139.886 616.722 139.362 617.453 138.862 C 618.91 137.866 620.453 136.991 622.058 136.261 C 623.656 135.511 625.336 134.925 627.051 134.519 C 627.48 134.425 627.906 134.304 628.344 134.233 L 629.648 134.023 C 630.082 133.941 630.519 133.901 630.961 133.901 C 631.402 133.905 631.847 133.937 632.293 134.062" fill-opacity="1" fill-rule="nonzero"/>
  <path fill="#65cbc3" d="M 647.828 223.835 C 647.945 223.894 648.066 223.948 648.179 224.007 C 648.402 224.128 648.605 224.261 648.742 224.401 C 648.879 224.542 648.937 224.663 648.953 224.823 C 648.965 224.991 648.914 225.206 648.824 225.429 C 648.738 225.651 648.609 225.87 648.476 226.105 C 648.183 226.612 647.847 227.191 647.89 227.964 C 647.918 228.343 648.07 228.691 648.238 228.96 C 648.406 229.233 648.586 229.46 648.765 229.679 L 649.027 230.003 C 649.097 230.108 649.172 230.194 649.226 230.3 C 649.347 230.503 649.426 230.733 649.472 230.972 C 649.558 231.464 649.527 231.944 649.656 232.573 C 650.176 232.155 650.281 231.48 650.203 230.862 C 650.168 230.546 650.086 230.226 649.941 229.933 C 649.883 229.784 649.785 229.644 649.707 229.511 L 649.469 229.159 C 649.148 228.691 648.844 228.269 648.851 227.905 C 648.84 227.538 649.062 227.069 649.328 226.62 C 649.476 226.37 649.637 226.101 649.75 225.8 C 649.871 225.503 649.976 225.163 649.953 224.761 C 649.937 224.358 649.722 223.948 649.465 223.694 C 649.207 223.433 648.926 223.265 648.66 223.116 C 648.523 223.042 648.39 222.976 648.258 222.913 C 648.183 222.866 648.113 222.835 648.082 222.792 C 648.012 222.714 647.965 222.605 647.972 222.398 C 647.98 222.198 648.027 221.956 648.101 221.71 C 648.168 221.452 648.32 221.257 648.187 220.819 C 647.722 220.835 647.586 221.124 647.41 221.374 C 647.238 221.632 647.086 221.921 647.023 222.284 C 646.961 222.628 647.015 223.12 647.328 223.464 C 647.476 223.64 647.66 223.741 647.828 223.835 Z M 644.019 231.819 C 643.894 231.722 643.738 231.648 643.605 231.573 L 643.222 231.386 C 642.715 231.136 642.238 230.925 642.066 230.605 C 641.875 230.292 641.836 229.773 641.844 229.253 C 641.847 228.96 641.851 228.651 641.801 228.331 C 641.758 228.011 641.679 227.667 641.465 227.327 C 641.25 226.987 640.859 226.737 640.508 226.648 C 640.156 226.55 639.828 226.542 639.523 226.546 C 639.371 226.55 639.222 226.562 639.074 226.573 C 638.988 226.569 638.914 226.573 638.863 226.554 C 638.762 226.523 638.668 226.452 638.57 226.265 C 638.48 226.089 638.398 225.855 638.34 225.605 C 638.273 225.347 638.308 225.101 637.976 224.792 C 637.578 225.038 637.601 225.355 637.574 225.659 C 637.558 225.968 637.566 226.296 637.691 226.64 C 637.804 226.972 638.101 227.37 638.543 227.511 C 638.758 227.589 638.969 227.585 639.16 227.585 C 639.293 227.573 639.426 227.566 639.551 227.562 C 639.804 227.554 640.047 227.566 640.234 227.62 C 640.422 227.675 640.535 227.749 640.625 227.886 C 640.719 228.019 640.781 228.233 640.812 228.472 C 640.851 228.706 640.847 228.96 640.847 229.23 C 640.847 229.816 640.844 230.487 641.265 231.136 C 641.476 231.452 641.781 231.675 642.058 231.827 C 642.34 231.98 642.609 232.085 642.871 232.187 L 643.258 232.339 C 643.371 232.394 643.48 232.429 643.582 232.499 C 643.785 232.612 643.969 232.769 644.129 232.956 C 644.445 233.339 644.66 233.769 645.082 234.253 C 645.324 233.628 645.082 232.995 644.707 232.495 C 644.519 232.237 644.289 232.007 644.019 231.819 Z M 654.148 231.831 C 654.316 231.566 654.445 231.261 654.519 230.944 C 654.562 230.788 654.574 230.616 654.597 230.464 L 654.629 230.038 C 654.672 229.476 654.691 228.952 654.922 228.675 C 655.144 228.378 655.609 228.151 656.094 227.968 C 656.367 227.866 656.656 227.753 656.937 227.589 C 657.215 227.433 657.508 227.23 657.738 226.905 C 657.976 226.577 658.062 226.124 658.019 225.765 C 657.98 225.398 657.867 225.093 657.746 224.808 C 657.687 224.667 657.625 224.534 657.558 224.401 C 657.531 224.316 657.496 224.249 657.496 224.194 C 657.488 224.089 657.523 223.972 657.656 223.819 C 657.789 223.667 657.976 223.503 658.183 223.358 C 658.398 223.202 658.64 223.144 658.804 222.718 C 658.429 222.441 658.144 222.577 657.851 222.663 C 657.558 222.761 657.258 222.894 656.988 223.136 C 656.722 223.362 656.457 223.784 656.492 224.249 C 656.5 224.48 656.578 224.671 656.652 224.851 C 656.711 224.972 656.769 225.089 656.816 225.206 C 656.918 225.441 656.996 225.671 657.015 225.862 C 657.035 226.062 657.008 226.191 656.914 226.327 C 656.824 226.464 656.648 226.601 656.441 226.718 C 656.234 226.839 656.004 226.933 655.75 227.03 C 655.207 227.249 654.582 227.491 654.137 228.124 C 653.922 228.437 653.824 228.804 653.789 229.116 C 653.75 229.437 653.75 229.73 653.754 230.011 L 653.758 230.425 C 653.746 230.554 653.754 230.667 653.73 230.784 C 653.695 231.019 653.621 231.245 653.508 231.464 C 653.269 231.901 652.945 232.257 652.652 232.831 C 653.32 232.827 653.824 232.366 654.148 231.831 Z M 662.168 256.226 C 662.148 256.53 661.953 256.796 661.668 256.913 L 655.707 259.292 C 655.195 259.495 654.637 259.136 654.613 258.589 C 654.465 255.066 653.789 244.308 651.101 240.878 L 645.64 241.722 L 645.566 237.464 C 645.508 236.378 646.187 235.417 647.137 235.233 L 648.097 235.05 L 658.375 233.085 C 658.801 233.003 659.242 233.093 659.621 233.331 L 661.219 234.355 C 661.801 234.726 662.168 235.413 662.179 236.167 L 662.211 237.858 C 662.222 238.366 662.07 238.843 661.804 239.222 L 659.222 239.62 C 660.125 240.37 661.074 241.608 661.605 243.663 C 662.652 247.714 662.297 254.358 662.168 256.226" fill-opacity="1" fill-rule="nonzero"/>
  <g clip-path="url(#e97d70e05b)" transform="matrix(1, 0, 0, 1, 416.225867, -7.575912)">
    <path fill="#035ffd" d="M 172.269531 234.746094 C 171.871094 234.882812 171.660156 235.316406 171.796875 235.710938 C 171.824219 235.789062 174.394531 243.613281 171.664062 260.902344 C 171.597656 261.316406 171.882812 261.707031 172.296875 261.773438 C 172.335938 261.78125 172.375 261.78125 172.414062 261.78125 C 172.78125 261.78125 173.105469 261.515625 173.164062 261.140625 C 175.964844 243.410156 173.347656 235.542969 173.234375 235.214844 C 173.097656 234.816406 172.664062 234.609375 172.269531 234.746094 Z M 258.324219 237.910156 C 258.359375 237.910156 258.398438 237.910156 258.433594 237.902344 C 258.847656 237.839844 259.136719 237.453125 259.074219 237.039062 C 257.023438 223.136719 259.066406 214.015625 259.089844 213.925781 C 259.183594 213.515625 258.929688 213.109375 258.519531 213.011719 C 258.109375 212.917969 257.703125 213.171875 257.609375 213.582031 C 257.519531 213.960938 255.472656 223.046875 257.574219 237.261719 C 257.628906 237.640625 257.953125 237.910156 258.324219 237.910156 Z M 170.820312 230.683594 C 169.910156 226.117188 165.328125 219.949219 165.132812 219.691406 C 164.878906 219.355469 164.40625 219.285156 164.070312 219.539062 C 163.734375 219.789062 163.664062 220.265625 163.917969 220.605469 C 163.964844 220.664062 168.488281 226.75 169.332031 230.984375 C 169.40625 231.347656 169.722656 231.597656 170.074219 231.597656 C 170.125 231.597656 170.175781 231.589844 170.226562 231.582031 C 170.636719 231.5 170.902344 231.097656 170.820312 230.683594 Z M 241.105469 246.40625 L 241.898438 246.183594 C 242.160156 246.105469 242.414062 245.976562 242.621094 245.632812 C 242.296875 245.402344 242.011719 245.378906 241.742188 245.410156 L 240.925781 245.515625 C 240.382812 245.585938 239.839844 245.65625 239.296875 245.746094 C 238.214844 245.910156 237.140625 246.097656 236.066406 246.292969 C 235.917969 246.320312 235.777344 246.398438 235.675781 246.523438 C 235.453125 246.804688 235.496094 247.210938 235.773438 247.4375 L 235.84375 247.496094 C 235.894531 247.535156 236.0625 247.691406 236.164062 247.816406 C 236.28125 247.949219 236.390625 248.101562 236.5 248.25 C 236.703125 248.5625 236.902344 248.886719 237.0625 249.238281 C 237.402344 249.9375 237.65625 250.6875 237.882812 251.445312 C 238.335938 252.976562 238.609375 254.574219 238.816406 256.203125 C 239.019531 257.84375 239.1875 259.492188 239.230469 261.144531 C 239.246094 261.96875 239.257812 262.792969 239.246094 263.617188 L 239.238281 264.851562 C 239.242188 265.269531 239.136719 265.652344 239.480469 266.125 C 239.964844 265.78125 239.945312 265.335938 240.023438 264.921875 C 240.097656 264.503906 240.140625 264.082031 240.179688 263.660156 C 240.246094 262.816406 240.265625 261.972656 240.261719 261.132812 C 240.261719 259.449219 240.238281 257.765625 240.148438 256.085938 C 240.058594 254.398438 239.855469 252.675781 239.359375 251.003906 C 239.113281 250.167969 238.765625 249.355469 238.34375 248.570312 C 238.136719 248.175781 237.882812 247.796875 237.605469 247.429688 C 237.578125 247.390625 237.542969 247.351562 237.511719 247.3125 C 238.179688 247.15625 238.851562 246.996094 239.515625 246.828125 C 240.050781 246.699219 240.578125 246.550781 241.105469 246.40625 Z M 232.300781 245.769531 C 232.289062 245.773438 232.285156 245.777344 232.300781 245.769531 Z M 231.023438 246.664062 C 230.960938 246.289062 230.972656 245.914062 231.121094 245.460938 C 231.160156 245.335938 231.195312 245.21875 231.289062 245.050781 C 231.339844 244.964844 231.402344 244.871094 231.523438 244.761719 C 231.695312 244.613281 231.792969 244.597656 231.84375 244.574219 C 232.082031 244.488281 232.242188 244.457031 232.425781 244.410156 C 233.835938 244.09375 235.207031 243.878906 236.597656 243.660156 C 237.984375 243.441406 239.371094 243.246094 240.761719 243.058594 L 242.84375 242.792969 C 243.539062 242.691406 244.238281 242.644531 244.980469 242.859375 C 244.339844 243.292969 243.660156 243.464844 242.972656 243.585938 L 240.910156 243.992188 L 236.796875 244.789062 C 235.429688 245.0625 234.042969 245.320312 232.726562 245.640625 C 232.652344 245.660156 232.570312 245.683594 232.496094 245.707031 C 232.496094 245.710938 232.496094 245.714844 232.496094 245.722656 C 232.523438 245.960938 232.542969 246.289062 232.503906 246.613281 C 232.476562 246.941406 232.398438 247.289062 232.375 247.636719 C 232.363281 247.808594 232.382812 247.980469 232.378906 248.152344 C 232.375 248.238281 232.363281 248.328125 232.34375 248.417969 L 232.304688 248.554688 C 232.28125 248.601562 232.214844 248.652344 231.964844 248.734375 C 231.703125 248.726562 231.617188 248.695312 231.585938 248.652344 L 231.511719 248.527344 C 231.46875 248.445312 231.433594 248.359375 231.40625 248.273438 C 231.367188 248.097656 231.34375 247.917969 231.296875 247.742188 C 231.203125 247.390625 231.074219 247.039062 231.023438 246.664062 Z M 264.394531 269.835938 C 263.964844 269.804688 263.613281 270.128906 263.589844 270.546875 C 262.203125 292.433594 243.355469 330.269531 225.984375 338.980469 C 225.609375 339.167969 225.457031 339.625 225.644531 340 C 225.777344 340.265625 226.046875 340.421875 226.320312 340.421875 C 226.4375 340.421875 226.554688 340.394531 226.664062 340.339844 C 235.105469 336.109375 244.464844 325.082031 252.332031 310.089844 C 259.539062 296.363281 264.429688 281.246094 265.105469 270.644531 C 265.128906 270.222656 264.8125 269.863281 264.394531 269.835938 Z M 228.382812 326.5 C 228.707031 326.5 229.007812 326.289062 229.109375 325.964844 C 229.234375 325.5625 229.007812 325.136719 228.609375 325.011719 C 213.367188 320.265625 204.886719 304.546875 197.351562 288.046875 C 196.984375 288.421875 196.597656 288.792969 196.1875 289.160156 C 203.808594 305.792969 212.453125 321.578125 228.160156 326.464844 C 228.234375 326.488281 228.308594 326.5 228.382812 326.5 Z M 171.792969 300.96875 C 171.34375 301.078125 170.894531 301.179688 170.441406 301.28125 C 170.429688 301.363281 170.421875 301.449219 170.4375 301.539062 C 170.472656 301.773438 174.066406 325.101562 172.429688 343.832031 C 172.394531 344.25 172.703125 344.621094 173.121094 344.65625 C 173.140625 344.65625 173.164062 344.660156 173.1875 344.660156 C 173.578125 344.660156 173.90625 344.359375 173.941406 343.964844 C 175.597656 325.050781 171.972656 301.539062 171.9375 301.300781 C 171.917969 301.175781 171.863281 301.0625 171.792969 300.96875 Z M 176.984375 250.613281 C 179.625 253.542969 181.976562 256.925781 184.164062 260.625 L 182.652344 261.066406 C 180.574219 257.578125 178.34375 254.390625 175.859375 251.636719 C 175.578125 251.324219 175.601562 250.84375 175.914062 250.5625 C 176.222656 250.28125 176.703125 250.304688 176.984375 250.613281 " fill-opacity="1" fill-rule="nonzero"/>
  </g>
  <g clip-path="url(#d756662157)" transform="matrix(1, 0, 0, 1, 416.225867, -7.575912)">
    <path fill="#a5e2f9" d="M 420.933594 141.242188 C 420.933594 129.027344 411.007812 119.125 398.765625 119.125 L 362.664062 119.125 C 350.421875 119.125 340.496094 129.027344 340.496094 141.242188 L 332.136719 190.445312 L 429.292969 190.445312 L 420.933594 141.242188 " fill-opacity="1" fill-rule="nonzero"/>
  </g>
  <g clip-path="url(#3bcf872336)" transform="matrix(1, 0, 0, 1, 416.225867, -7.575912)">
    <path fill="#a5e2f9" d="M 420.933594 339.875 C 420.933594 352.085938 411.007812 361.988281 398.765625 361.988281 L 362.664062 361.988281 C 350.421875 361.988281 340.496094 352.085938 340.496094 339.875 L 332.136719 290.667969 L 429.292969 290.667969 L 420.933594 339.875 " fill-opacity="1" fill-rule="nonzero"/>
  </g>
  <g clip-path="url(#a7f41cc908)" transform="matrix(1, 0, 0, 1, 416.225867, -7.575912)">
    <path fill="#6a95b8" d="M 450.078125 271.617188 C 450.078125 292.683594 432.964844 309.757812 411.847656 309.757812 L 349.582031 309.757812 C 328.472656 309.757812 311.351562 292.683594 311.351562 271.617188 L 311.351562 209.5 C 311.351562 188.441406 328.472656 171.359375 349.582031 171.359375 L 411.847656 171.359375 C 432.964844 171.359375 450.078125 188.441406 450.078125 209.5 L 450.078125 271.617188 " fill-opacity="1" fill-rule="nonzero"/>
  </g>
  <path fill="#a5e2f9" d="M 853.871 258.476 C 853.871 275.765 839.824 289.776 822.492 289.776 L 771.39 289.776 C 754.066 289.776 740.012 275.765 740.012 258.476 L 740.012 207.491 C 740.012 190.21 754.066 176.191 771.39 176.191 L 822.492 176.191 C 839.824 176.191 853.871 190.21 853.871 207.491 L 853.871 258.476" fill-opacity="1" fill-rule="nonzero"/>
  <path fill="#ffffff" d="M 795.664 278.89 C 795.5 278.89 795.324 278.87 795.148 278.847 C 793.742 278.593 792.734 277.335 792.777 275.905 L 794.887 213.206 L 784.023 236.655 C 783.554 237.675 782.531 238.331 781.402 238.331 L 749.64 238.331 C 748.039 238.331 746.746 237.038 746.746 235.452 C 746.746 233.855 748.039 232.566 749.64 232.566 L 779.554 232.566 L 795.637 197.835 C 796.215 196.585 797.59 195.925 798.926 196.237 C 800.265 196.562 801.191 197.773 801.148 199.144 L 799.215 256.687 L 813.031 216.226 C 813.453 214.976 814.668 214.175 815.988 214.28 C 817.308 214.382 818.383 215.362 818.609 216.659 L 821.375 232.566 L 844.242 232.566 C 845.844 232.566 847.137 233.855 847.137 235.452 C 847.137 237.038 845.844 238.331 844.242 238.331 L 818.941 238.331 C 817.543 238.331 816.336 237.319 816.094 235.941 L 814.851 228.769 L 798.402 276.937 C 798 278.12 796.89 278.89 795.664 278.89" fill-opacity="1" fill-rule="nonzero"/>
  <g fill="#00a6ff" fill-opacity="1" transform="matrix(1, 0, 0, 1, 416.225867, -7.575912)">
    <g transform="translate(195.860197, 411.24017)">
      <g>
        <path d="M 2.21875 -30.515625 L 13.34375 -30.515625 C 16.457031 -30.515625 18.972656 -29.710938 20.890625 -28.109375 C 22.816406 -26.503906 23.78125 -24.171875 23.78125 -21.109375 C 23.78125 -18.054688 22.804688 -15.660156 20.859375 -13.921875 C 18.910156 -12.179688 16.40625 -11.3125 13.34375 -11.3125 L 9.171875 -11.3125 L 9.171875 0 L 2.21875 0 Z M 9.171875 -16.859375 L 11.125 -16.859375 C 12.6875 -16.859375 13.960938 -17.171875 14.953125 -17.796875 C 15.953125 -18.429688 16.453125 -19.460938 16.453125 -20.890625 C 16.453125 -22.347656 15.953125 -23.390625 14.953125 -24.015625 C 13.960938 -24.648438 12.6875 -24.96875 11.125 -24.96875 L 9.171875 -24.96875 Z M 9.171875 -16.859375 "/>
      </g>
    </g>
  </g>
  <g fill="#00a6ff" fill-opacity="1" transform="matrix(1, 0, 0, 1, 416.225867, -7.575912)">
    <g transform="translate(220.487233, 411.24017)">
      <g>
        <path d="M 3.5 -2.34375 C 1.726562 -4.28125 0.84375 -6.65625 0.84375 -9.46875 C 0.84375 -12.28125 1.726562 -14.660156 3.5 -16.609375 C 5.28125 -18.554688 7.539062 -19.53125 10.28125 -19.53125 C 12.789062 -19.53125 14.863281 -18.738281 16.5 -17.15625 L 16.5 -18.96875 L 23.046875 -18.96875 L 23.046875 0 L 16.5625 0 L 16.5625 -2.140625 L 16.5 -2.140625 C 14.863281 -0.335938 12.789062 0.5625 10.28125 0.5625 C 7.539062 0.5625 5.28125 -0.40625 3.5 -2.34375 Z M 9.078125 -12.671875 C 8.222656 -11.835938 7.796875 -10.769531 7.796875 -9.46875 C 7.796875 -8.164062 8.203125 -7.097656 9.015625 -6.265625 C 9.835938 -5.441406 10.910156 -5.03125 12.234375 -5.03125 C 13.523438 -5.03125 14.582031 -5.445312 15.40625 -6.28125 C 16.226562 -7.125 16.640625 -8.1875 16.640625 -9.46875 C 16.640625 -10.769531 16.210938 -11.835938 15.359375 -12.671875 C 14.515625 -13.515625 13.472656 -13.9375 12.234375 -13.9375 C 10.984375 -13.9375 9.929688 -13.515625 9.078125 -12.671875 Z M 9.078125 -12.671875 "/>
      </g>
    </g>
  </g>
  <g fill="#00a6ff" fill-opacity="1" transform="matrix(1, 0, 0, 1, 416.225867, -7.575912)">
    <g transform="translate(245.742886, 411.24017)">
      <g>
        <path d="M 12.3125 -14.171875 C 11.082031 -14.171875 10.019531 -13.710938 9.125 -12.796875 C 8.238281 -11.878906 7.796875 -10.78125 7.796875 -9.5 C 7.796875 -8.195312 8.238281 -7.085938 9.125 -6.171875 C 10.019531 -5.265625 11.082031 -4.8125 12.3125 -4.8125 C 12.90625 -4.8125 13.46875 -4.882812 14 -5.03125 C 14.53125 -5.175781 14.914062 -5.320312 15.15625 -5.46875 L 15.5 -5.703125 L 17.71875 -1.140625 C 17.539062 -1.023438 17.296875 -0.875 16.984375 -0.6875 C 16.679688 -0.5 15.976562 -0.242188 14.875 0.078125 C 13.78125 0.398438 12.609375 0.5625 11.359375 0.5625 C 8.566406 0.5625 6.113281 -0.414062 4 -2.375 C 1.894531 -4.34375 0.84375 -6.695312 0.84375 -9.4375 C 0.84375 -12.195312 1.894531 -14.566406 4 -16.546875 C 6.113281 -18.535156 8.566406 -19.53125 11.359375 -19.53125 C 12.609375 -19.53125 13.765625 -19.378906 14.828125 -19.078125 C 15.890625 -18.785156 16.644531 -18.492188 17.09375 -18.203125 L 17.71875 -17.75 L 15.5 -13.28125 C 14.6875 -13.875 13.625 -14.171875 12.3125 -14.171875 Z M 12.3125 -14.171875 "/>
      </g>
    </g>
  </g>
  <g fill="#00a6ff" fill-opacity="1" transform="matrix(1, 0, 0, 1, 416.225867, -7.575912)">
    <g transform="translate(263.898853, 411.24017)">
      <g>
        <path d="M 2.84375 -29.546875 C 3.613281 -30.316406 4.523438 -30.703125 5.578125 -30.703125 C 6.640625 -30.703125 7.550781 -30.316406 8.3125 -29.546875 C 9.082031 -28.785156 9.46875 -27.875 9.46875 -26.8125 C 9.46875 -25.75 9.082031 -24.835938 8.3125 -24.078125 C 7.550781 -23.316406 6.640625 -22.9375 5.578125 -22.9375 C 4.523438 -22.9375 3.613281 -23.316406 2.84375 -24.078125 C 2.082031 -24.835938 1.703125 -25.75 1.703125 -26.8125 C 1.703125 -27.875 2.082031 -28.785156 2.84375 -29.546875 Z M 2.21875 -18.96875 L 2.21875 0 L 8.765625 0 L 8.765625 -18.96875 Z M 2.21875 -18.96875 "/>
      </g>
    </g>
  </g>
  <g fill="#00a6ff" fill-opacity="1" transform="matrix(1, 0, 0, 1, 416.225867, -7.575912)">
    <g transform="translate(275.066065, 411.24017)">
      <g>
        <path d="M 21.40625 -8.578125 L 7.65625 -8.578125 C 7.65625 -7.242188 8.085938 -6.253906 8.953125 -5.609375 C 9.816406 -4.972656 10.753906 -4.65625 11.765625 -4.65625 C 12.816406 -4.65625 13.648438 -4.796875 14.265625 -5.078125 C 14.890625 -5.367188 15.597656 -5.929688 16.390625 -6.765625 L 21.125 -4.40625 C 19.144531 -1.09375 15.863281 0.5625 11.28125 0.5625 C 8.414062 0.5625 5.957031 -0.414062 3.90625 -2.375 C 1.863281 -4.34375 0.84375 -6.707031 0.84375 -9.46875 C 0.84375 -12.226562 1.863281 -14.59375 3.90625 -16.5625 C 5.957031 -18.539062 8.414062 -19.53125 11.28125 -19.53125 C 14.289062 -19.53125 16.738281 -18.660156 18.625 -16.921875 C 20.507812 -15.179688 21.453125 -12.695312 21.453125 -9.46875 C 21.453125 -9.019531 21.4375 -8.722656 21.40625 -8.578125 Z M 7.84375 -12.203125 L 15.046875 -12.203125 C 14.898438 -13.191406 14.507812 -13.953125 13.875 -14.484375 C 13.25 -15.015625 12.445312 -15.28125 11.46875 -15.28125 C 10.382812 -15.28125 9.519531 -14.992188 8.875 -14.421875 C 8.238281 -13.859375 7.894531 -13.117188 7.84375 -12.203125 Z M 7.84375 -12.203125 "/>
      </g>
    </g>
  </g>
  <g fill="#00a6ff" fill-opacity="1" transform="matrix(1, 0, 0, 1, 416.225867, -7.575912)">
    <g transform="translate(297.363518, 411.24017)">
      <g>
        <path d="M 2.21875 0 L 2.21875 -18.96875 L 8.765625 -18.96875 L 8.765625 -16.96875 L 8.84375 -16.96875 C 10.539062 -18.675781 12.351562 -19.53125 14.28125 -19.53125 C 15.21875 -19.53125 16.144531 -19.40625 17.0625 -19.15625 C 17.988281 -18.90625 18.875 -18.519531 19.71875 -18 C 20.570312 -17.488281 21.265625 -16.757812 21.796875 -15.8125 C 22.328125 -14.863281 22.59375 -13.757812 22.59375 -12.5 L 22.59375 0 L 16.046875 0 L 16.046875 -10.71875 C 16.046875 -11.707031 15.734375 -12.570312 15.109375 -13.3125 C 14.484375 -14.050781 13.664062 -14.421875 12.65625 -14.421875 C 11.664062 -14.421875 10.769531 -14.035156 9.96875 -13.265625 C 9.164062 -12.503906 8.765625 -11.65625 8.765625 -10.71875 L 8.765625 0 Z M 2.21875 0 "/>
      </g>
    </g>
  </g>
  <g fill="#00a6ff" fill-opacity="1" transform="matrix(1, 0, 0, 1, 416.225867, -7.575912)">
    <g transform="translate(321.805664, 411.24017)">
      <g>
        <path d="M 3.328125 -18.96875 L 3.328125 -26.03125 L 9.875 -26.03125 L 9.875 -18.96875 L 13.875 -18.96875 L 13.875 -13.984375 L 9.875 -13.984375 L 9.875 -7.953125 C 9.875 -6.203125 10.367188 -5.328125 11.359375 -5.328125 C 11.597656 -5.328125 11.851562 -5.375 12.125 -5.46875 C 12.394531 -5.570312 12.609375 -5.671875 12.765625 -5.765625 L 12.984375 -5.921875 L 14.609375 -0.625 C 13.203125 0.164062 11.597656 0.5625 9.796875 0.5625 C 8.566406 0.5625 7.503906 0.347656 6.609375 -0.078125 C 5.722656 -0.515625 5.050781 -1.097656 4.59375 -1.828125 C 4.144531 -2.554688 3.820312 -3.320312 3.625 -4.125 C 3.425781 -4.925781 3.328125 -5.78125 3.328125 -6.6875 L 3.328125 -13.984375 L 0.59375 -13.984375 L 0.59375 -18.96875 Z M 3.328125 -18.96875 "/>
      </g>
    </g>
  </g>
  <g fill="#00a6ff" fill-opacity="1" transform="matrix(1, 0, 0, 1, 416.225867, -7.575912)">
    <g transform="translate(336.411783, 411.24017)">
      <g>
        <path d="M 21.40625 -8.578125 L 7.65625 -8.578125 C 7.65625 -7.242188 8.085938 -6.253906 8.953125 -5.609375 C 9.816406 -4.972656 10.753906 -4.65625 11.765625 -4.65625 C 12.816406 -4.65625 13.648438 -4.796875 14.265625 -5.078125 C 14.890625 -5.367188 15.597656 -5.929688 16.390625 -6.765625 L 21.125 -4.40625 C 19.144531 -1.09375 15.863281 0.5625 11.28125 0.5625 C 8.414062 0.5625 5.957031 -0.414062 3.90625 -2.375 C 1.863281 -4.34375 0.84375 -6.707031 0.84375 -9.46875 C 0.84375 -12.226562 1.863281 -14.59375 3.90625 -16.5625 C 5.957031 -18.539062 8.414062 -19.53125 11.28125 -19.53125 C 14.289062 -19.53125 16.738281 -18.660156 18.625 -16.921875 C 20.507812 -15.179688 21.453125 -12.695312 21.453125 -9.46875 C 21.453125 -9.019531 21.4375 -8.722656 21.40625 -8.578125 Z M 7.84375 -12.203125 L 15.046875 -12.203125 C 14.898438 -13.191406 14.507812 -13.953125 13.875 -14.484375 C 13.25 -15.015625 12.445312 -15.28125 11.46875 -15.28125 C 10.382812 -15.28125 9.519531 -14.992188 8.875 -14.421875 C 8.238281 -13.859375 7.894531 -13.117188 7.84375 -12.203125 Z M 7.84375 -12.203125 "/>
      </g>
    </g>
  </g>
</svg>