<svg width="667" height="667" viewBox="0 0 667 667" fill="none" xmlns="http://www.w3.org/2000/svg">
<path d="M333.5 0C149.313 0 0 149.313 0 333.5C0 517.688 149.313 667 333.5 667C517.688 667 667 517.688 667 333.5C667 149.313 517.688 0 333.5 0Z" fill="#D3EAFF"/>
<path d="M660.432 146.229C662.87 147.875 664.01 151.641 663.479 154.547C662.74 158.63 659.833 161.87 656.068 163.188C657.151 164.833 657.943 166.656 657.599 168.672C657.177 171.036 655.354 172.755 653.448 174.047C652.953 174.375 652.458 174.693 651.943 175.01C652.026 175.104 652.094 175.214 652.13 175.344C652.495 176.776 652.682 178.234 652.682 179.719C652.682 181.13 652.578 182.651 651.979 183.943C651.01 186.016 648.979 187.286 646.792 187.594C646.391 187.651 645.979 187.661 645.568 187.661C637.49 223.953 624.406 256.651 606.672 284.849C605.849 285.87 590.807 304.167 561.24 316.031L560.922 316.161L560.719 316.443C556.781 322.021 552.807 326.703 548.557 330.75C543.677 335.411 539.031 338.74 534.354 340.943C526.224 344.755 516.849 345.635 508.76 345.99C503.516 346.214 498.927 346.328 494.74 346.328C480.51 346.328 468.724 345.036 455.349 342.026L453.646 341.635L453.927 343.354C454.021 343.906 454.01 344.354 453.906 344.719L452.375 344.766L452.813 346.271C463.797 379.938 467.474 408.365 471.146 442.021C471.885 448.776 472.5 455.661 473.089 462.307C473.484 466.755 473.875 471.214 474.307 475.651C479.026 523.813 488.531 572.109 497.729 618.813L498.516 622.786C487.609 632.193 473.755 637.745 459.406 638.474L459.172 638.484L458.901 638.594C458.208 638.932 457.62 639.13 457.057 639.25C449.964 640.661 441.635 642.521 432.313 644.781C432.182 644.818 432.135 644.839 432.089 644.839L431.969 644.865C419.125 647.969 408.411 650.865 406.13 651.474L405.917 650.854L404.833 651.109C388.359 655.828 371.104 658.219 353.542 658.219C317.474 658.219 281.292 647.865 251.562 629.036C261.323 599.37 271.073 569.693 280.823 540.016L288.271 517.354C290.844 509.516 293.5 501.422 295.005 493.057C301.089 459.271 288.031 425.969 275.401 393.766L274.953 392.635C265.547 368.62 257.052 345.026 256.443 320.359C255.875 297.417 265.63 287.833 282.917 272.88L297.052 260.667L303.854 254.792L304.172 255.125L304.49 255.203C305.453 255.453 306.406 255.714 307.37 256.005L308.26 253.839C307.594 253.49 306.932 253.146 306.266 252.807L305.708 252.521L314.943 237.234L315.979 237.271C315.698 237.141 315.531 236.823 315.589 236.505C315.615 236.365 315.651 236.224 315.661 236.083C316.354 232.104 316.109 227.974 315.87 223.964C315.568 218.964 315.26 213.88 314.568 208.865C314.51 208.417 314.427 207.974 314.354 207.526C290.443 198.333 276.755 178.896 276.755 154.068C276.755 139.203 284.094 125.047 297.406 114.198C310.016 103.927 326.292 98.0313 342.089 98.0313C360.156 98.0313 374.453 104.01 383.464 115.318C383.667 115.167 383.875 115.01 384.078 114.859C384.193 114.75 384.349 114.719 384.49 114.719C384.51 114.719 384.536 114.729 384.557 114.729C384.734 114.766 384.891 114.859 384.984 115.01L385.911 116.495L386.016 116.656C390.484 123.776 395.109 131.13 397.073 139.406C397.813 142.5 398.167 145.714 398.505 148.818C399.016 153.313 399.531 157.964 401.214 162.172C402.25 164.797 403.766 167.281 405.224 169.693C407.104 172.802 409.057 176.01 410.068 179.599C412.385 187.792 409.516 196.536 407.198 203.557L401.885 219.667C401.13 221.974 400.26 224.589 398.651 226.693C396.875 229 394.37 230.484 392.391 231.531C388.323 233.661 383.969 235.12 379.49 235.885C379.021 238.047 378.469 240.167 377.865 242.25H377.88C379.573 242.557 381.359 242.521 383.146 241.922C385.38 241.167 387.323 239.589 389.203 238.073L389.604 237.745C398.755 230.344 408.974 224.141 418.844 218.151C420.734 216.995 422.875 215.703 425.302 215.359C427.63 215.031 430.583 215.76 431.896 218.172C433.24 220.609 432.193 223.458 431.438 224.927C429.297 229.188 425.427 232.167 421.677 235.047C418.115 237.792 414.729 240.401 412.703 244.016C415.552 243.688 418.453 245.474 420.161 247.578C421.464 249.182 422.37 250.979 422.995 252.922C423.161 253.443 423.302 253.958 423.443 254.49C425.995 255.828 428.536 257.219 430.995 258.573C438.859 262.901 447 267.385 456.094 270.182C466.302 273.313 476.688 275.115 484.589 276.328L485.552 276.479L485.87 275.563C501.479 231.057 520.026 166.74 519.859 112.495L653.953 78.7812C654.391 83.8281 655.693 102.63 653.979 128.589L653.943 129.13C654.328 128.943 654.729 128.792 655.151 128.661C657.953 127.828 661.292 128.391 663.245 130.401C665.63 132.865 666.089 136.771 665.021 139.922C664.161 142.443 662.432 144.51 660.432 146.229Z" fill="#B9937E"/>
<path d="M660.432 146.229C662.87 147.875 664.01 151.641 663.479 154.547C662.74 158.63 659.833 161.87 656.068 163.188C657.151 164.833 657.943 166.656 657.599 168.672C657.177 171.036 655.354 172.755 653.448 174.047C652.953 174.375 652.458 174.693 651.943 175.01C652.026 175.104 652.094 175.214 652.13 175.344C652.495 176.776 652.682 178.234 652.682 179.719C652.682 181.13 652.578 182.651 651.979 183.943C651.01 186.016 648.979 187.286 646.792 187.594C646.391 187.651 645.979 187.661 645.568 187.661C637.49 223.953 624.406 256.651 606.672 284.849C605.849 285.87 590.807 304.167 561.24 316.031L560.922 316.161L560.719 316.443C556.781 322.021 552.807 326.703 548.557 330.75C543.677 335.411 539.031 338.74 534.354 340.943C526.224 344.755 516.849 345.635 508.76 345.99C503.516 346.214 498.927 346.328 494.74 346.328C480.51 346.328 468.724 345.036 455.349 342.026L453.646 341.635L453.927 343.354C454.021 343.906 454.01 344.354 453.906 344.719L452.375 344.766L452.813 346.271C463.797 379.938 467.474 408.365 471.146 442.021C471.885 448.776 472.5 455.661 473.089 462.307C473.484 466.755 473.875 471.214 474.307 475.651C479.026 523.813 488.531 572.109 497.729 618.813L498.516 622.786C487.609 632.193 473.755 637.745 459.406 638.474L459.172 638.484L458.901 638.594C458.208 638.932 457.62 639.13 457.057 639.25C449.964 640.661 441.635 642.521 432.313 644.781C432.182 644.818 432.135 644.839 432.089 644.839L431.969 644.865C419.125 647.969 408.411 650.865 406.13 651.474L405.917 650.854L404.833 651.109C388.359 655.828 371.104 658.219 353.542 658.219C317.474 658.219 281.292 647.865 251.562 629.036C261.323 599.37 271.073 569.693 280.823 540.016L288.271 517.354C290.844 509.516 293.5 501.422 295.005 493.057C301.089 459.271 288.031 425.969 275.401 393.766L274.953 392.635C265.547 368.62 257.052 345.026 256.443 320.359C255.875 297.417 265.63 287.833 282.917 272.88L297.052 260.667L303.854 254.792L304.172 255.125L304.49 255.203C305.453 255.453 306.406 255.714 307.37 256.005L308.26 253.839C307.594 253.49 306.932 253.146 306.266 252.807L305.708 252.521L314.943 237.234L315.979 237.271C315.698 237.141 315.531 236.823 315.589 236.505C315.615 236.365 315.651 236.224 315.661 236.083C316.354 232.104 316.109 227.974 315.87 223.964C315.568 218.964 315.26 213.88 314.568 208.865C314.51 208.417 314.427 207.974 314.354 207.526C290.443 198.333 276.755 178.896 276.755 154.068C276.755 139.203 284.094 125.047 297.406 114.198C310.016 103.927 326.292 98.0313 342.089 98.0313C360.156 98.0313 374.453 104.01 383.464 115.318C383.667 115.167 383.875 115.01 384.078 114.859C384.193 114.75 384.349 114.719 384.49 114.719C384.51 114.719 384.536 114.729 384.557 114.729C384.734 114.766 384.891 114.859 384.984 115.01L385.911 116.495L386.016 116.656C390.484 123.776 395.109 131.13 397.073 139.406C397.813 142.5 398.167 145.714 398.505 148.818C399.016 153.313 399.531 157.964 401.214 162.172C402.25 164.797 403.766 167.281 405.224 169.693C407.104 172.802 409.057 176.01 410.068 179.599C412.385 187.792 409.516 196.536 407.198 203.557L401.885 219.667C401.13 221.974 400.26 224.589 398.651 226.693C396.875 229 394.37 230.484 392.391 231.531C388.323 233.661 383.969 235.12 379.49 235.885C379.021 238.047 378.469 240.167 377.865 242.25H377.88C379.573 242.557 381.359 242.521 383.146 241.922C385.38 241.167 387.323 239.589 389.203 238.073L389.604 237.745C398.755 230.344 408.974 224.141 418.844 218.151C420.734 216.995 422.875 215.703 425.302 215.359C427.63 215.031 430.583 215.76 431.896 218.172C433.24 220.609 432.193 223.458 431.438 224.927C429.297 229.188 425.427 232.167 421.677 235.047C418.115 237.792 414.729 240.401 412.703 244.016C415.552 243.688 418.453 245.474 420.161 247.578C421.464 249.182 422.37 250.979 422.995 252.922C423.161 253.443 423.302 253.958 423.443 254.49C425.995 255.828 428.536 257.219 430.995 258.573C438.859 262.901 447 267.385 456.094 270.182C466.302 273.313 476.688 275.115 484.589 276.328L485.552 276.479L485.87 275.563C501.479 231.057 520.026 166.74 519.859 112.495L653.953 78.7812C654.391 83.8281 655.693 102.63 653.979 128.589L653.943 129.13C654.328 128.943 654.729 128.792 655.151 128.661C657.953 127.828 661.292 128.391 663.245 130.401C665.63 132.865 666.089 136.771 665.021 139.922C664.161 142.443 662.432 144.51 660.432 146.229Z" fill="#B9937E"/>
<path d="M467.005 629.917C464.5 636.099 461.229 639.625 457.265 640.417C434.484 644.948 406.26 652.667 405.974 652.75C405.916 652.76 405.859 652.771 405.802 652.771C405.515 652.771 405.245 652.594 405.151 652.313L354.531 508.13C354.463 507.943 354.484 507.74 354.578 507.563C354.672 507.385 354.838 507.271 355.036 507.224C363.609 505.354 439.015 488.974 444.599 491.292C448.75 493.021 457.797 508.037 465.948 521.979C467.604 524.813 468.922 527.063 469.442 527.802C471.687 531.063 477.989 602.75 467.005 629.917ZM358.885 271.563C358.953 270.62 359.062 269.677 359.166 268.75C359.213 268.339 359.26 267.927 359.307 267.5C359.505 265.667 359.646 263.807 359.448 262.005C359.307 260.797 359.015 259.62 358.614 258.464C358.343 258.38 358.109 258.208 357.979 257.912C357.437 256.734 356.953 255.583 356.427 254.427C342.791 249.052 329.234 243.307 315.953 237.287C315.672 237.156 315.505 236.839 315.567 236.521C315.588 236.38 315.625 236.234 315.635 236.094C315.317 236.083 315 236.073 314.682 236.063C314.411 236.047 314.192 236.177 314.062 236.391L304.406 252.38C304.312 252.547 304.276 252.745 304.333 252.922C304.38 253.109 304.51 253.266 304.687 253.344C305.687 253.865 306.687 254.37 307.687 254.901H307.698C318.765 260.63 329.656 266.807 340.302 273.375C346.698 277.318 353.005 281.401 359.187 285.609C359.307 285.693 359.437 285.729 359.578 285.729C359.729 285.729 359.885 285.682 360.01 285.578C360.057 285.542 360.12 285.495 360.166 285.458C359.26 280.833 358.531 276.141 358.885 271.563ZM356.875 254.604C356.718 254.547 356.578 254.49 356.427 254.427C356.953 255.583 357.437 256.734 357.979 257.912C358.109 258.208 358.343 258.38 358.614 258.464C358.166 257.135 357.552 255.854 356.875 254.604Z" fill="#5C85A3"/>
<path d="M561.688 317.125C557.958 322.406 553.901 327.292 549.37 331.609C545.042 335.74 540.255 339.469 534.844 342.011C526.776 345.802 517.708 346.776 508.807 347.167C488.234 348.063 472.885 347.412 452.859 342.662C464.526 377.302 468.349 405.552 472.313 441.901C473.531 453.104 474.38 464.344 475.474 475.557C480.344 525.24 490.151 574.271 499.786 623.245C488.682 633.026 474.203 638.922 459.453 639.662C458.677 639.708 457.917 639.734 457.141 639.745C459.833 602.537 456.339 565.375 450.599 528.438C448.672 515.99 446.484 503.573 444.188 491.182C442.578 482.464 440.906 473.755 439.25 465.073C437.083 453.755 434.922 442.422 432.38 431.182C430.219 421.604 427.781 412.099 425.349 402.589C419.88 381.208 414.396 359.849 408.927 338.469C408.953 341.802 408.943 345.141 408.891 348.474C408.516 376.818 405.943 401.448 395.859 427.891V427.901C398.286 445.234 399.823 462.698 400.448 480.193C400.646 486.031 400.766 491.865 400.792 497.714C400.885 511.953 400.552 526.229 400.234 540.49C399.391 577.979 398.635 615.422 405.786 652.078C405.563 652.136 405.354 652.208 405.13 652.266C353.401 667.078 295.453 658.594 250.125 629.568C262.464 592.052 274.792 554.526 287.115 517.016C289.729 509.068 292.339 501.104 293.818 492.88C299.911 459.026 286.385 425.109 273.839 393.094C264.745 369.891 255.865 345.625 255.245 320.417C254.656 296.766 264.885 286.927 282.13 272.021C289.385 265.75 296.641 259.479 303.901 253.203L304.76 254.089C305.734 254.333 306.708 254.604 307.688 254.901H307.698C314.521 256.948 321.073 259.891 327.161 263.583C331.833 266.422 336.245 269.703 340.302 273.375C346.38 278.844 351.661 285.188 355.896 292.203C357.745 295.271 359.391 298.448 360.917 301.688C361.521 301.734 362.12 301.781 362.719 301.828C368.891 302.333 375.245 303.099 381.526 304.24C388.286 305.474 394.943 307.156 401.167 309.49C401.297 309.521 401.411 309.568 401.542 309.615C401.411 309.135 401.297 308.641 401.167 308.156C401.177 303.193 401.328 296.802 402.328 296.156C404.438 294.813 406.646 293.766 408.776 292.745C411.76 291.328 414.854 289.859 417.74 287.542C419.536 286.094 421.547 284.307 422.771 282.01C424.557 278.656 424.526 274.583 424.49 271.328L424.417 265.37C424.37 260.958 424.193 256.688 422.974 252.932C434.052 258.667 444.25 265.323 456.411 269.068C465.651 271.901 475.182 273.703 484.745 275.172C474.641 303.979 466.193 323.151 466.193 323.151C507.052 331.854 538.75 326.339 561.688 317.125Z" fill="white"/>
<path d="M655.151 128.672C654.166 128.953 653.234 129.427 652.468 130.073C652.307 130.073 652.14 130.099 651.979 130.156C645.354 132.531 639.25 136.661 634.677 142.031C632.666 144.38 631.208 148.068 633.968 150.479C634.791 151.193 635.687 151.594 636.614 151.781C634.687 153.302 632.76 154.833 630.843 156.385C628.135 158.599 625.5 161.667 626.359 165.448C627.041 168.495 630.067 169.953 632.958 170.021C632.161 170.989 631.526 172.036 631.125 173.187C630.406 175.26 630.828 177.505 632.573 178.932C634.302 180.354 636.724 180.411 638.828 180.094C639.041 180.062 639.25 180.015 639.463 179.963C639.38 180.344 639.323 180.708 639.312 181.094C639.239 183.015 640.041 185 641.547 186.224C643.015 187.427 644.953 187.849 646.791 187.594C639.838 218.953 627.89 253.333 607.635 285.531C607.635 285.531 592.64 304.698 561.687 317.125C538.75 326.338 507.052 331.854 466.192 323.151C466.192 323.151 474.64 303.979 484.744 275.172C500.01 231.708 519.062 166.271 518.687 111.573L655 77.3071C655 77.3071 657.198 97.8175 655.151 128.672ZM342.062 96.8644C309.614 96.8644 275.552 121.599 275.552 154.078C275.552 178.823 288.927 199.302 314.541 208.88C314.192 206.255 313.744 203.64 313.13 201.062C311.052 201.286 309.015 201.312 308.979 201.323C302.724 200.62 296.817 196.958 292.771 191.276C288.797 185.698 287.302 179.026 288.656 172.963C289.198 170.578 290.505 168.104 292.396 166.234C294.276 164.364 296.75 163.094 299.573 163.094C301.948 163.094 304.146 163.963 306.026 164.786C306.109 164.823 306.182 164.87 306.229 164.927L317.625 176.896L313.494 162.489C311.39 155.151 308.771 146.005 311.297 137.578C313.427 130.495 319.13 124.745 326.198 122.552C332.713 120.542 339.583 121.614 346.218 122.646C349.614 123.177 353.13 123.729 356.557 123.859C366.338 124.213 376.375 120.943 384.052 114.87C384.172 114.765 384.323 114.729 384.463 114.729C375.385 103.234 360.869 96.8644 342.062 96.8644ZM362.708 301.521C362.588 297.25 361.661 292.765 360.776 288.448C360.567 287.458 360.364 286.458 360.166 285.458C360.119 285.495 360.057 285.542 360.01 285.578C359.885 285.682 359.729 285.729 359.578 285.729C359.437 285.729 359.307 285.693 359.187 285.609C353.005 281.401 346.698 277.318 340.302 273.375C346.38 278.844 351.661 285.187 355.896 292.203C357.744 295.271 359.39 298.448 360.916 301.687C361.521 301.734 362.119 301.781 362.718 301.828C362.718 301.719 362.708 301.625 362.708 301.521ZM401.166 308.156V309.489C401.297 309.521 401.411 309.568 401.541 309.614C401.411 309.135 401.297 308.64 401.166 308.156ZM439.25 465.073C437.083 453.755 434.922 442.422 432.38 431.182C430.218 421.604 427.781 412.099 425.349 402.588C419.88 381.208 414.396 359.838 408.927 338.469C408.953 341.802 408.942 345.14 408.89 348.474C408.515 376.818 405.942 401.448 395.859 427.89C398.297 445.234 399.823 462.698 400.448 480.193C401.156 500.234 400.682 520.364 400.234 540.489C403.14 540.724 406.119 540.864 409.114 540.864C416.021 540.864 423.078 540.135 429.922 538.088C437.271 535.901 444.073 532.276 450.599 528.437C447.307 507.234 443.271 486.099 439.25 465.073ZM342.359 226.068C333.489 219.552 325.573 210.536 317.39 200.583C322.364 211.771 330.067 222.177 339.442 230.646C339.432 230.599 339.432 230.562 339.432 230.515C339.385 228.515 340.843 226.963 342.359 226.068ZM371.927 236.552C370.281 236.552 368.619 236.458 366.974 236.271C367.833 237.036 368.703 237.776 369.599 238.458C371.104 239.604 374.234 241.672 377.854 242.26C378.468 240.167 378.994 238.036 379.453 235.896C376.963 236.344 374.442 236.552 371.927 236.552ZM364.515 445.693C352.896 442.515 343.5 440.375 333.619 433.406C319.119 423.193 306.817 410.203 295.161 396.849C290.666 391.703 286.224 386.422 282.13 380.901L281.588 380.995C283.541 387.318 285.573 389.974 287.807 393.943C295.114 406.859 301.463 419.146 312.744 429.667C324.036 440.172 338.536 448.495 354.765 451.14C359.718 451.943 364.906 452.198 369.729 450.953C373.646 449.927 377.135 447.974 380.291 445.729C375.583 447.292 370.104 447.224 364.515 445.693ZM353.343 316.713C352.979 316.51 352.614 316.302 352.25 316.078C350.771 315.161 350.567 313.911 350.354 312.265C349.484 305.463 348.64 298.661 347.771 291.859C347.64 290.755 346.791 290.14 345.698 290.094C333.76 289.542 321.833 288.989 309.911 288.469C308.474 288.411 308.26 287.896 307.802 286.578C307.323 285.187 306.838 283.786 306.359 282.401C305.39 279.609 304.396 276.833 303.38 274.057C301.323 268.385 299.218 262.724 296.843 257.182C296.515 256.396 295.067 256.604 295.291 257.547C296.828 263.864 298.75 270.088 300.64 276.302C301.573 279.328 302.536 282.328 303.51 285.328C304.286 287.729 304.817 290.646 307.578 291.458C308.828 291.812 310.213 291.776 311.494 291.849C313.177 291.943 314.875 292.047 316.567 292.14C319.729 292.318 322.896 292.458 326.057 292.625C331.984 292.917 337.89 293.224 343.817 293.531C344.203 296.792 344.604 300.036 345.005 303.297C345.453 306.995 345.687 310.781 346.38 314.427C347.015 317.677 349.651 319.052 352.297 320.5C352.51 320.609 352.708 320.724 352.922 320.844C353.588 321.208 354.25 321.583 354.906 321.958C355.224 320.667 355.531 319.359 355.828 318.068C354.989 317.62 354.156 317.182 353.343 316.713ZM295.323 178.13C295.349 175.224 297.291 171.963 300.593 172.411C303.713 172.823 304.229 176.297 303.286 178.765C302.791 180.047 301.677 181 301.302 182.333C300.911 183.682 301.526 184.953 302.474 185.906C303.463 186.875 304.687 187.25 305.901 187.828C306.333 188.036 306.817 188.26 306.968 188.755C307.088 189.12 306.968 189.578 306.979 189.958C307.005 190.401 307.088 190.781 307.239 191.193C307.604 192.167 309.5 192.37 309.755 191.193C310.073 189.755 310.38 188.323 309.401 187.052C308.625 186.036 307.427 185.604 306.286 185.156C305.406 184.812 303.922 184.239 303.817 183.13C303.76 182.521 304.182 181.969 304.474 181.474C304.807 180.932 305.088 180.354 305.312 179.755C306.088 177.588 306.026 174.88 304.521 173.036C302.932 171.083 300.099 170.562 297.828 171.542C295.244 172.646 293.948 175.542 294.5 178.234C294.583 178.625 295.323 178.542 295.323 178.13ZM335.646 150.276C337.994 148.088 340.604 146.005 343.427 144.463C344.781 143.724 346.203 143.135 347.687 142.713C349.297 142.25 350.802 142.193 352.448 142.078C353.062 142.031 353.979 141.724 354.109 141.005C354.13 140.875 354.166 140.745 354.166 140.614C354.177 139.661 353.25 139.239 352.437 139.146C350.708 138.958 348.744 139.417 347.099 139.932C345.323 140.5 343.677 141.333 342.125 142.349C339.135 144.302 336.817 146.854 334.536 149.573C334.031 150.161 335.172 150.713 335.646 150.276ZM391.968 144.792C391.557 144.37 391.166 143.922 390.698 143.557C390.203 143.172 389.64 142.885 389.109 142.568C387.979 141.885 386.781 141.453 385.489 141.193C382.771 140.63 379.948 141.062 377.396 142.078C376.562 142.406 376.229 143.5 376.724 144.239C377.302 145.078 378.406 145.156 379.265 144.807C380.041 144.489 381.146 144.239 382.161 144.088C382.385 144.062 382.432 144.052 382.276 144.062C382.416 144.052 382.547 144.042 382.687 144.031C382.958 144.005 383.229 143.995 383.5 143.995C384.041 143.984 384.583 144.015 385.125 144.052C387.078 144.172 389.297 144.745 391.088 145.76C391.724 146.099 392.531 145.37 391.968 144.792ZM354.156 160.172C353.896 159.984 353.698 159.739 353.463 159.536C353.307 159.406 353.146 159.328 352.989 159.208C352.838 159.088 353.146 159.312 352.958 159.172C352.849 159.088 352.744 159.01 352.625 158.948C351.531 158.396 350.297 159.208 350.005 160.302C349.817 161.021 349.781 161.833 349.734 162.573C349.687 163.292 349.708 164.021 349.817 164.739C350.062 166.469 350.744 168.187 352.276 169.161C353.979 170.245 356.411 169.87 357.109 167.797C357.682 166.047 357.885 163.984 357.354 162.198C356.906 160.656 355.802 159.125 354.307 158.453C353.015 157.87 351.531 158.396 351.026 159.75C350.744 160.515 350.791 161.458 350.885 162.255C351.073 163.953 351.651 165.693 352.718 167.047C353.146 167.588 353.698 168.047 354.39 168.177C355.26 168.354 356.203 168.057 356.708 167.302C357.354 166.338 357.109 164.87 356.729 163.844C356.073 162.057 354.651 159.552 352.39 159.797C351.687 159.87 350.958 160.172 350.828 160.974C350.708 161.713 351.286 162.281 351.968 162.458C352.005 162.469 352.036 162.479 352.073 162.489C351.755 162.385 351.828 162.411 352.286 162.573C351.812 162.411 352.286 162.562 352.307 162.609C352.26 162.573 352.213 162.536 352.166 162.515C352.229 162.562 352.297 162.609 352.354 162.656C352.401 162.703 352.661 162.984 352.427 162.713C352.593 162.901 352.734 163.104 352.859 163.318C352.911 163.385 352.942 163.458 352.989 163.526C353.015 163.562 353.224 163.974 353.13 163.776C353.276 164.047 353.39 164.328 353.494 164.62C353.541 164.76 353.588 164.906 353.64 165.057C353.64 165.057 353.744 165.542 353.698 165.271C353.734 165.505 353.744 165.765 353.718 166.01C353.718 165.984 353.734 165.953 353.734 165.927C353.531 166.62 354.109 166.479 355.474 165.515C355.651 165.635 355.661 165.635 355.521 165.515C355.651 165.656 355.661 165.656 355.541 165.515C355.401 165.281 355.239 165.057 355.099 164.823C355.052 164.739 355 164.656 354.968 164.573C354.755 164.187 355.062 164.833 354.896 164.422C354.672 163.87 354.474 163.318 354.343 162.713C354.343 162.739 354.26 162.292 354.297 162.505C354.333 162.713 354.271 162.265 354.271 162.281C354.239 162.01 354.224 161.729 354.224 161.458C354.224 161.234 354.166 160.833 354.26 160.63C354.109 160.963 354.26 160.703 354.286 160.599C354.333 160.469 354.333 160.469 354.286 160.573C354.25 160.667 354.192 160.739 354.109 160.797C353.567 161.292 352.026 160.703 352.802 161.068C353.156 161.234 352.567 160.854 352.875 161.104C353.062 161.255 353.25 161.411 353.416 161.583C353.156 161.312 353.427 161.62 353.463 161.667C353.521 161.75 353.578 161.833 353.64 161.917C353.698 162 353.744 162.094 353.802 162.172C353.838 162.245 353.885 162.318 353.922 162.385C353.838 162.234 353.838 162.219 353.906 162.375C353.989 162.609 354.083 162.833 354.156 163.068C354.192 163.187 354.213 163.302 354.239 163.422C354.343 163.89 354.224 163.292 354.26 163.573C354.343 164.224 354.307 164.859 354.239 165.495C354.192 165.974 354.297 165.245 354.203 165.729C354.177 165.88 354.146 166.031 354.109 166.187C354.052 166.432 354.005 166.667 353.932 166.917C353.922 166.937 353.802 167.271 353.802 167.281C353.718 167.198 354.156 166.953 353.885 167.13C353.942 167.094 354.005 167.057 354.052 167.021C353.896 167.094 353.932 167.083 354.166 166.984C354.437 166.963 354.484 166.963 354.307 166.974C354.13 166.963 354.166 166.974 354.437 167C354.437 166.974 354.239 166.974 354.224 166.953C354.286 166.974 354.343 167 354.416 167.021C354.343 167 354.271 166.963 354.213 166.927C354.177 166.906 354.146 166.89 354.119 166.87C353.979 166.786 353.989 166.797 354.166 166.906C354.099 166.906 353.968 166.729 353.906 166.693C353.64 166.479 354.073 166.917 353.838 166.62C353.765 166.526 353.687 166.432 353.614 166.328C353.541 166.234 353.474 166.13 353.416 166.021C353.38 165.963 353.224 165.646 353.354 165.917C353.109 165.385 352.958 164.833 352.849 164.271C352.802 164.01 352.838 164.187 352.849 164.245C352.828 164.078 352.802 163.906 352.791 163.739C352.765 163.443 352.744 163.14 352.734 162.844C352.698 162.292 352.687 161.739 352.687 161.187C352.687 161.068 352.698 160.963 352.687 160.844C352.698 160.703 352.698 160.703 352.672 160.833C352.687 160.76 352.708 160.693 352.734 160.63C352.791 160.667 352.521 160.88 352.521 160.88C352.64 160.807 352.744 160.739 352.859 160.656C352.708 160.739 352.687 160.76 352.791 160.713C352.604 160.76 352.427 160.797 352.239 160.844C351.812 160.823 352.026 160.807 352.192 160.89C352.307 160.948 352.427 161.031 352.547 161.094C352.802 161.219 353.062 161.328 353.343 161.396C353.979 161.562 354.875 160.693 354.156 160.172ZM387.146 155.161C387.463 153.844 386.25 152.609 384.994 152.562C384.64 152.547 384.161 152.724 383.984 153.052C383.333 154.276 383.088 155.864 383.078 157.245C383.067 158.656 383.416 160.078 384.182 161.265C385.255 162.927 387.474 163.823 389.218 162.573C389.932 162.057 390.229 161.161 390.38 160.338C390.547 159.479 390.614 158.62 390.521 157.75C390.427 156.917 390.25 156.104 389.948 155.312C389.661 154.594 389.359 153.771 388.911 153.135C388.286 152.255 387.182 151.687 386.099 151.995C385.125 152.265 384.463 153.042 384.302 154.031C384.041 155.515 384.146 157.031 384.666 158.453C385.229 159.995 386.557 162.515 388.567 162.047C390.651 161.552 390.437 158.833 389.922 157.255C389.39 155.63 388.286 154.338 386.854 153.443C386.182 153.031 385.015 153.265 384.604 153.948C384.135 154.713 384.5 155.422 385.192 155.854C384.864 155.646 385.239 155.89 385.302 155.948C385.396 156.021 385.489 156.104 385.567 156.182C385.677 156.281 385.771 156.375 385.864 156.479C385.687 156.292 385.838 156.453 385.922 156.562C386.078 156.75 386.203 156.948 386.333 157.151C386.396 157.255 386.453 157.359 386.51 157.469C386.359 157.161 386.547 157.562 386.567 157.62C386.666 157.87 386.744 158.114 386.807 158.359C386.828 158.479 386.854 158.599 386.875 158.713C386.828 158.469 386.864 158.693 386.875 158.807C386.901 159.042 386.901 159.292 386.885 159.526C386.875 159.646 386.864 159.76 386.854 159.88C386.885 159.703 386.885 159.693 386.854 159.844C386.698 160.281 386.968 160.094 387.651 159.292C387.948 159.292 388.25 159.292 388.547 159.292C388.677 159.359 388.817 159.432 388.948 159.505C389.041 159.62 389.062 159.63 388.994 159.552C388.932 159.479 388.875 159.422 388.828 159.349C388.708 159.198 388.593 159.031 388.489 158.88C388.39 158.739 388.297 158.583 388.218 158.432C388.172 158.359 388.135 158.281 388.088 158.198C388.229 158.469 388.062 158.125 388.026 158.068C387.875 157.703 387.744 157.338 387.651 156.948C387.604 156.786 387.583 156.609 387.547 156.443C387.604 156.713 387.557 156.489 387.547 156.432C387.536 156.302 387.521 156.172 387.51 156.042C387.489 155.677 387.489 155.302 387.521 154.937C387.536 154.833 387.547 154.724 387.557 154.609C387.547 154.667 387.5 154.854 387.557 154.62C387.583 154.547 387.593 154.469 387.614 154.396C387.661 154.265 387.677 154.255 387.614 154.359C387.557 154.453 387.567 154.453 387.64 154.338C387.276 154.677 387.015 154.89 386.396 154.739C386.265 154.703 386.125 154.656 386.015 154.573C385.807 154.422 385.922 154.432 385.984 154.536C386.031 154.62 386.088 154.703 386.146 154.786C386.286 154.974 385.984 154.406 386.172 154.833C386.218 154.927 386.25 155.01 386.302 155.104C386.406 155.328 386.51 155.562 386.604 155.797C386.771 156.182 386.922 156.599 387.031 157.01C387.088 157.234 387.146 157.453 387.182 157.677C387.172 157.62 387.156 157.453 387.192 157.76C387.218 157.917 387.229 158.068 387.239 158.219C387.265 158.63 387.265 159.042 387.218 159.443C387.218 159.396 387.156 159.89 387.182 159.713C387.203 159.573 387.146 159.88 387.146 159.901C387.099 160.125 387.005 160.359 386.958 160.583C386.932 160.713 387.125 160.458 386.911 160.656C386.994 160.573 387.005 160.526 387.125 160.469C387.182 160.443 387.442 160.396 387.172 160.443C387.521 160.385 387.333 160.422 387.229 160.411C387.229 160.411 387.536 160.422 387.557 160.479C387.567 160.505 387.182 160.265 387.369 160.396C387.557 160.515 387.203 160.255 387.218 160.255C387.015 160.104 387.239 160.302 387.146 160.198C386.911 159.927 386.687 159.646 386.51 159.338C386.463 159.265 386.427 159.198 386.396 159.125C386.51 159.338 386.38 159.104 386.359 159.042C386.276 158.854 386.203 158.656 386.135 158.453C385.864 157.609 385.807 157.078 385.817 156.151C385.817 155.724 385.854 155.292 385.911 154.864C385.958 154.5 386.099 154.005 386.146 153.562C385.864 153.88 385.573 154.208 385.286 154.526C385.38 154.489 385.854 154.323 385.854 154.338C385.51 154.338 385.406 154.349 385.536 154.396C385.583 154.422 385.619 154.432 385.666 154.453C385.838 154.656 386.031 154.75 386.078 155.042C386.156 155.526 387.005 155.713 387.146 155.161ZM384.593 170.083C385.958 171.802 387.489 173.364 388.968 174.979C389.744 175.812 390.64 176.661 391.26 177.625C391.864 178.552 391.817 179.588 391.724 180.651C391.38 184.448 388.802 187.073 385.817 189.109C385.109 189.578 385.984 190.39 386.593 190.239C390.604 189.203 393.25 185.026 393.672 181.073C393.791 180.015 393.734 178.885 393.286 177.896C392.828 176.859 391.968 176.073 391.192 175.271C389.276 173.307 387.369 171.338 385.172 169.693C384.911 169.515 384.323 169.739 384.593 170.083ZM381.172 186.224C379.771 185.969 378.291 186.239 376.937 186.672C376.255 186.896 375.562 187.146 374.937 187.484C374.609 187.661 374.281 187.875 374.01 188.146C373.88 188.276 373.729 188.417 373.619 188.568C373.526 188.708 373.505 188.802 373.468 188.958C373.385 189.286 373.515 188.828 373.422 189.109C373.244 189.661 373.869 189.911 374.291 189.849C374.422 189.838 374.573 189.849 374.75 189.802C374.948 189.755 375.135 189.651 375.328 189.578C375.619 189.463 375.89 189.323 376.172 189.156C376.703 188.864 377.229 188.578 377.786 188.354C378.218 188.177 378.797 188.005 379.359 187.885C379.958 187.755 380.562 187.672 381.161 187.531C381.901 187.38 381.948 186.37 381.172 186.224ZM390.166 202.005C388.63 203.286 386.791 203.583 384.828 203.604C382.911 203.63 380.984 203.526 379.067 203.5C374.807 203.443 370.526 203.193 366.385 202.099C364.281 201.547 363.14 204.536 365.422 205.052C370.224 206.161 375.104 206.172 379.994 205.922C383.734 205.734 388.25 205.557 391.119 202.807C391.744 202.219 390.734 201.536 390.166 202.005ZM333.104 585.12C346.854 595.64 362.484 602.927 379.323 606.948C381.968 607.583 383.396 603.854 380.526 603.245C364.281 599.76 348.557 592.984 334.771 583.698C333.75 583.026 331.89 584.193 333.104 585.12ZM469.771 575.239C476.109 568.943 481.411 561.739 486 554.094C487.234 552.031 483.635 550.552 482.604 552.396C478.333 560.021 473.213 567.104 467.771 573.917C466.89 575.026 468.922 576.073 469.771 575.239ZM357.869 302.073C356.192 306.875 354.718 311.781 353.343 316.713C352.989 317.974 352.64 319.245 352.297 320.5C351.557 323.255 350.828 326.021 350.109 328.76C347.849 337.255 345.474 345.729 343.276 354.25C342.843 354.297 342.442 354.37 342.125 354.448C339.843 355.005 337.974 356.015 336.172 357.568C333.786 359.604 331.984 362.12 330.619 364.922C329.317 367.594 327.812 370.875 328.114 373.901C328.234 375.068 330.047 375.562 330.682 374.489C331.843 372.489 332.281 370.239 333.14 368.099C333.984 365.958 335.078 363.911 336.515 362.099C337.244 361.182 338.088 360.354 338.994 359.604C339.609 359.083 340.265 358.661 340.922 358.229C340.968 358.193 341.312 358.036 341.416 357.969C341.432 357.958 341.442 357.943 341.453 357.958C341.948 357.765 342.463 357.651 342.968 357.521C343.208 357.463 343.547 357.427 343.781 357.344C344.76 357.792 346.218 357.521 346.51 356.417C348.802 347.448 350.864 338.432 353.073 329.458C353.687 326.963 354.307 324.469 354.906 321.958C355.224 320.667 355.531 319.359 355.828 318.068C357.047 312.854 358.166 307.604 359.026 302.344C359.14 301.672 358.093 301.448 357.869 302.073ZM327.515 325.948C327.953 327.057 329.161 328.042 330.021 328.854C330.823 329.62 331.666 330.349 332.489 331.078C333.854 332.292 335.276 333.432 336.666 334.609C338.021 335.765 339.369 336.937 340.713 338.114C341.547 338.844 342.369 339.578 343.208 340.307C344.333 341.292 345.396 342.505 346.854 342.979C347.755 343.26 349.25 342.411 348.791 341.318C348.239 340.01 346.875 339.177 345.817 338.281C344.958 337.562 344.099 336.844 343.239 336.13C341.828 334.953 340.432 333.786 339.005 332.62C337.619 331.489 336.244 330.338 334.807 329.265C333.916 328.599 333.01 327.927 332.093 327.292C331.01 326.526 329.703 325.489 328.411 325.198C327.984 325.088 327.317 325.422 327.515 325.948ZM344.125 353.531C344.666 354.51 345.172 355.687 345.172 356.812C345.172 357.37 344.932 357.864 344.875 358.401C344.817 358.989 344.734 359.578 344.651 360.167C344.333 362.39 344.463 364.854 344.734 367.062C344.807 367.63 344.838 368.25 345.041 368.781C345.359 369.62 346.297 370.239 347.192 370.239C348.005 370.239 348.687 369.724 349.005 369.005C349.333 368.25 349.041 367.489 348.911 366.713C348.531 364.463 348.744 362.099 348.192 359.885C348.041 359.286 347.864 358.672 347.64 358.083C347.416 357.474 347.005 356.979 346.734 356.39C346.203 355.239 345.875 354.083 345.182 353C344.817 352.448 343.76 352.885 344.125 353.531ZM281.187 381.031C287.328 390.62 293.703 400.047 301.369 408.484C308.989 416.875 317.625 424.203 327.057 430.489C336.114 436.515 345.677 442.151 356.083 445.443C365.906 448.552 376.385 448.672 385.323 442.984C394.297 437.281 400.614 426.995 402.739 416.661C403.177 414.531 399.823 413.885 399.13 415.818C396.062 424.417 392.427 432.88 384.994 438.63C377.375 444.526 367.786 445.318 358.729 442.833C348.651 440.057 339.323 434.687 330.599 429.078C321.578 423.265 313.271 416.463 305.661 408.885C296.958 400.224 289.078 390.646 281.974 380.646C281.703 380.219 280.88 380.547 281.187 381.031ZM397 307.958C399.661 309.323 402.729 310.297 405.244 311.911C406.812 312.911 406.802 314.771 407.021 316.443C407.244 318.068 407.458 319.703 407.656 321.323C408.047 324.583 408.375 327.854 408.635 331.125C408.88 334.255 408.89 337.422 409.505 340.505C409.646 341.198 410.812 341 410.869 340.354C411.208 336.703 410.646 332.927 410.281 329.292C409.916 325.609 409.458 321.937 408.927 318.276C408.578 315.875 408.692 312.594 406.458 311.099C405.198 310.25 403.635 309.807 402.234 309.229C400.599 308.557 398.968 307.948 397.297 307.359C396.932 307.219 396.614 307.745 397 307.958ZM432.734 299.474C434.474 303.073 436.625 306.463 438.474 310.015C440.541 314.005 442.458 318.078 444.224 322.208C445.916 326.161 447.458 330.161 448.859 334.234C449.541 336.224 450.177 338.213 450.786 340.224C451.338 342.026 451.635 344.328 453.093 345.635C453.656 346.14 454.713 345.953 454.974 345.213C455.609 343.411 454.489 341.187 453.927 339.484C453.271 337.479 452.541 335.505 451.786 333.552C450.198 329.432 448.458 325.375 446.588 321.37C444.786 317.547 442.859 313.792 440.791 310.099C438.672 306.333 436.541 302.427 433.771 299.099C433.463 298.755 432.453 298.896 432.734 299.474ZM432.026 593.713C432.38 602.219 432.343 610.75 432.109 619.26C431.864 627.802 431.119 636.26 430.557 644.771C430.437 646.5 433.406 646.427 433.625 644.771C434.718 636.38 434.958 627.708 434.922 619.26C434.885 610.713 434.286 602.208 433.369 593.713C433.26 592.995 431.994 592.969 432.026 593.713ZM359.942 257.453C359.505 254.854 357.896 252.265 356.437 250.109C354.791 247.687 352.922 245.427 350.989 243.239C348.968 240.943 346.875 238.708 344.791 236.458C342.744 234.26 340.453 232.057 339.666 229.073C339.666 229.047 339.656 229.036 339.656 229.01C339.557 228.625 338.771 228.682 338.828 229.104C338.901 229.531 338.994 229.943 339.114 230.344C339.687 232.354 340.843 234.12 342.192 235.729C344.286 238.213 346.427 240.672 348.583 243.12C350.453 245.25 352.323 247.417 353.906 249.755C354.932 251.265 355.708 252.828 356.427 254.427C356.953 255.583 357.437 256.734 357.979 257.911C358.109 258.208 358.343 258.38 358.614 258.463C359.26 258.677 360.083 258.302 359.942 257.453ZM342.89 225.859C343.937 226.01 345.041 225.765 346.099 225.729C347.369 225.693 348.651 225.729 349.922 225.906C352.484 226.271 354.802 227.213 356.906 228.703C358.942 230.14 360.885 231.755 362.755 233.401C363.708 234.234 364.635 235.094 365.552 235.979C366.375 236.765 367.13 237.849 368.187 238.307C368.635 238.505 369.432 238.239 369.234 237.625C368.869 236.505 367.672 235.661 366.843 234.87C365.823 233.885 364.765 232.917 363.682 231.989C361.635 230.213 359.521 228.458 357.187 227.068C355.083 225.797 352.765 225.047 350.323 224.786C348.994 224.646 347.651 224.635 346.323 224.719C345.203 224.786 343.828 224.786 342.807 225.271C342.536 225.411 342.593 225.823 342.89 225.859ZM635.911 152.734C640.922 151.818 645.932 150.828 650.932 149.828C654.375 149.146 659.177 148.76 661.422 145.63C661.843 145.052 660.833 144.536 660.411 144.958C657.494 147.875 653.198 148.172 649.333 148.937C644.744 149.844 640.156 150.75 635.583 151.713C634.791 151.89 635.192 152.864 635.911 152.734ZM631.703 170.432C636.088 169.609 640.213 168.13 644.437 166.776C646.51 166.114 648.588 165.515 650.708 165.031C651.708 164.812 652.718 164.635 653.729 164.443C654.656 164.281 655.703 164.198 656.422 163.542C656.797 163.187 656.448 162.75 656.021 162.713C655.057 162.656 654.057 163.047 653.119 163.219C652.036 163.422 650.942 163.62 649.869 163.89C647.838 164.385 645.849 165.047 643.875 165.739C639.781 167.177 635.744 168.859 631.604 170.14C631.385 170.213 631.489 170.479 631.703 170.432ZM639.802 180.38C642.369 179.802 644.922 179.177 647.458 178.495C648.521 178.213 649.588 177.917 650.588 177.458C651.39 177.083 652.833 176.422 652.916 175.437C652.953 174.989 652.411 174.849 652.083 174.896C651.541 174.979 651.166 175.401 650.718 175.693C650.317 175.953 649.896 176.167 649.458 176.364C648.474 176.823 647.448 177.156 646.427 177.495C644.119 178.25 641.828 179.047 639.547 179.885C639.192 180.015 639.484 180.448 639.802 180.38Z" fill="#3B365F"/>
<path d="M656.151 128.672C655.166 128.953 654.234 129.427 653.468 130.073C653.307 130.073 653.14 130.099 652.979 130.156C646.354 132.531 640.25 136.661 635.677 142.031C633.666 144.38 632.208 148.068 634.968 150.479C635.791 151.193 636.687 151.594 637.614 151.781C635.687 153.302 633.76 154.833 631.843 156.385C629.135 158.599 626.5 161.667 627.359 165.448C628.041 168.495 631.067 169.953 633.958 170.021C633.161 170.989 632.526 172.036 632.125 173.187C631.406 175.26 631.828 177.505 633.573 178.932C635.302 180.354 637.724 180.411 639.828 180.094C640.041 180.062 640.25 180.015 640.463 179.963C640.38 180.344 640.323 180.708 640.312 181.094C640.239 183.015 641.041 185 642.547 186.224C644.015 187.427 645.953 187.849 647.791 187.594C640.838 218.953 628.89 253.333 608.635 285.531C608.635 285.531 593.64 304.698 562.687 317.125C539.75 326.338 508.052 331.854 467.192 323.151C467.192 323.151 475.64 303.979 485.744 275.172C501.01 231.708 520.062 166.271 519.687 111.573L656 77.3071C656 77.3071 658.198 97.8175 656.151 128.672ZM343.062 96.8644C310.614 96.8644 276.552 121.599 276.552 154.078C276.552 178.823 289.927 199.302 315.541 208.88C315.192 206.255 314.744 203.64 314.13 201.062C312.052 201.286 310.015 201.312 309.979 201.323C303.724 200.62 297.817 196.958 293.771 191.276C289.797 185.698 288.302 179.026 289.656 172.963C290.198 170.578 291.505 168.104 293.396 166.234C295.276 164.364 297.75 163.094 300.573 163.094C302.948 163.094 305.146 163.963 307.026 164.786C307.109 164.823 307.182 164.87 307.229 164.927L318.625 176.896L314.494 162.489C312.39 155.151 309.771 146.005 312.297 137.578C314.427 130.495 320.13 124.745 327.198 122.552C333.713 120.542 340.583 121.614 347.218 122.646C350.614 123.177 354.13 123.729 357.557 123.859C367.338 124.213 377.375 120.943 385.052 114.87C385.172 114.765 385.323 114.729 385.463 114.729C376.385 103.234 361.869 96.8644 343.062 96.8644ZM363.708 301.521C363.588 297.25 362.661 292.765 361.776 288.448C361.567 287.458 361.364 286.458 361.166 285.458C361.119 285.495 361.057 285.542 361.01 285.578C360.885 285.682 360.729 285.729 360.578 285.729C360.437 285.729 360.307 285.693 360.187 285.609C354.005 281.401 347.698 277.318 341.302 273.375C347.38 278.844 352.661 285.187 356.896 292.203C358.744 295.271 360.39 298.448 361.916 301.687C362.521 301.734 363.119 301.781 363.718 301.828C363.718 301.719 363.708 301.625 363.708 301.521ZM402.166 308.156V309.489C402.297 309.521 402.411 309.568 402.541 309.614C402.411 309.135 402.297 308.64 402.166 308.156ZM440.25 465.073C438.083 453.755 435.922 442.422 433.38 431.182C431.218 421.604 428.781 412.099 426.349 402.588C420.88 381.208 415.396 359.838 409.927 338.469C409.953 341.802 409.942 345.14 409.89 348.474C409.515 376.818 406.942 401.448 396.859 427.89C399.297 445.234 400.823 462.698 401.448 480.193C402.156 500.234 401.682 520.364 401.234 540.489C404.14 540.724 407.119 540.864 410.114 540.864C417.021 540.864 424.078 540.135 430.922 538.088C438.271 535.901 445.073 532.276 451.599 528.437C448.307 507.234 444.271 486.099 440.25 465.073ZM343.359 226.068C334.489 219.552 326.573 210.536 318.39 200.583C323.364 211.771 331.067 222.177 340.442 230.646C340.432 230.599 340.432 230.562 340.432 230.515C340.385 228.515 341.843 226.963 343.359 226.068ZM372.927 236.552C371.281 236.552 369.619 236.458 367.974 236.271C368.833 237.036 369.703 237.776 370.599 238.458C372.104 239.604 375.234 241.672 378.854 242.26C379.468 240.167 379.994 238.036 380.453 235.896C377.963 236.344 375.442 236.552 372.927 236.552ZM365.515 445.693C353.896 442.515 344.5 440.375 334.619 433.406C320.119 423.193 307.817 410.203 296.161 396.849C291.666 391.703 287.224 386.422 283.13 380.901L282.588 380.995C284.541 387.318 286.573 389.974 288.807 393.943C296.114 406.859 302.463 419.146 313.744 429.667C325.036 440.172 339.536 448.495 355.765 451.14C360.718 451.943 365.906 452.198 370.729 450.953C374.646 449.927 378.135 447.974 381.291 445.729C376.583 447.292 371.104 447.224 365.515 445.693ZM354.343 316.713C353.979 316.51 353.614 316.302 353.25 316.078C351.771 315.161 351.567 313.911 351.354 312.265C350.484 305.463 349.64 298.661 348.771 291.859C348.64 290.755 347.791 290.14 346.698 290.094C334.76 289.542 322.833 288.989 310.911 288.469C309.474 288.411 309.26 287.896 308.802 286.578C308.323 285.187 307.838 283.786 307.359 282.401C306.39 279.609 305.396 276.833 304.38 274.057C302.323 268.385 300.218 262.724 297.843 257.182C297.515 256.396 296.067 256.604 296.291 257.547C297.828 263.864 299.75 270.088 301.64 276.302C302.573 279.328 303.536 282.328 304.51 285.328C305.286 287.729 305.817 290.646 308.578 291.458C309.828 291.812 311.213 291.776 312.494 291.849C314.177 291.943 315.875 292.047 317.567 292.14C320.729 292.318 323.896 292.458 327.057 292.625C332.984 292.917 338.89 293.224 344.817 293.531C345.203 296.792 345.604 300.036 346.005 303.297C346.453 306.995 346.687 310.781 347.38 314.427C348.015 317.677 350.651 319.052 353.297 320.5C353.51 320.609 353.708 320.724 353.922 320.844C354.588 321.208 355.25 321.583 355.906 321.958C356.224 320.667 356.531 319.359 356.828 318.068C355.989 317.62 355.156 317.182 354.343 316.713ZM296.323 178.13C296.349 175.224 298.291 171.963 301.593 172.411C304.713 172.823 305.229 176.297 304.286 178.765C303.791 180.047 302.677 181 302.302 182.333C301.911 183.682 302.526 184.953 303.474 185.906C304.463 186.875 305.687 187.25 306.901 187.828C307.333 188.036 307.817 188.26 307.968 188.755C308.088 189.12 307.968 189.578 307.979 189.958C308.005 190.401 308.088 190.781 308.239 191.193C308.604 192.167 310.5 192.37 310.755 191.193C311.073 189.755 311.38 188.323 310.401 187.052C309.625 186.036 308.427 185.604 307.286 185.156C306.406 184.812 304.922 184.239 304.817 183.13C304.76 182.521 305.182 181.969 305.474 181.474C305.807 180.932 306.088 180.354 306.312 179.755C307.088 177.588 307.026 174.88 305.521 173.036C303.932 171.083 301.099 170.562 298.828 171.542C296.244 172.646 294.948 175.542 295.5 178.234C295.583 178.625 296.323 178.542 296.323 178.13ZM336.646 150.276C338.994 148.088 341.604 146.005 344.427 144.463C345.781 143.724 347.203 143.135 348.687 142.713C350.297 142.25 351.802 142.193 353.448 142.078C354.062 142.031 354.979 141.724 355.109 141.005C355.13 140.875 355.166 140.745 355.166 140.614C355.177 139.661 354.25 139.239 353.437 139.146C351.708 138.958 349.744 139.417 348.099 139.932C346.323 140.5 344.677 141.333 343.125 142.349C340.135 144.302 337.817 146.854 335.536 149.573C335.031 150.161 336.172 150.713 336.646 150.276ZM392.968 144.792C392.557 144.37 392.166 143.922 391.698 143.557C391.203 143.172 390.64 142.885 390.109 142.568C388.979 141.885 387.781 141.453 386.489 141.193C383.771 140.63 380.948 141.062 378.396 142.078C377.562 142.406 377.229 143.5 377.724 144.239C378.302 145.078 379.406 145.156 380.265 144.807C381.041 144.489 382.146 144.239 383.161 144.088C383.385 144.062 383.432 144.052 383.276 144.062C383.416 144.052 383.547 144.042 383.687 144.031C383.958 144.005 384.229 143.995 384.5 143.995C385.041 143.984 385.583 144.015 386.125 144.052C388.078 144.172 390.297 144.745 392.088 145.76C392.724 146.099 393.531 145.37 392.968 144.792ZM355.156 160.172C354.896 159.984 354.698 159.739 354.463 159.536C354.307 159.406 354.146 159.328 353.989 159.208C353.838 159.088 354.146 159.312 353.958 159.172C353.849 159.088 353.744 159.01 353.625 158.948C352.531 158.396 351.297 159.208 351.005 160.302C350.817 161.021 350.781 161.833 350.734 162.573C350.687 163.292 350.708 164.021 350.817 164.739C351.062 166.469 351.744 168.187 353.276 169.161C354.979 170.245 357.411 169.87 358.109 167.797C358.682 166.047 358.885 163.984 358.354 162.198C357.906 160.656 356.802 159.125 355.307 158.453C354.015 157.87 352.531 158.396 352.026 159.75C351.744 160.515 351.791 161.458 351.885 162.255C352.073 163.953 352.651 165.693 353.718 167.047C354.146 167.588 354.698 168.047 355.39 168.177C356.26 168.354 357.203 168.057 357.708 167.302C358.354 166.338 358.109 164.87 357.729 163.844C357.073 162.057 355.651 159.552 353.39 159.797C352.687 159.87 351.958 160.172 351.828 160.974C351.708 161.713 352.286 162.281 352.968 162.458C353.005 162.469 353.036 162.479 353.073 162.489C352.755 162.385 352.828 162.411 353.286 162.573C352.812 162.411 353.286 162.562 353.307 162.609C353.26 162.573 353.213 162.536 353.166 162.515C353.229 162.562 353.297 162.609 353.354 162.656C353.401 162.703 353.661 162.984 353.427 162.713C353.593 162.901 353.734 163.104 353.859 163.318C353.911 163.385 353.942 163.458 353.989 163.526C354.015 163.562 354.224 163.974 354.13 163.776C354.276 164.047 354.39 164.328 354.494 164.62C354.541 164.76 354.588 164.906 354.64 165.057C354.64 165.057 354.744 165.542 354.698 165.271C354.734 165.505 354.744 165.765 354.718 166.01C354.718 165.984 354.734 165.953 354.734 165.927C354.531 166.62 355.109 166.479 356.474 165.515C356.651 165.635 356.661 165.635 356.521 165.515C356.651 165.656 356.661 165.656 356.541 165.515C356.401 165.281 356.239 165.057 356.099 164.823C356.052 164.739 356 164.656 355.968 164.573C355.755 164.187 356.062 164.833 355.896 164.422C355.672 163.87 355.474 163.318 355.343 162.713C355.343 162.739 355.26 162.292 355.297 162.505C355.333 162.713 355.271 162.265 355.271 162.281C355.239 162.01 355.224 161.729 355.224 161.458C355.224 161.234 355.166 160.833 355.26 160.63C355.109 160.963 355.26 160.703 355.286 160.599C355.333 160.469 355.333 160.469 355.286 160.573C355.25 160.667 355.192 160.739 355.109 160.797C354.567 161.292 353.026 160.703 353.802 161.068C354.156 161.234 353.567 160.854 353.875 161.104C354.062 161.255 354.25 161.411 354.416 161.583C354.156 161.312 354.427 161.62 354.463 161.667C354.521 161.75 354.578 161.833 354.64 161.917C354.698 162 354.744 162.094 354.802 162.172C354.838 162.245 354.885 162.318 354.922 162.385C354.838 162.234 354.838 162.219 354.906 162.375C354.989 162.609 355.083 162.833 355.156 163.068C355.192 163.187 355.213 163.302 355.239 163.422C355.343 163.89 355.224 163.292 355.26 163.573C355.343 164.224 355.307 164.859 355.239 165.495C355.192 165.974 355.297 165.245 355.203 165.729C355.177 165.88 355.146 166.031 355.109 166.187C355.052 166.432 355.005 166.667 354.932 166.917C354.922 166.937 354.802 167.271 354.802 167.281C354.718 167.198 355.156 166.953 354.885 167.13C354.942 167.094 355.005 167.057 355.052 167.021C354.896 167.094 354.932 167.083 355.166 166.984C355.437 166.963 355.484 166.963 355.307 166.974C355.13 166.963 355.166 166.974 355.437 167C355.437 166.974 355.239 166.974 355.224 166.953C355.286 166.974 355.343 167 355.416 167.021C355.343 167 355.271 166.963 355.213 166.927C355.177 166.906 355.146 166.89 355.119 166.87C354.979 166.786 354.989 166.797 355.166 166.906C355.099 166.906 354.968 166.729 354.906 166.693C354.64 166.479 355.073 166.917 354.838 166.62C354.765 166.526 354.687 166.432 354.614 166.328C354.541 166.234 354.474 166.13 354.416 166.021C354.38 165.963 354.224 165.646 354.354 165.917C354.109 165.385 353.958 164.833 353.849 164.271C353.802 164.01 353.838 164.187 353.849 164.245C353.828 164.078 353.802 163.906 353.791 163.739C353.765 163.443 353.744 163.14 353.734 162.844C353.698 162.292 353.687 161.739 353.687 161.187C353.687 161.068 353.698 160.963 353.687 160.844C353.698 160.703 353.698 160.703 353.672 160.833C353.687 160.76 353.708 160.693 353.734 160.63C353.791 160.667 353.521 160.88 353.521 160.88C353.64 160.807 353.744 160.739 353.859 160.656C353.708 160.739 353.687 160.76 353.791 160.713C353.604 160.76 353.427 160.797 353.239 160.844C352.812 160.823 353.026 160.807 353.192 160.89C353.307 160.948 353.427 161.031 353.547 161.094C353.802 161.219 354.062 161.328 354.343 161.396C354.979 161.562 355.875 160.693 355.156 160.172ZM388.146 155.161C388.463 153.844 387.25 152.609 385.994 152.562C385.64 152.547 385.161 152.724 384.984 153.052C384.333 154.276 384.088 155.864 384.078 157.245C384.067 158.656 384.416 160.078 385.182 161.265C386.255 162.927 388.474 163.823 390.218 162.573C390.932 162.057 391.229 161.161 391.38 160.338C391.547 159.479 391.614 158.62 391.521 157.75C391.427 156.917 391.25 156.104 390.948 155.312C390.661 154.594 390.359 153.771 389.911 153.135C389.286 152.255 388.182 151.687 387.099 151.995C386.125 152.265 385.463 153.042 385.302 154.031C385.041 155.515 385.146 157.031 385.666 158.453C386.229 159.995 387.557 162.515 389.567 162.047C391.651 161.552 391.437 158.833 390.922 157.255C390.39 155.63 389.286 154.338 387.854 153.443C387.182 153.031 386.015 153.265 385.604 153.948C385.135 154.713 385.5 155.422 386.192 155.854C385.864 155.646 386.239 155.89 386.302 155.948C386.396 156.021 386.489 156.104 386.567 156.182C386.677 156.281 386.771 156.375 386.864 156.479C386.687 156.292 386.838 156.453 386.922 156.562C387.078 156.75 387.203 156.948 387.333 157.151C387.396 157.255 387.453 157.359 387.51 157.469C387.359 157.161 387.547 157.562 387.567 157.62C387.666 157.87 387.744 158.114 387.807 158.359C387.828 158.479 387.854 158.599 387.875 158.713C387.828 158.469 387.864 158.693 387.875 158.807C387.901 159.042 387.901 159.292 387.885 159.526C387.875 159.646 387.864 159.76 387.854 159.88C387.885 159.703 387.885 159.693 387.854 159.844C387.698 160.281 387.968 160.094 388.651 159.292C388.948 159.292 389.25 159.292 389.547 159.292C389.677 159.359 389.817 159.432 389.948 159.505C390.041 159.62 390.062 159.63 389.994 159.552C389.932 159.479 389.875 159.422 389.828 159.349C389.708 159.198 389.593 159.031 389.489 158.88C389.39 158.739 389.297 158.583 389.218 158.432C389.172 158.359 389.135 158.281 389.088 158.198C389.229 158.469 389.062 158.125 389.026 158.068C388.875 157.703 388.744 157.338 388.651 156.948C388.604 156.786 388.583 156.609 388.547 156.443C388.604 156.713 388.557 156.489 388.547 156.432C388.536 156.302 388.521 156.172 388.51 156.042C388.489 155.677 388.489 155.302 388.521 154.937C388.536 154.833 388.547 154.724 388.557 154.609C388.547 154.667 388.5 154.854 388.557 154.62C388.583 154.547 388.593 154.469 388.614 154.396C388.661 154.265 388.677 154.255 388.614 154.359C388.557 154.453 388.567 154.453 388.64 154.338C388.276 154.677 388.015 154.89 387.396 154.739C387.265 154.703 387.125 154.656 387.015 154.573C386.807 154.422 386.922 154.432 386.984 154.536C387.031 154.62 387.088 154.703 387.146 154.786C387.286 154.974 386.984 154.406 387.172 154.833C387.218 154.927 387.25 155.01 387.302 155.104C387.406 155.328 387.51 155.562 387.604 155.797C387.771 156.182 387.922 156.599 388.031 157.01C388.088 157.234 388.146 157.453 388.182 157.677C388.172 157.62 388.156 157.453 388.192 157.76C388.218 157.917 388.229 158.068 388.239 158.219C388.265 158.63 388.265 159.042 388.218 159.443C388.218 159.396 388.156 159.89 388.182 159.713C388.203 159.573 388.146 159.88 388.146 159.901C388.099 160.125 388.005 160.359 387.958 160.583C387.932 160.713 388.125 160.458 387.911 160.656C387.994 160.573 388.005 160.526 388.125 160.469C388.182 160.443 388.442 160.396 388.172 160.443C388.521 160.385 388.333 160.422 388.229 160.411C388.229 160.411 388.536 160.422 388.557 160.479C388.567 160.505 388.182 160.265 388.369 160.396C388.557 160.515 388.203 160.255 388.218 160.255C388.015 160.104 388.239 160.302 388.146 160.198C387.911 159.927 387.687 159.646 387.51 159.338C387.463 159.265 387.427 159.198 387.396 159.125C387.51 159.338 387.38 159.104 387.359 159.042C387.276 158.854 387.203 158.656 387.135 158.453C386.864 157.609 386.807 157.078 386.817 156.151C386.817 155.724 386.854 155.292 386.911 154.864C386.958 154.5 387.099 154.005 387.146 153.562C386.864 153.88 386.573 154.208 386.286 154.526C386.38 154.489 386.854 154.323 386.854 154.338C386.51 154.338 386.406 154.349 386.536 154.396C386.583 154.422 386.619 154.432 386.666 154.453C386.838 154.656 387.031 154.75 387.078 155.042C387.156 155.526 388.005 155.713 388.146 155.161ZM385.593 170.083C386.958 171.802 388.489 173.364 389.968 174.979C390.744 175.812 391.64 176.661 392.26 177.625C392.864 178.552 392.817 179.588 392.724 180.651C392.38 184.448 389.802 187.073 386.817 189.109C386.109 189.578 386.984 190.39 387.593 190.239C391.604 189.203 394.25 185.026 394.672 181.073C394.791 180.015 394.734 178.885 394.286 177.896C393.828 176.859 392.968 176.073 392.192 175.271C390.276 173.307 388.369 171.338 386.172 169.693C385.911 169.515 385.323 169.739 385.593 170.083ZM382.172 186.224C380.771 185.969 379.291 186.239 377.937 186.672C377.255 186.896 376.562 187.146 375.937 187.484C375.609 187.661 375.281 187.875 375.01 188.146C374.88 188.276 374.729 188.417 374.619 188.568C374.526 188.708 374.505 188.802 374.468 188.958C374.385 189.286 374.515 188.828 374.422 189.109C374.244 189.661 374.869 189.911 375.291 189.849C375.422 189.838 375.573 189.849 375.75 189.802C375.948 189.755 376.135 189.651 376.328 189.578C376.619 189.463 376.89 189.323 377.172 189.156C377.703 188.864 378.229 188.578 378.786 188.354C379.218 188.177 379.797 188.005 380.359 187.885C380.958 187.755 381.562 187.672 382.161 187.531C382.901 187.38 382.948 186.37 382.172 186.224ZM391.166 202.005C389.63 203.286 387.791 203.583 385.828 203.604C383.911 203.63 381.984 203.526 380.067 203.5C375.807 203.443 371.526 203.193 367.385 202.099C365.281 201.547 364.14 204.536 366.422 205.052C371.224 206.161 376.104 206.172 380.994 205.922C384.734 205.734 389.25 205.557 392.119 202.807C392.744 202.219 391.734 201.536 391.166 202.005ZM334.104 585.12C347.854 595.64 363.484 602.927 380.323 606.948C382.968 607.583 384.396 603.854 381.526 603.245C365.281 599.76 349.557 592.984 335.771 583.698C334.75 583.026 332.89 584.193 334.104 585.12ZM470.771 575.239C477.109 568.943 482.411 561.739 487 554.094C488.234 552.031 484.635 550.552 483.604 552.396C479.333 560.021 474.213 567.104 468.771 573.917C467.89 575.026 469.922 576.073 470.771 575.239ZM358.869 302.073C357.192 306.875 355.718 311.781 354.343 316.713C353.989 317.974 353.64 319.245 353.297 320.5C352.557 323.255 351.828 326.021 351.109 328.76C348.849 337.255 346.474 345.729 344.276 354.25C343.843 354.297 343.442 354.37 343.125 354.448C340.843 355.005 338.974 356.015 337.172 357.568C334.786 359.604 332.984 362.12 331.619 364.922C330.317 367.594 328.812 370.875 329.114 373.901C329.234 375.068 331.047 375.562 331.682 374.489C332.843 372.489 333.281 370.239 334.14 368.099C334.984 365.958 336.078 363.911 337.515 362.099C338.244 361.182 339.088 360.354 339.994 359.604C340.609 359.083 341.265 358.661 341.922 358.229C341.968 358.193 342.312 358.036 342.416 357.969C342.432 357.958 342.442 357.943 342.453 357.958C342.948 357.765 343.463 357.651 343.968 357.521C344.208 357.463 344.547 357.427 344.781 357.344C345.76 357.792 347.218 357.521 347.51 356.417C349.802 347.448 351.864 338.432 354.073 329.458C354.687 326.963 355.307 324.469 355.906 321.958C356.224 320.667 356.531 319.359 356.828 318.068C358.047 312.854 359.166 307.604 360.026 302.344C360.14 301.672 359.093 301.448 358.869 302.073ZM328.515 325.948C328.953 327.057 330.161 328.042 331.021 328.854C331.823 329.62 332.666 330.349 333.489 331.078C334.854 332.292 336.276 333.432 337.666 334.609C339.021 335.765 340.369 336.937 341.713 338.114C342.547 338.844 343.369 339.578 344.208 340.307C345.333 341.292 346.396 342.505 347.854 342.979C348.755 343.26 350.25 342.411 349.791 341.318C349.239 340.01 347.875 339.177 346.817 338.281C345.958 337.562 345.099 336.844 344.239 336.13C342.828 334.953 341.432 333.786 340.005 332.62C338.619 331.489 337.244 330.338 335.807 329.265C334.916 328.599 334.01 327.927 333.093 327.292C332.01 326.526 330.703 325.489 329.411 325.198C328.984 325.088 328.317 325.422 328.515 325.948ZM345.125 353.531C345.666 354.51 346.172 355.687 346.172 356.812C346.172 357.37 345.932 357.864 345.875 358.401C345.817 358.989 345.734 359.578 345.651 360.167C345.333 362.39 345.463 364.854 345.734 367.062C345.807 367.63 345.838 368.25 346.041 368.781C346.359 369.62 347.297 370.239 348.192 370.239C349.005 370.239 349.687 369.724 350.005 369.005C350.333 368.25 350.041 367.489 349.911 366.713C349.531 364.463 349.744 362.099 349.192 359.885C349.041 359.286 348.864 358.672 348.64 358.083C348.416 357.474 348.005 356.979 347.734 356.39C347.203 355.239 346.875 354.083 346.182 353C345.817 352.448 344.76 352.885 345.125 353.531ZM282.187 381.031C288.328 390.62 294.703 400.047 302.369 408.484C309.989 416.875 318.625 424.203 328.057 430.489C337.114 436.515 346.677 442.151 357.083 445.443C366.906 448.552 377.385 448.672 386.323 442.984C395.297 437.281 401.614 426.995 403.739 416.661C404.177 414.531 400.823 413.885 400.13 415.818C397.062 424.417 393.427 432.88 385.994 438.63C378.375 444.526 368.786 445.318 359.729 442.833C349.651 440.057 340.323 434.687 331.599 429.078C322.578 423.265 314.271 416.463 306.661 408.885C297.958 400.224 290.078 390.646 282.974 380.646C282.703 380.219 281.88 380.547 282.187 381.031ZM398 307.958C400.661 309.323 403.729 310.297 406.244 311.911C407.812 312.911 407.802 314.771 408.021 316.443C408.244 318.068 408.458 319.703 408.656 321.323C409.047 324.583 409.375 327.854 409.635 331.125C409.88 334.255 409.89 337.422 410.505 340.505C410.646 341.198 411.812 341 411.869 340.354C412.208 336.703 411.646 332.927 411.281 329.292C410.916 325.609 410.458 321.937 409.927 318.276C409.578 315.875 409.692 312.594 407.458 311.099C406.198 310.25 404.635 309.807 403.234 309.229C401.599 308.557 399.968 307.948 398.297 307.359C397.932 307.219 397.614 307.745 398 307.958ZM433.734 299.474C435.474 303.073 437.625 306.463 439.474 310.015C441.541 314.005 443.458 318.078 445.224 322.208C446.916 326.161 448.458 330.161 449.859 334.234C450.541 336.224 451.177 338.213 451.786 340.224C452.338 342.026 452.635 344.328 454.093 345.635C454.656 346.14 455.713 345.953 455.974 345.213C456.609 343.411 455.489 341.187 454.927 339.484C454.271 337.479 453.541 335.505 452.786 333.552C451.198 329.432 449.458 325.375 447.588 321.37C445.786 317.547 443.859 313.792 441.791 310.099C439.672 306.333 437.541 302.427 434.771 299.099C434.463 298.755 433.453 298.896 433.734 299.474ZM433.026 593.713C433.38 602.219 433.343 610.75 433.109 619.26C432.864 627.802 432.119 636.26 431.557 644.771C431.437 646.5 434.406 646.427 434.625 644.771C435.718 636.38 435.958 627.708 435.922 619.26C435.885 610.713 435.286 602.208 434.369 593.713C434.26 592.995 432.994 592.969 433.026 593.713ZM360.942 257.453C360.505 254.854 358.896 252.265 357.437 250.109C355.791 247.687 353.922 245.427 351.989 243.239C349.968 240.943 347.875 238.708 345.791 236.458C343.744 234.26 341.453 232.057 340.666 229.073C340.666 229.047 340.656 229.036 340.656 229.01C340.557 228.625 339.771 228.682 339.828 229.104C339.901 229.531 339.994 229.943 340.114 230.344C340.687 232.354 341.843 234.12 343.192 235.729C345.286 238.213 347.427 240.672 349.583 243.12C351.453 245.25 353.323 247.417 354.906 249.755C355.932 251.265 356.708 252.828 357.427 254.427C357.953 255.583 358.437 256.734 358.979 257.911C359.109 258.208 359.343 258.38 359.614 258.463C360.26 258.677 361.083 258.302 360.942 257.453ZM343.89 225.859C344.937 226.01 346.041 225.765 347.099 225.729C348.369 225.693 349.651 225.729 350.922 225.906C353.484 226.271 355.802 227.213 357.906 228.703C359.942 230.14 361.885 231.755 363.755 233.401C364.708 234.234 365.635 235.094 366.552 235.979C367.375 236.765 368.13 237.849 369.187 238.307C369.635 238.505 370.432 238.239 370.234 237.625C369.869 236.505 368.672 235.661 367.843 234.87C366.823 233.885 365.765 232.917 364.682 231.989C362.635 230.213 360.521 228.458 358.187 227.068C356.083 225.797 353.765 225.047 351.323 224.786C349.994 224.646 348.651 224.635 347.323 224.719C346.203 224.786 344.828 224.786 343.807 225.271C343.536 225.411 343.593 225.823 343.89 225.859ZM636.911 152.734C641.922 151.818 646.932 150.828 651.932 149.828C655.375 149.146 660.177 148.76 662.422 145.63C662.843 145.052 661.833 144.536 661.411 144.958C658.494 147.875 654.198 148.172 650.333 148.937C645.744 149.844 641.156 150.75 636.583 151.713C635.791 151.89 636.192 152.864 636.911 152.734ZM632.703 170.432C637.088 169.609 641.213 168.13 645.437 166.776C647.51 166.114 649.588 165.515 651.708 165.031C652.708 164.812 653.718 164.635 654.729 164.443C655.656 164.281 656.703 164.198 657.422 163.542C657.797 163.187 657.448 162.75 657.021 162.713C656.057 162.656 655.057 163.047 654.119 163.219C653.036 163.422 651.942 163.62 650.869 163.89C648.838 164.385 646.849 165.047 644.875 165.739C640.781 167.177 636.744 168.859 632.604 170.14C632.385 170.213 632.489 170.479 632.703 170.432ZM640.802 180.38C643.369 179.802 645.922 179.177 648.458 178.495C649.521 178.213 650.588 177.917 651.588 177.458C652.39 177.083 653.833 176.422 653.916 175.437C653.953 174.989 653.411 174.849 653.083 174.896C652.541 174.979 652.166 175.401 651.718 175.693C651.317 175.953 650.896 176.167 650.458 176.364C649.474 176.823 648.448 177.156 647.427 177.495C645.119 178.25 642.828 179.047 640.547 179.885C640.192 180.015 640.484 180.448 640.802 180.38Z" fill="#3B365F"/>
</svg>
